<svg width="369" height="339" viewBox="0 0 369 339" fill="none" xmlns="http://www.w3.org/2000/svg">
<g clip-path="url(#clip0_669_1873)">
<path d="M90.92 288.45C87.44 288.45 84.56 291.21 84.62 294.75C84.62 298.29 87.44 300.99 90.92 300.99C94.4 300.99 97.22 298.23 97.22 294.69C97.22 291.15 94.4 288.45 90.92 288.45Z" fill="#FE5438"/>
<path d="M165.72 295.91C164.96 295.99 164.18 295.94 163.28 295.93C163.08 295.93 162.89 296.05 162.82 296.24C162.49 297.06 162.15 297.87 161.84 298.68C161.37 300.25 160.45 301.66 159.2 302.71C159.19 302.72 159.17 302.74 159.15 302.75C157.36 304.06 155.29 304.94 153.1 305.3C151.71 305.56 150.27 305.38 148.99 304.79C145.87 303.49 143.76 300.53 143.54 297.16C143.33 295.1 143.35 293.01 143.26 290.93C143.17 288.91 143.53 286.89 144.32 285.02C145.32 282.33 147.65 280.36 150.45 279.81C152.48 279.48 154.56 279.79 156.41 280.68C158.62 281.38 160.43 282.99 161.39 285.1C161.67 285.81 161.89 286.54 162.03 287.29C162.1 287.97 162.69 288.48 163.37 288.46C164.58 288.49 165.79 288.32 166.95 287.96C167.14 287.9 167.28 287.72 167.3 287.52C167.47 285.03 166.77 282.56 165.31 280.53C164.33 278.92 162.98 277.57 161.37 276.59C158.66 274.86 155.48 274.04 152.28 274.26C152.26 274.26 152.25 274.26 152.23 274.26C151.26 274.41 150.29 274.51 149.31 274.54C147.43 274.58 145.61 275.22 144.12 276.37C140.76 278.79 138.56 282.5 138.04 286.62C137.3 290.42 137.28 294.33 137.96 298.14C138.49 301.75 140.2 305.07 142.82 307.6C144.56 309.37 146.92 310.39 149.4 310.45C149.69 310.44 149.98 310.45 150.27 310.5C152.25 310.93 154.31 310.91 156.28 310.44C158.8 309.93 161.14 308.77 163.07 307.07C165.21 305.19 166.66 302.63 167.18 299.82C167.33 298.89 167.47 297.95 167.6 297.06C167.62 296.95 167.6 296.85 167.55 296.75C167.18 296.11 166.44 295.76 165.7 295.9L165.72 295.91Z" fill="#FE5438"/>
<path d="M213.52 281.45C211.88 278.22 208.96 275.83 205.47 274.87C202.77 274.14 199.95 274.01 197.19 274.49C194.52 274.87 192.04 276.04 190.06 277.87C187.89 279.79 186.42 282.38 185.87 285.23C185.45 287.73 185.35 290.29 185.13 292.82C185.11 293.02 185.11 293.22 185.13 293.42C185.17 294.07 185.27 295.63 185.36 296.49C185.48 298.85 186.07 301.15 187.1 303.27C188.95 307.14 192.6 309.84 196.84 310.46C198.26 310.71 199.71 310.81 201.16 310.74C202.96 310.68 204.74 310.37 206.44 309.81C210.89 308.18 214.13 304.3 214.95 299.63C215.25 298.01 215.43 296.37 215.49 294.72C215.57 292.31 215.47 289.9 215.21 287.51C215.11 285.39 214.54 283.31 213.53 281.44L213.52 281.45ZM209.9 292.43C209.79 293.91 209.7 295.36 209.56 296.82C209.38 300.38 206.99 303.45 203.58 304.48C200.09 305.74 196.2 304.89 193.55 302.28C192.57 301.34 191.89 300.14 191.58 298.81C190.95 296.05 190.75 293.22 190.99 290.4C191.06 288.94 191.3 287.49 191.7 286.08C192.48 283.32 194.66 281.18 197.44 280.46C200.84 279.34 204.58 280.19 207.15 282.68C207.87 283.44 208.43 284.34 208.79 285.33C209.69 287.58 210.07 290.01 209.89 292.42L209.9 292.43Z" fill="#FE5438"/>
<path d="M278 288.45C274.52 288.45 271.64 291.21 271.7 294.75C271.7 298.29 274.52 300.99 278 300.99C281.48 300.99 284.3 298.23 284.3 294.69C284.3 291.15 281.48 288.45 278 288.45Z" fill="#FE5438"/>
<path d="M119.475 134.213C118.324 134.158 117.163 134.111 116.001 134.019C114.972 133.936 114.719 134.093 114.719 135.137V143.072C114.719 147.007 114.747 150.961 114.747 154.887V154.915C114.728 155.183 114.7 155.45 114.663 155.718C114.625 155.977 114.288 156.06 114.129 155.857C113.885 155.552 113.689 155.321 113.53 155.062C111.385 151.681 109.279 148.273 107.153 144.864C105.206 141.751 103.211 138.666 101.32 135.525C100.889 134.638 99.9531 134.102 98.9512 134.158C98.1366 134.176 97.3127 134.139 96.4981 134.056C95.206 133.927 95.0281 134.028 95.0281 135.266C95.0094 137.696 95 140.125 95 142.545C95.0094 146.545 95.0562 150.536 95.0562 154.536C95.0562 156.319 95.0094 158.102 95.0094 159.885C95.0094 161.926 95.0281 163.968 95.0281 166C95 166.249 95.0843 166.499 95.2528 166.674C95.4213 166.859 95.6742 166.951 95.927 166.942C97.3033 167.053 98.6797 167.007 100.047 166.785C100.197 166.757 100.3 166.637 100.3 166.489V144.578C100.487 144.707 100.665 144.855 100.824 145.021C100.843 145.04 100.861 145.058 100.871 145.077C103.858 149.889 106.835 154.702 109.812 159.515C111.067 161.538 112.312 163.57 113.548 165.603C113.867 166.369 114.597 166.896 115.43 166.979C116.76 166.998 118.089 166.979 119.466 166.979C119.625 166.979 119.747 166.868 119.765 166.711C120.103 163.423 120.056 137.548 119.756 134.453C119.737 134.305 119.625 134.195 119.475 134.185V134.213Z" fill="#FE5438"/>
<path d="M139.53 153.063C139.485 157.011 139.485 160.951 139.485 164.899C139.485 165.397 139.512 165.886 139.539 166.431C139.558 166.717 139.776 166.947 140.058 166.966C141.396 167.039 142.742 166.993 144.08 166.837C144.335 166.809 144.535 166.597 144.562 166.338C144.599 166.043 144.617 165.812 144.626 165.573C144.699 161.246 144.781 156.928 144.826 152.601C144.799 151.559 145.136 150.535 145.782 149.723C146.009 149.428 146.218 149.105 146.41 148.782C147.756 146.632 149.076 144.464 150.432 142.324C151.842 140.119 153.289 137.932 154.699 135.728C154.708 135.709 154.727 135.691 154.736 135.672C154.818 135.515 154.89 135.349 154.963 135.183C155.036 134.989 155 134.759 154.863 134.602C154.39 134.058 154.326 134.039 153.789 134.021C152.834 133.993 151.878 133.993 150.923 134.021C150.213 133.993 149.54 134.362 149.176 134.971C148.612 135.894 148.002 136.798 147.42 137.702C146.637 138.929 145.845 140.156 145.072 141.383C144.726 141.918 144.326 142.435 144.016 142.988C143.489 144.021 142.852 144.99 142.124 145.885C141.933 145.802 141.796 145.793 141.741 145.719C140.504 144.031 139.649 142.121 138.356 140.405C137.064 138.689 136.009 136.77 134.871 134.943C134.534 134.371 133.925 134.021 133.27 134.021C132.214 133.993 131.149 134.021 130.085 134.021C129.621 134.012 129.211 134.288 129.038 134.703C128.975 134.86 128.993 135.036 129.075 135.183C129.766 136.364 130.503 137.646 131.277 138.883C132.323 140.571 133.415 142.232 134.498 143.892C135.763 145.839 137.028 147.795 138.32 149.732C139.057 150.682 139.476 151.845 139.521 153.053L139.53 153.063Z" fill="#FE5438"/>
<path d="M185.93 156.06C189.47 156.06 192.23 153.3 192.23 149.76C192.23 146.22 189.41 143.52 185.93 143.52C182.45 143.52 179.57 146.28 179.63 149.82C179.63 153.36 182.45 156.06 185.93 156.06Z" fill="#FE5438"/>
<path d="M241.496 134.213C240.391 134.158 239.276 134.111 238.161 134.019C237.173 133.936 236.939 134.093 236.939 135.137V143.072C236.939 147.007 236.966 150.961 236.966 154.887V154.915C236.948 155.183 236.921 155.45 236.885 155.718C236.849 155.977 236.526 156.06 236.373 155.857C236.139 155.552 235.95 155.321 235.797 155.062C233.739 151.681 231.717 148.273 229.676 144.864C227.807 141.751 225.892 138.666 224.076 135.525C223.663 134.638 222.764 134.102 221.802 134.158C221.02 134.176 220.229 134.139 219.447 134.056C218.207 133.927 218.027 134.028 218.027 135.266C218.009 137.696 218 140.125 218 142.545C218.009 146.545 218.054 150.536 218.054 154.536C218.054 156.319 218.009 158.102 218.009 159.885C218.009 161.926 218.027 163.968 218.027 166C218 166.249 218.081 166.499 218.243 166.674C218.413 166.859 218.647 166.951 218.89 166.942C220.211 167.053 221.533 167.007 222.845 166.785C222.989 166.757 223.088 166.637 223.088 166.489V144.578C223.267 144.707 223.438 144.855 223.591 145.021C223.609 145.04 223.627 145.058 223.636 145.077C226.503 149.889 229.362 154.702 232.22 159.515C233.424 161.538 234.62 163.57 235.806 165.603C236.112 166.369 236.813 166.896 237.613 166.979C238.89 166.998 240.166 166.979 241.487 166.979C241.631 166.979 241.757 166.868 241.775 166.711C242.098 163.423 242.053 137.548 241.766 134.453C241.757 134.305 241.64 134.195 241.496 134.185V134.213Z" fill="#FE5438"/>
<path d="M267.08 166.846C267.335 166.818 267.535 166.606 267.562 166.347C267.59 166.052 267.617 165.821 267.626 165.581C267.699 161.253 267.781 156.935 267.826 152.606C267.799 151.564 268.136 150.539 268.782 149.727C269.009 149.432 269.218 149.109 269.41 148.786C270.756 146.636 272.076 144.467 273.432 142.326C274.842 140.121 276.289 137.934 277.699 135.728C277.708 135.71 277.727 135.691 277.736 135.673C277.818 135.516 277.89 135.35 277.963 135.184C278.036 134.99 278 134.759 277.863 134.602C277.39 134.058 277.326 134.039 276.789 134.021C275.834 133.993 274.878 133.993 273.923 134.021C273.213 133.993 272.549 134.362 272.176 134.971C271.612 135.894 271.002 136.798 270.42 137.703C269.637 138.93 268.845 140.158 268.072 141.385C267.726 141.92 267.326 142.437 267.016 142.991C266.489 144.024 265.852 144.993 265.124 145.888C264.933 145.805 264.796 145.796 264.741 145.722C263.504 144.033 262.649 142.123 261.356 140.407C260.064 138.69 259.009 136.771 257.871 134.944C257.534 134.371 256.925 134.021 256.27 134.021C255.214 133.993 254.149 134.021 253.085 134.021C252.621 134.012 252.211 134.288 252.038 134.704C251.975 134.861 251.993 135.036 252.075 135.184C252.766 136.365 253.503 137.647 254.277 138.884C255.332 140.573 256.415 142.234 257.498 143.895C258.763 145.842 260.028 147.799 261.32 149.736C262.057 150.687 262.476 151.85 262.521 153.059C262.476 157.008 262.476 160.949 262.476 164.899C262.476 165.397 262.503 165.886 262.53 166.43C262.539 166.716 262.767 166.947 263.049 166.966C264.396 167.039 265.733 166.993 267.071 166.836L267.08 166.846Z" fill="#FE5438"/>
<path d="M145.516 221.632C146.612 221.815 147.736 221.86 148.841 221.952C150.275 222.107 151.728 221.888 153.052 221.312C154.505 220.701 155.903 219.943 157.209 219.066C159.566 217.45 160.954 214.748 160.909 211.872C160.963 209.799 160.854 207.717 160.854 205.645C160.881 200.787 160.954 195.948 161 191.091C161 190.661 160.973 190.214 160.945 189.703C160.927 189.447 160.726 189.237 160.47 189.228C158.935 189.21 157.483 188.707 155.893 189.292C155.702 189.365 155.592 189.547 155.592 189.748C155.592 192.414 155.592 195.017 155.592 197.628C155.592 201.728 155.546 205.836 155.592 209.945C155.619 212.419 154.121 214.647 151.837 215.542C149.974 216.391 147.836 216.409 145.954 215.588C145.105 215.286 144.365 214.738 143.826 214.017C142.757 212.675 142.181 210.995 142.181 209.269C142.09 206.019 142.136 202.759 142.181 199.5C142.218 196.678 142.364 193.866 142.428 191.054V191.017C142.41 190.561 142.382 190.104 142.328 189.657C142.3 189.411 142.081 189.228 141.834 189.228C140.272 189.2 138.81 188.68 137.358 189.31C137.203 189.374 137.102 189.52 137.075 189.694C137.057 189.831 137.047 189.967 137.038 190.104C137.038 196.076 137.066 202.056 137.011 208.028C136.947 210.155 137.166 212.282 137.659 214.355C138.463 217.341 140.592 219.778 143.424 220.956C144.091 221.285 144.794 221.522 145.525 221.65L145.516 221.632Z" fill="#FE5438"/>
<path d="M192.756 219.711C195.356 218.002 196.944 215.049 196.979 211.863C197.186 208.825 195.832 205.909 193.419 204.181C191.177 202.37 188.37 201.478 185.537 201.664C184.183 201.766 182.819 201.655 181.501 201.33C180.389 201.135 179.421 200.438 178.856 199.425C178.291 198.413 178.192 197.187 178.587 196.091C178.811 195.153 179.412 194.363 180.237 193.908C181.205 193.388 182.263 193.063 183.34 192.951C184.927 192.589 186.595 192.831 188.03 193.629C189.303 194.242 190.272 195.385 190.693 196.769C191.249 198.682 191.545 198.822 193.491 198.385C193.993 198.255 194.495 198.088 194.98 197.893C195.204 197.819 195.392 197.661 195.509 197.447C195.616 197.233 195.643 196.983 195.58 196.75C195.285 194.242 193.993 191.976 192.02 190.499C191.33 189.933 190.576 189.459 189.769 189.087C187.626 188.205 185.321 187.852 183.026 188.056C180.631 188.224 178.327 189.097 176.399 190.583C174.677 191.781 173.502 193.667 173.161 195.794C172.596 198.617 173.547 201.525 175.645 203.419C177.815 205.407 180.613 206.503 183.501 206.503C184.747 206.503 186.003 206.596 187.249 206.68C189.321 206.884 191.016 208.463 191.437 210.572C191.814 213.144 190.361 215.634 187.985 216.479C185.985 217.176 183.806 217.101 181.86 216.256C179.941 215.69 178.389 214.203 177.681 212.262C177.484 211.835 177.242 211.426 176.973 211.045C176.901 210.943 176.775 210.915 176.668 210.962L173.314 212.327C173.242 212.355 173.179 212.42 173.152 212.494C172.919 213.2 172.955 213.971 173.251 214.649C174.103 216.674 175.52 218.383 177.322 219.554C178.936 220.65 180.748 221.374 182.649 221.69C186.146 222.47 189.796 221.764 192.792 219.73L192.756 219.711Z" fill="#FE5438"/>
<path d="M235.006 216.963C234.382 215.569 233.656 214.247 233.014 212.854C232.371 211.46 231.804 210.03 231.199 208.609C230.026 205.876 228.853 203.151 227.661 200.427C227.456 199.941 227.177 199.492 226.972 199.006C226.47 197.837 226.023 196.65 225.502 195.499C224.636 193.566 223.733 191.642 222.83 189.718C222.635 189.259 222.16 188.981 221.657 189.007H220.279C219.013 188.936 218.353 189.385 217.813 190.257C217.654 190.509 217.45 190.941 217.338 191.21C216.621 192.928 215.932 194.654 215.188 196.345C214.294 198.377 213.317 200.364 212.497 202.441C211.055 206.083 209.388 209.643 207.806 213.24C207.443 214.283 206.977 215.29 206.409 216.243C205.87 217.098 205.469 218.024 205.209 218.986C204.743 220.434 204.995 220.748 206.596 220.811C207.136 220.838 207.694 220.829 208.225 220.883C209.723 221.045 209.993 220.883 210.515 219.57C211.166 217.961 211.846 216.369 212.516 214.769C212.823 214.04 213.102 213.294 213.428 212.575C213.605 212.116 214.089 211.828 214.592 211.891C216.156 211.981 217.738 211.999 219.302 212.08C220.084 212.116 220.866 212.143 221.648 212.116C223.026 212.062 224.403 211.99 225.781 211.864C226.74 211.685 227.661 212.287 227.857 213.204C227.959 213.51 228.062 213.807 228.183 214.103C228.974 216.064 229.774 218.024 230.575 219.966C230.668 220.218 230.826 220.443 231.031 220.613C231.264 220.829 231.562 220.964 231.878 221C232.958 220.973 234.038 220.892 235.118 220.766C235.406 220.766 235.676 220.64 235.834 220.425C236.002 220.2 236.048 219.912 235.946 219.651C235.704 218.734 235.397 217.826 235.015 216.954L235.006 216.963ZM224.534 205.822C221.881 206.326 219.153 206.361 216.491 205.948C216.398 205.93 216.342 205.831 216.37 205.75C216.798 204.68 217.217 203.619 217.664 202.567C218.287 201.11 218.939 199.663 219.581 198.206C219.646 198.062 219.684 197.9 219.758 197.765C220.121 197.082 220.726 197.028 221.108 197.675C221.518 198.359 221.881 199.069 222.197 199.798C222.979 201.65 223.733 203.52 224.487 205.381C224.589 205.579 224.701 205.822 224.543 205.822H224.534Z" fill="#FE5438"/>
<path d="M337.23 40.49C316.47 17.5 289.28 3.82 260.61 1.99C210.08 -0.670005 158.84 -0.670005 108.28 1.99C79.65 3.82 52.45 17.5 31.7 40.49C11.55 62.81 0 91.79 0 120V223.81C0 250.73 11.02 278.39 30.23 299.69C50.01 321.62 75.95 334.71 103.3 336.55C130.23 338.06 157.36 338.81 184.48 338.81C209.92 338.81 235.35 338.15 260.61 336.82H260.64C289.27 334.98 316.47 321.31 337.22 298.32C357.37 276 368.92 247.02 368.92 218.81V120C368.92 91.79 357.37 62.81 337.22 40.49H337.23ZM362.93 218.81C362.93 245.56 351.94 273.07 332.78 294.3C313.08 316.12 287.34 329.09 260.29 330.83C208.32 333.56 155.62 333.47 103.68 330.56C77.93 328.83 53.43 316.44 34.7 295.67C16.47 275.45 6.01 249.26 6.01 223.8V119.99C6.01 93.24 17 65.73 36.16 44.5C55.85 22.69 81.61 9.71 108.63 7.98C133.8 6.66 159.13 6 184.47 6C209.81 6 235.12 6.66 260.26 7.98C287.32 9.71 313.07 22.69 332.77 44.51C351.94 65.74 362.93 93.26 362.92 120V218.81H362.93Z" fill="#FE5438"/>
<path d="M80.96 255.36C79.89 253.86 78.89 252.31 77.82 250.81C76.22 248.57 74.63 246.32 72.95 244.13C72.08 243 71.12 241.93 70.09 240.94C68.71 239.65 66.8 239.09 64.94 239.42C63.03 239.62 61.17 240.15 59.45 240.99C57.92 241.68 56.64 242.83 55.81 244.29C54.87 246.07 54.17 247.97 53.27 250.04C53.2 250.08 53.12 250.1 53.04 250.12C50.02 250.65 47.18 251.91 44.76 253.79C44.4 254.01 44.1 254.3 43.87 254.66C43.18 255.7 42.62 256.82 42.2 258C41.3 260.66 41.72 263.59 43.34 265.88L45.58 268.91C48 272.17 50.42 275.45 52.87 278.71C53.14 279.19 53.59 279.54 54.12 279.68C54.65 279.82 55.21 279.75 55.69 279.47C56.01 279.31 56.32 279.12 56.6 278.9C58.42 277.55 60.23 276.18 62.05 274.84C68.35 270.17 74.65 265.52 80.95 260.86C81.58 260.4 82.25 260 82.85 259.51C83.57 258.93 83.56 258.59 82.97 257.88C82.29 257.05 81.59 256.23 80.97 255.36H80.96ZM61.4 267.58C61.31 268.04 61.02 268.43 60.61 268.64C59.24 269.69 57.85 270.71 56.44 271.71C55.63 272.29 54.81 272.12 54.11 271.21C52.99 269.73 50.77 266.76 50.77 266.76L47.78 262.73C46.65 261.62 46.59 259.81 47.66 258.64C48.32 257.43 49.4 256.51 50.69 256.03C51.78 255.6 53.02 255.88 53.81 256.74C56.09 259.35 58.21 262.1 60.15 264.97C60.48 265.39 60.79 265.84 61.07 266.3C61.37 266.65 61.5 267.12 61.41 267.58H61.4ZM67.07 263.24C66.09 261.99 65.18 260.9 64.33 259.75C62.76 257.63 61.23 255.46 59.69 253.34C58.79 252.11 58.69 250.46 59.43 249.12C60.57 246.87 62.86 245.44 65.38 245.4C66.74 245.31 68.05 245.99 68.74 247.17C71.03 250.24 73.18 253.41 75.55 256.78L75.56 256.8C72.97 259.25 70.12 261.41 67.06 263.24H67.07Z" fill="#FE5438"/>
<path d="M65.66 228.09C65.76 227.79 65.84 227.67 65.83 227.57C65.53 226.08 65.22 224.58 64.9 223.09C64.89 223.04 64.87 222.99 64.85 222.95C64.82 222.88 64.79 222.81 64.75 222.74C64.62 222.48 64.33 222.34 64.05 222.39C59.3 223.34 54.5 224.02 49.67 224.42C49.34 224.45 49.05 224.22 48.99 223.9C48.76 222.65 48.56 221.48 48.27 220.33C47.84 218.97 48.37 217.5 49.56 216.71C51.17 215.46 52.77 214.21 54.41 212.99C56.47 211.44 58.57 209.94 60.64 208.41C61.65 207.8 62.14 206.61 61.85 205.47C61.57 204.25 61.47 202.99 61.28 201.74L61.03 200.25C60.62 200.32 60.48 200.3 60.42 200.39C58.63 201.79 56.83 203.19 55.04 204.6C52.83 206.33 50.65 208.12 48.37 209.77C46.97 210.78 46.7 210.68 45.61 209.25C44.26 207.4 42.24 206.16 39.99 205.81C39.96 205.81 39.94 205.81 39.91 205.81C37.59 205.64 35.26 205.73 32.96 206.09C32.66 206.13 32.37 206.25 32.13 206.44C31.1 207.05 30.15 207.77 29.28 208.59C27.28 210.56 26.32 213.36 26.72 216.14L27.31 219.69C28.03 224 28.74 228.32 29.49 232.62C29.73 234.04 29.95 234.17 31.44 233.93C34.27 233.46 37.1 232.95 39.94 232.48C48.06 231.16 56.17 229.83 64.28 228.48C64.75 228.38 65.22 228.25 65.68 228.1L65.66 228.09ZM42.13 225.76C41.89 226.09 41.52 226.29 41.11 226.31C39.24 226.64 37.35 226.84 35.38 227.1C35.25 226.9 35.14 226.68 35.06 226.46C34.43 222.62 33.79 218.78 33.2 214.93C33.11 213.94 33.69 213.02 34.62 212.68C36.04 212.15 37.59 212.11 39.03 212.56C39.93 212.82 40.59 213.58 40.72 214.51C41.31 217.87 41.84 221.24 42.34 224.62C42.45 225.01 42.37 225.43 42.13 225.76Z" fill="#FE5438"/>
<path d="M30.92 189.04C37.62 192.06 45.25 192.31 52.15 189.75C53.83 189.13 55.34 188.12 56.54 186.78C57.4 185.81 58.19 184.78 58.9 183.7C59.41 182.97 59.82 182.18 60.12 181.35C60.72 179.23 61.02 177.04 61.02 174.83C61.1 173.63 60.86 172.43 60.33 171.34C59.67 169.63 58.79 168.01 57.71 166.52C56.74 165.17 55.49 164.05 54.04 163.24C50.9 161.7 47.46 160.86 43.96 160.78C42.48 160.76 41.02 160.96 39.55 160.92C37.42 160.81 35.29 161.28 33.4 162.27C30.79 163.54 28.5 165.37 26.69 167.63C24.47 170.28 23.36 173.68 23.59 177.12C23.53 177.8 23.51 178.49 23.52 179.17C23.52 179.82 23.64 180.46 23.87 181.06C24.37 182.21 24.97 183.31 25.68 184.35C27.03 186.31 28.83 187.92 30.93 189.06L30.92 189.04ZM32.48 169.74C32.98 169.25 33.57 168.85 34.22 168.57C35.2 167.9 36.28 167.41 37.43 167.13C39.07 166.98 40.69 166.66 42.32 166.42C44.53 166.52 46.72 166.85 48.86 167.4C49.85 167.66 50.71 168.26 51.3 169.09C51.72 169.74 52.21 170.34 52.75 170.9C53.78 172.01 54.32 173.48 54.25 174.99C54.53 178.29 52.78 181.43 49.82 182.93C47.78 184.03 45.59 184.8 43.32 185.23C40.27 185.91 37.07 185.39 34.39 183.77C31.6 182.12 29.91 179.12 29.93 175.89C29.92 175.83 29.92 175.77 29.93 175.71C30.24 173.53 31.12 171.47 32.49 169.74H32.48Z" fill="#FE5438"/>
<path d="M26.8 132.94C27.64 135.16 29.01 137.16 30.77 138.76C36.56 143.29 43.91 145.36 51.22 144.51C53 144.31 54.71 143.68 56.19 142.68C57.26 141.94 58.27 141.13 59.22 140.25C59.89 139.67 60.47 139 60.96 138.26C62.04 136.34 62.86 134.28 63.39 132.14C63.75 130.99 63.81 129.77 63.56 128.59C63.33 126.77 62.86 124.99 62.17 123.29C61.55 121.75 60.6 120.37 59.38 119.23C56.7 116.98 53.56 115.34 50.18 114.44C48.75 114.06 47.28 113.91 45.87 113.52C43.82 112.9 41.65 112.85 39.58 113.36C36.75 113.97 34.08 115.2 31.78 116.96C28.99 119 27.11 122.04 26.51 125.43C26.29 126.08 26.1 126.74 25.95 127.4C25.79 128.03 25.75 128.68 25.84 129.32C26.05 130.56 26.38 131.77 26.81 132.94H26.8ZM32.93 125.75C32.93 125.69 32.95 125.63 32.97 125.57C33.79 123.53 35.14 121.74 36.88 120.39C37.48 120.03 38.15 119.79 38.84 119.67C39.95 119.25 41.12 119.04 42.3 119.04C43.93 119.29 45.58 119.36 47.22 119.51C49.34 120.14 51.39 120.98 53.34 122.02C54.24 122.51 54.94 123.29 55.3 124.24C55.56 124.97 55.88 125.68 56.27 126.34C57 127.66 57.18 129.22 56.75 130.67C56.23 133.94 53.79 136.57 50.56 137.33C48.32 137.91 46 138.14 43.69 138.01C40.56 137.95 37.58 136.67 35.37 134.47C33.06 132.2 32.13 128.88 32.92 125.75H32.93Z" fill="#FE5438"/>
<path d="M41.05 90.89C43.36 92.56 45.68 94.21 48 95.86C53.37 99.69 58.74 103.51 64.12 107.33C65.62 108.39 67.14 109.43 68.64 110.5C69.23 110.92 69.8 110.95 70.21 110.38C71.13 109.28 71.92 108.08 72.58 106.81C72.61 106.75 72.6 106.67 72.55 106.62C71.94 106.02 71.31 105.45 70.65 104.91C68.88 103.6 67.06 102.37 65.28 101.08C64.31 100.62 63.55 99.8 63.16 98.79C63.16 98.79 63.16 98.77 63.16 98.76C62.79 96.95 62.51 95.12 62.18 93.21C62.17 93.14 62.21 93.06 62.28 93.03C62.71 92.86 63.16 92.73 63.61 92.64C63.61 92.64 63.63 92.64 63.64 92.64C64.53 92.58 65.41 92.58 66.3 92.63C70.22 92.83 74.13 93.07 78.05 93.26C79.6 93.33 81.17 93.31 82.72 93.33C82.77 93.33 82.82 93.31 82.85 93.27C84.08 91.65 85.12 89.89 85.94 88.03C85.98 87.93 85.91 87.82 85.8 87.81C85.15 87.76 84.58 87.71 84.02 87.69C76.83 87.39 69.64 87.08 62.48 86.31C61.24 86.18 61.01 85.96 60.8 84.68C60.3 81.57 59.8 78.45 59.32 75.33C59.15 74.26 59.06 73.2 58.86 72.15C58.55 70.46 58.17 68.78 57.78 66.9C57.76 66.8 57.66 66.74 57.56 66.78C57.2 66.93 56.87 67.12 56.55 67.35C56.54 67.35 56.53 67.37 56.52 67.38C55.77 68.22 55.08 69.12 54.36 69.99C53.75 70.67 53.46 71.58 53.54 72.49C53.94 75.79 54.37 79.08 54.83 82.37C55.29 85.5 55.8 88.6 56.23 91.73C56.4 92.57 56.36 93.44 56.13 94.26C56.1 94.36 55.97 94.4 55.88 94.34C54.89 93.64 54.01 93.05 53.16 92.41C50.5 90.42 47.85 88.41 45.19 86.43C44.77 86.12 44.29 85.88 43.8 85.6C43.73 85.56 43.65 85.58 43.6 85.64C42.63 86.87 41.79 87.98 40.91 89.04C40.15 89.95 40.11 90.22 41.04 90.9L41.05 90.89Z" fill="#FE5438"/>
<path d="M112.06 65.23C111.14 63.89 110.81 63.81 109.44 64.7C104.36 67.99 99.29 71.27 94.21 74.55C93.73 74.86 93.23 75.14 92.63 75.5C92.51 75.57 92.34 75.55 92.26 75.43C89.23 71.48 86.84 67.27 84.07 63.33C81.27 59.34 79.08 54.94 76.07 50.92C75.98 50.8 75.82 50.77 75.7 50.85L74.43 51.6C73.61 52.09 72.8 52.6 71.96 53.06C70.97 53.6 70.87 53.88 71.52 54.89C73.02 57.21 74.55 59.51 76.08 61.81C78.65 65.66 81.23 69.49 83.79 73.34C84.79 74.84 85.75 76.37 86.75 77.87C88 79.76 89.27 81.64 90.54 83.52C90.68 83.76 90.92 83.92 91.19 83.98C91.46 84.03 91.74 83.98 91.97 83.81C92.23 83.66 92.49 83.5 92.73 83.33C99.41 78.88 106.1 74.43 112.78 69.97C113.21 69.68 113.62 69.36 114.19 68.93C114.31 68.84 114.34 68.67 114.26 68.55C113.45 67.33 112.78 66.28 112.07 65.26L112.06 65.23Z" fill="#FE5438"/>
<path d="M124.25 66.68C125.73 66.35 127.18 65.89 128.58 65.31C128.85 65.2 129 64.91 128.95 64.63C128.89 64.3 128.85 64.05 128.79 63.79C127.57 59.13 126.34 54.48 125.09 49.82C124.75 48.71 124.81 47.51 125.26 46.44C125.42 46.05 125.55 45.65 125.66 45.24C126.47 42.52 127.25 39.79 128.08 37.09C128.94 34.29 129.85 31.51 130.73 28.72C130.73 28.7 130.74 28.67 130.75 28.65C130.79 28.45 130.82 28.25 130.84 28.06C130.86 27.82 130.76 27.59 130.56 27.46C129.89 27.02 129.81 27.02 129.22 27.17C128.18 27.44 127.14 27.73 126.11 28.05C125.33 28.24 124.71 28.84 124.49 29.61C124.16 30.78 123.76 31.92 123.41 33.08C122.93 34.63 122.44 36.19 121.97 37.74C121.76 38.42 121.47 39.09 121.31 39.78C121.05 41.05 120.65 42.28 120.13 43.47C119.89 43.44 119.75 43.47 119.67 43.41C117.81 41.98 116.31 40.2 114.39 38.75C112.47 37.31 110.75 35.58 108.96 33.96C108.42 33.45 107.66 33.26 106.94 33.47C105.78 33.76 104.63 34.12 103.48 34.44C102.98 34.57 102.61 34.99 102.55 35.49C102.53 35.68 102.6 35.86 102.74 35.99C103.85 37.05 105.03 38.2 106.25 39.28C107.9 40.77 109.58 42.21 111.26 43.66C113.23 45.36 115.19 47.06 117.18 48.74C118.27 49.53 119.07 50.65 119.49 51.93C120.63 56.17 121.83 60.4 123.02 64.63C123.17 65.16 123.35 65.68 123.54 66.25C123.64 66.55 123.95 66.73 124.26 66.66L124.25 66.68Z" fill="#FE5438"/>
<path d="M173.69 62.75C173.86 62.75 174 62.62 174.02 62.46C174.39 58.8 174.34 30.03 174.01 26.59C173.99 26.43 173.86 26.3 173.7 26.29C172.44 26.22 171.16 26.18 169.89 26.08C168.76 25.99 168.49 26.16 168.49 27.33V36.15C168.49 40.53 168.52 44.92 168.52 49.29V49.32C168.5 49.62 168.47 49.92 168.43 50.22C168.39 50.51 168.02 50.6 167.84 50.38C167.57 50.05 167.36 49.78 167.18 49.5C164.83 45.74 162.52 41.95 160.19 38.16C158.05 34.7 155.87 31.27 153.79 27.77C153.31 26.78 152.29 26.18 151.2 26.25C150.3 26.27 149.41 26.23 148.51 26.14C147.09 26 146.89 26.11 146.89 27.49C146.87 30.19 146.86 32.89 146.86 35.59C146.87 40.04 146.92 44.48 146.92 48.92C146.92 50.9 146.86 52.88 146.86 54.87C146.86 57.14 146.88 59.41 146.88 61.67C146.85 61.95 146.94 62.22 147.13 62.42C147.32 62.62 147.59 62.73 147.87 62.72C149.38 62.85 150.89 62.79 152.39 62.54C152.55 62.51 152.67 62.37 152.67 62.21V37.84C152.88 37.99 153.07 38.15 153.25 38.34C153.27 38.36 153.29 38.38 153.3 38.41C156.57 43.76 159.85 49.11 163.11 54.47C164.48 56.72 165.85 58.98 167.21 61.24C167.56 62.09 168.36 62.68 169.27 62.77C170.73 62.79 172.19 62.77 173.69 62.77V62.75Z" fill="#FE5438"/>
<path d="M218.07 59.36C219.66 61.36 221.96 62.65 224.48 62.97C224.78 62.99 225.08 63.04 225.37 63.12C227.35 63.77 229.45 63.97 231.52 63.7C234.14 63.45 236.66 62.51 238.82 60.99C241.21 59.29 242.96 56.84 243.8 54.02C244.05 53.08 244.29 52.14 244.52 51.25C244.55 51.14 244.54 51.03 244.5 50.93C244.19 50.24 243.47 49.8 242.7 49.87C241.91 49.87 241.13 49.74 240.21 49.63C240 49.61 239.8 49.71 239.71 49.9C239.29 50.7 238.85 51.49 238.45 52.29C237.8 53.85 236.71 55.18 235.32 56.13C235.3 56.14 235.29 56.15 235.27 56.16C233.3 57.31 231.09 57.98 228.82 58.11C227.37 58.23 225.92 57.89 224.67 57.15C221.63 55.49 219.79 52.24 219.92 48.77C219.92 46.64 220.17 44.51 220.3 42.38C220.43 40.3 221.01 38.28 222.01 36.46C223.32 33.82 225.91 32.05 228.84 31.79C230.95 31.67 233.04 32.21 234.83 33.32C237.02 34.27 238.7 36.11 239.45 38.37C239.66 39.12 239.8 39.9 239.87 40.68C239.87 41.38 240.41 41.96 241.11 42.02C242.35 42.18 243.6 42.14 244.82 41.89C245.02 41.85 245.19 41.68 245.22 41.48C245.66 38.96 245.21 36.36 243.94 34.13C243.11 32.38 241.87 30.85 240.34 29.68C237.76 27.62 234.59 26.45 231.3 26.32C231.28 26.32 231.27 26.32 231.25 26.32C230.25 26.37 229.24 26.36 228.24 26.29C226.31 26.12 224.39 26.58 222.74 27.6C219.05 29.71 216.4 33.27 215.43 37.42C214.27 41.23 213.83 45.21 214.12 49.18C214.27 52.92 215.66 56.5 218.07 59.36Z" fill="#FE5438"/>
<path d="M263.78 57.09C264.9 57.68 265.95 58.25 267.03 58.73C268.36 59.23 269.19 60.56 269.07 61.98C269.05 64.02 269.05 66.05 268.99 68.09C268.93 70.67 268.81 73.25 268.73 75.82C268.58 76.99 269.22 78.11 270.3 78.59C271.43 79.12 272.48 79.82 273.58 80.45L274.9 81.18C275.1 80.82 275.21 80.72 275.17 80.61C275.17 78.34 275.19 76.06 275.19 73.77C275.19 70.96 275.14 68.15 275.25 65.33C275.32 63.61 275.57 63.46 277.36 63.48C279.64 63.57 281.87 62.74 283.54 61.19C283.56 61.17 283.58 61.15 283.6 61.13C285.17 59.42 286.54 57.53 287.68 55.5C287.83 55.24 287.91 54.94 287.92 54.63C288.08 53.45 288.1 52.25 288 51.06C287.69 48.27 286.08 45.79 283.65 44.38L280.5 42.65C276.67 40.55 272.84 38.44 269 36.36C267.73 35.67 267.5 35.76 266.77 37.08C265.39 39.59 264.03 42.13 262.65 44.65C258.66 51.84 254.69 59.04 250.73 66.24C250.52 66.67 250.33 67.12 250.16 67.57C250.33 67.83 250.37 67.97 250.47 68.02C251.83 68.71 253.19 69.39 254.56 70.07C254.6 70.09 254.65 70.11 254.7 70.12C254.78 70.14 254.85 70.16 254.93 70.17C255.22 70.23 255.51 70.09 255.64 69.83C257.83 65.51 260.27 61.32 262.94 57.28C263.12 57.01 263.48 56.91 263.77 57.07L263.78 57.09ZM266.74 49.4C267.64 47.73 268.65 46.11 269.66 44.41C269.9 44.43 270.14 44.48 270.36 44.56C273.77 46.44 277.18 48.32 280.57 50.23C281.4 50.77 281.77 51.8 281.46 52.74C281 54.18 280.07 55.42 278.82 56.28C278.06 56.82 277.05 56.87 276.24 56.4C273.23 54.78 270.26 53.11 267.3 51.41C266.92 51.25 266.64 50.93 266.53 50.54C266.42 50.15 266.49 49.73 266.73 49.4H266.74Z" fill="#FE5438"/>
<path d="M280.82 87.26C286.1 93.7 291.39 100.12 296.68 106.54C296.69 106.55 296.7 106.57 296.72 106.58C296.96 106.82 297.2 107.05 297.46 107.28C297.67 107.46 297.98 107.45 298.19 107.28C299.25 106.42 300.26 105.62 301.22 104.78C302.18 103.94 302.19 103.57 301.36 102.5C299.25 99.82 297.12 97.15 294.99 94.48C293.16 92.19 291.3 89.92 289.47 87.62C288.71 86.65 288.72 86.38 289.69 85.55C291.33 84.17 293 82.83 294.66 81.48C294.67 81.47 294.69 81.46 294.7 81.45C294.93 81.28 295.17 81.13 295.42 80.98C295.66 80.83 295.98 80.89 296.16 81.11L296.9 82.01C298.97 84.5 301.03 87 303.11 89.47C303.36 89.74 303.62 90 303.89 90.26C304.08 90.44 304.38 90.46 304.6 90.31C304.85 90.15 305.05 90.01 305.24 89.86C306.07 89.18 306.94 88.53 307.74 87.82C308.69 86.97 308.69 86.62 307.9 85.54L307.56 85.12C305.44 82.48 303.32 79.83 301.22 77.18C301.19 77.14 301.16 77.1 301.14 77.06C301.09 76.96 301.05 76.85 301.01 76.73C300.94 76.51 301.01 76.26 301.18 76.11C302.9 74.58 304.76 73.2 306.72 71.99C306.95 71.85 307.25 71.89 307.44 72.08C307.69 72.33 307.92 72.56 308.13 72.81C312.06 77.48 316 82.16 319.92 86.84L320.26 87.26C321.04 88.08 321.39 88.18 322.26 87.53C323.32 86.73 324.33 85.87 325.5 84.9C325.74 84.7 325.78 84.35 325.6 84.11C325.25 83.64 324.99 83.27 324.69 82.93C319.64 76.75 314.6 70.57 309.56 64.41C308.25 62.81 308.23 62.81 306.6 64.15L295.36 73.36C290.6 77.27 285.83 81.16 281.08 85.08C279.97 86 279.95 86.21 280.81 87.27L280.82 87.26Z" fill="#FE5438"/>
<path d="M322.72 113.68C318.28 113.3 313.86 112.67 309.42 112.12C308.17 112.06 306.93 111.88 305.71 111.59C304.61 111.29 303.47 111.15 302.33 111.19C300.6 111.15 300.33 111.52 300.75 113.24C300.89 113.82 301.07 114.41 301.16 114.99C301.44 116.63 301.7 116.86 303.3 117.01C305.26 117.19 307.22 117.41 309.18 117.61C310.08 117.7 310.98 117.76 311.87 117.88C312.43 117.92 312.89 118.34 312.98 118.9C313.36 120.59 313.83 122.27 314.22 123.95C314.42 124.79 314.63 125.63 314.9 126.45C315.38 127.9 315.89 129.34 316.44 130.75C316.93 131.71 316.55 132.88 315.6 133.38C315.3 133.58 315 133.79 314.72 134.01C312.81 135.47 310.9 136.94 309.01 138.41C308.76 138.59 308.57 138.82 308.43 139.1C308.27 139.41 308.21 139.77 308.26 140.13C308.62 141.27 309.04 142.39 309.51 143.49C309.59 143.79 309.81 144.04 310.11 144.15C310.41 144.26 310.73 144.21 310.99 144.03C311.93 143.49 312.82 142.87 313.67 142.19C315.01 141.09 316.24 139.9 317.57 138.78C318.91 137.66 320.3 136.6 321.67 135.51C324.31 133.4 326.95 131.29 329.57 129.17C330.03 128.8 330.45 128.36 330.92 127.99C332.05 127.09 333.21 126.24 334.32 125.32C336.18 123.78 338.02 122.22 339.85 120.65C340.29 120.3 340.46 119.71 340.27 119.18L339.85 117.72C339.54 116.35 338.84 115.8 337.72 115.5C337.4 115.42 336.86 115.33 336.53 115.3C334.43 115.09 332.32 114.9 330.23 114.65C327.73 114.34 325.24 113.94 322.71 113.72L322.72 113.68ZM330.6 121.31C329.97 121.96 329.31 122.57 328.6 123.13C326.81 124.55 324.99 125.93 323.17 127.33C322.98 127.5 322.75 127.7 322.7 127.53C321.34 124.88 320.46 122 320.11 119.04C320.1 118.93 320.19 118.84 320.29 118.85C321.59 118.97 322.89 119.07 324.18 119.21C325.97 119.41 327.76 119.64 329.55 119.86C329.73 119.88 329.92 119.87 330.09 119.91C330.95 120.08 331.2 120.7 330.6 121.31Z" fill="#FE5438"/>
<path d="M338.93 146C338.9 148.22 338.88 153.37 338.88 155.59C338.88 158.4 338.49 158.11 336.16 158.1C329.37 158.1 322.3 158.04 315.51 158.01C313.53 158.01 311.55 157.96 309.56 157.99C308.48 158 308.31 158.26 308.39 159.3C308.46 160.25 308.5 161.21 308.54 162.16C308.55 162.57 308.54 162.97 308.54 163.45C308.54 163.7 308.72 163.91 308.97 163.94C312.28 164.3 315.68 163.84 318.83 164.05C322.12 164.26 325.45 164.12 328.74 164.13L338.41 164.16C338.67 164.16 338.89 164.38 338.89 164.64L338.86 172.42C338.86 173.38 338.82 174.63 338.88 175.59C338.94 176.49 339.21 176.74 340.1 176.79C340.94 176.84 341.49 176.82 342.33 176.84C344.95 176.92 345.03 176.55 345.04 173.87L345.09 156.91C345.09 154.27 345.09 148.69 345.03 146.06C345 144.68 344.65 144.37 343.32 144.34C342.36 144.31 341.69 144.33 340.74 144.3C339.17 144.26 338.97 144.43 338.95 146.01L338.93 146Z" fill="#FE5438"/>
<path d="M342.82 189.66C340.13 189.45 337.43 189.24 334.74 189.04C330.12 188.71 325.51 188.4 320.89 188.06C319.03 187.92 317.18 187.73 315.32 187.59C313.11 187.43 310.91 187.29 308.7 187.16C308.46 187.12 308.2 187.18 308.01 187.34C307.81 187.49 307.69 187.72 307.67 187.97C307.43 189.42 307.35 190.89 307.42 192.35C307.43 192.57 307.61 192.75 307.83 192.77C319.46 193.75 330.91 194.75 342.39 195.72C342.41 195.72 342.43 195.72 342.45 195.72C342.73 195.72 343 195.69 343.28 195.65C343.47 195.62 343.62 195.46 343.65 195.27C343.71 194.83 343.77 194.41 343.82 194C343.92 193.11 343.98 192.19 344.13 191.33C344.36 189.98 344.25 189.77 342.83 189.66H342.82Z" fill="#FE5438"/>
<path d="M341.5 210.05C340.41 210.06 339.33 210.16 338.25 210.34C336.54 210.65 334.89 211.09 333.16 211.42C331.44 211.75 329.7 211.98 327.97 212.28C323.45 213.07 318.93 213.88 314.4 214.66C312.44 214.99 310.47 215.28 308.5 215.57C307.66 215.69 306.83 215.83 305.99 215.89C304.26 216.03 303.96 216.26 303.57 217.96L303.45 218.49H303.46C303.35 218.96 303.22 219.42 303.13 219.89C302.89 221.25 303.13 221.62 304.31 222.4C306.53 223.86 308.72 225.36 310.89 226.88C312.29 227.85 313.61 228.91 314.98 229.89C315.96 230.6 316.99 231.23 317.98 231.93C319.42 232.96 320.8 234.02 322.22 235.05C323.84 236.22 325.49 237.35 327.1 238.53C328.29 239.41 329.45 240.36 330.66 241.24C331.61 241.97 332.61 242.64 333.64 243.26C334.43 243.71 334.97 243.42 335.29 242.49C335.54 241.75 335.68 240.98 335.92 240.24C336.49 238.53 336.42 238.36 334.91 237.31C332.47 235.62 330.05 233.91 327.63 232.19C324.68 230.07 321.73 227.95 318.79 225.82C316.83 224.4 314.88 222.97 312.95 221.52C312.73 221.34 312.62 221.06 312.64 220.78C312.78 220.53 313.02 220.35 313.3 220.28C314.17 220.05 315.05 219.85 315.94 219.71C319.16 219.19 322.39 218.7 325.62 218.2C328.37 217.77 331.12 217.34 333.87 216.91C336.01 216.58 338.16 216.27 340.31 215.94C341.05 215.82 341.81 215.6 342 214.79C342.24 213.62 342.41 212.43 342.52 211.25C342.59 210.5 342.22 210.03 341.5 210.05Z" fill="#FE5438"/>
<path d="M324.66 261.2L313.73 251.62C309.1 247.56 304.47 243.49 299.83 239.45C298.74 238.5 298.53 238.52 297.63 239.54C292.14 245.8 286.67 252.07 281.2 258.34C281.19 258.35 281.17 258.37 281.16 258.38C280.96 258.65 280.77 258.93 280.6 259.22C280.46 259.45 280.51 259.76 280.72 259.94C281.74 260.85 282.69 261.71 283.68 262.52C284.67 263.33 285.04 263.28 285.95 262.28C288.25 259.76 290.54 257.22 292.82 254.68C294.78 252.5 296.72 250.29 298.68 248.11C299.51 247.2 299.78 247.17 300.75 247.99C302.38 249.38 303.97 250.82 305.58 252.23C305.59 252.24 305.61 252.26 305.62 252.27C305.82 252.48 306.01 252.69 306.2 252.9C306.39 253.12 306.38 253.44 306.2 253.65L305.43 254.52C303.31 256.97 301.19 259.41 299.08 261.87C298.85 262.16 298.64 262.46 298.43 262.77C298.28 262.99 298.32 263.29 298.5 263.48C298.7 263.7 298.87 263.88 299.05 264.04C299.86 264.75 300.64 265.5 301.48 266.17C302.48 266.97 302.82 266.91 303.76 265.95L304.12 265.55C306.38 263.03 308.64 260.5 310.91 257.99C310.94 257.95 310.98 257.92 311.02 257.89C311.12 257.82 311.22 257.76 311.32 257.71C311.53 257.6 311.78 257.63 311.96 257.77C313.75 259.22 315.42 260.82 316.93 262.57C317.11 262.77 317.12 263.07 316.96 263.29C316.76 263.58 316.57 263.84 316.35 264.09C312.38 268.73 308.41 273.38 304.44 278.02L304.08 278.43C303.4 279.34 303.36 279.7 304.14 280.44C305.1 281.36 306.12 282.21 307.26 283.2C307.49 283.4 307.84 283.39 308.06 283.17C308.47 282.75 308.79 282.43 309.07 282.08C314.34 276.09 319.61 270.1 324.87 264.12C326.23 262.57 326.23 262.55 324.65 261.16L324.66 261.2Z" fill="#FE5438"/>
</g>
<defs>
<clipPath id="clip0_669_1873">
<rect width="368.93" height="338.82" fill="white"/>
</clipPath>
</defs>
</svg>
