<svg width="130" height="103" viewBox="0 0 130 103" fill="none" xmlns="http://www.w3.org/2000/svg">
<g clip-path="url(#clip0_203_387)">
<path d="M35.17 86.11C35.5 86.68 35.83 87.18 36.08 87.7C36.28 88.15 36.33 88.65 36.22 89.13C36.12 89.68 35.92 90.21 35.64 90.69C35.39 91.18 34.93 91.53 34.39 91.64C33.98 91.71 33.56 91.75 33.14 91.76C32.34 91.77 31.53 91.76 30.73 91.75C30.19 91.75 29.65 91.71 29.12 91.7C28.81 91.7 28.49 91.72 28.18 91.73C27.91 91.74 27.83 91.69 27.82 91.42C27.82 91.19 27.83 90.97 27.83 90.74C27.83 88.45 27.83 86.16 27.83 83.87C27.83 83.21 27.83 82.55 27.83 81.89C27.83 81.78 27.83 81.68 27.85 81.58C27.87 81.42 27.95 81.27 28.07 81.17C28.19 81.07 28.36 81.03 28.51 81.05C29.7 81.05 30.89 81.04 32.08 81.04H33.18C34 81.06 34.76 81.47 35.23 82.14C35.43 82.44 35.6 82.77 35.73 83.11C35.77 83.23 35.79 83.35 35.78 83.47C35.8 84.36 35.61 85.25 35.21 86.05C35.2 86.07 35.19 86.09 35.19 86.12L35.17 86.11ZM31.67 82.63C31.67 82.63 30.59 82.63 30.05 82.64C29.72 82.64 29.53 82.81 29.53 83.1C29.53 83.6 29.53 84.11 29.53 84.61C29.51 84.74 29.55 84.88 29.64 84.98C29.73 85.08 29.86 85.13 30 85.12C30.16 85.13 30.31 85.14 30.47 85.13C31.48 85.17 32.5 85.15 33.5 85.07C33.84 85.03 34.12 84.79 34.21 84.46C34.32 84.07 34.29 83.66 34.12 83.29C34.03 82.84 33.6 82.53 33.14 82.61H31.67V82.63ZM33.16 90.25C33.56 90.29 33.94 90.1 34.16 89.77C34.59 89.17 34.65 88.38 34.32 87.73C34.14 87.32 33.73 87.06 33.28 87.06C32.51 87.06 31.74 87.04 30.97 87.04C30.55 87.04 30.14 87.06 29.68 87.08C29.58 88.12 29.59 89.16 29.72 90.2C30.92 90.23 32.04 90.27 33.16 90.26V90.25Z" fill="#FE5438"/>
<path d="M49.04 91.6201C48.46 91.7401 47.86 91.7901 47.27 91.7701C47.26 91.7701 47.24 91.7701 47.23 91.7501C46.97 91.3801 46.7 91.0101 46.46 90.6301C45.84 89.6601 45.24 88.6901 44.62 87.7201C44.48 87.5001 44.33 87.2901 44.17 87.0901C44.07 87.0001 43.97 86.9101 43.85 86.8401C43.83 86.8301 43.81 86.8401 43.79 86.8401C43.39 87.2401 43 87.6201 42.63 88.0101C42.46 88.2701 42.39 88.5901 42.44 88.9001C42.44 89.5401 42.44 90.1901 42.44 90.8301C42.42 91.0801 42.4 91.3301 42.35 91.5701C42.35 91.5901 42.33 91.6101 42.31 91.6101C41.9 91.6701 41.48 91.6801 41.06 91.6501C40.85 91.6501 40.76 91.5101 40.77 91.3001C40.77 90.7601 40.77 90.2201 40.77 89.6901C40.77 87.7601 40.77 85.8401 40.77 83.9101C40.77 83.0801 40.77 82.2501 40.77 81.4101C40.77 81.0701 40.85 81.0301 41.19 81.0601C41.59 81.0901 42 81.1001 42.46 81.1301C42.48 81.1301 42.5 81.1501 42.5 81.1701C42.51 81.3301 42.54 81.4901 42.54 81.6401C42.52 82.6101 42.49 83.5801 42.46 84.5501C42.46 84.8601 42.46 85.1701 42.46 85.5201C42.46 85.5501 42.49 85.5701 42.52 85.5601C42.76 85.4801 42.97 85.3401 43.14 85.1501C43.81 84.5201 44.46 83.8701 45.13 83.2401C45.84 82.5701 46.55 81.9101 47.27 81.2601C47.47 81.0901 47.74 81.0001 48 81.0301C48.33 81.0501 48.66 81.0601 48.99 81.1001C48.99 81.1001 48.99 81.1001 49 81.1001C49.11 81.1401 49.21 81.1801 49.31 81.2401C49.33 81.2601 49.34 81.2901 49.31 81.3101C48.93 81.7201 48.59 82.0901 48.24 82.4601C48.02 82.6801 47.78 82.8901 47.56 83.1101C46.9 83.7501 46.24 84.4001 45.59 85.0401C45.32 85.3101 45.31 85.4001 45.48 85.7201C46.51 87.5601 47.65 89.3201 48.79 91.0901C48.88 91.2301 48.96 91.3701 49.06 91.5301C49.08 91.5601 49.06 91.5901 49.03 91.6001L49.04 91.6201Z" fill="#FE5438"/>
<path d="M58 87.0199C57.98 85.9599 58.85 85.1299 59.89 85.1299C60.93 85.1299 61.78 85.9599 61.78 86.9999C61.78 88.0399 60.95 88.8899 59.89 88.8899C58.83 88.8899 58 88.0799 58 87.0199Z" fill="#FE5438"/>
<path d="M76.72 81.07C76.8 81.07 76.87 81.14 76.88 81.23C76.88 81.4 76.9 81.54 76.9 81.69C76.89 83.28 76.86 84.88 76.85 86.47C76.85 87.15 76.89 87.84 76.87 88.52C76.89 89.47 76.43 90.35 75.66 90.89C75.23 91.18 74.77 91.43 74.29 91.63C73.86 91.82 73.38 91.89 72.91 91.84C72.55 91.81 72.18 91.8 71.82 91.73C71.58 91.69 71.35 91.61 71.13 91.5C70.2 91.11 69.5 90.31 69.24 89.33C69.08 88.65 69.01 87.95 69.03 87.25C69.05 85.29 69.03 83.32 69.03 81.36C69.03 81.32 69.03 81.27 69.04 81.23C69.04 81.18 69.08 81.13 69.13 81.11C69.61 80.9 70.09 81.07 70.6 81.08C70.68 81.08 70.75 81.14 70.76 81.22C70.78 81.37 70.79 81.52 70.79 81.67C70.77 82.61 70.72 83.53 70.71 84.46C70.69 85.53 70.68 86.6 70.71 87.67C70.71 88.24 70.9 88.79 71.25 89.23C71.43 89.47 71.67 89.65 71.95 89.75C72.57 90.02 73.27 90.02 73.88 89.74C74.63 89.45 75.12 88.71 75.11 87.9C75.1 86.55 75.11 85.2 75.11 83.85C75.11 82.99 75.11 82.14 75.11 81.26C75.11 81.19 75.15 81.13 75.21 81.11C75.73 80.92 76.21 81.08 76.71 81.09L76.72 81.07Z" fill="#FE5438"/>
<path d="M82.19 88.27C82.19 88.27 82.27 88.27 82.29 88.3C82.38 88.42 82.46 88.55 82.53 88.69C82.77 89.32 83.28 89.8 83.93 89.98C84.58 90.25 85.31 90.28 85.98 90.05C86.78 89.78 87.26 88.98 87.14 88.14C87 87.46 86.43 86.95 85.74 86.88C85.32 86.85 84.9 86.82 84.49 86.82C83.52 86.82 82.59 86.47 81.86 85.82C81.16 85.21 80.84 84.27 81.03 83.36C81.15 82.67 81.54 82.06 82.11 81.68C82.76 81.2 83.53 80.92 84.33 80.87C85.1 80.8 85.87 80.91 86.59 81.2C86.86 81.32 87.11 81.47 87.34 81.66C88 82.14 88.43 82.87 88.53 83.68C88.55 83.75 88.54 83.84 88.51 83.9C88.47 83.97 88.41 84.02 88.33 84.04C88.17 84.1 88 84.16 87.83 84.2C87.18 84.34 87.08 84.3 86.89 83.68C86.75 83.23 86.42 82.86 86 82.66C85.52 82.4 84.96 82.32 84.43 82.44C84.07 82.48 83.72 82.58 83.39 82.75C83.11 82.89 82.91 83.15 82.84 83.46C82.71 83.81 82.74 84.21 82.93 84.54C83.12 84.87 83.44 85.09 83.82 85.15C84.26 85.26 84.72 85.29 85.17 85.26C86.12 85.2 87.06 85.49 87.81 86.07C88.62 86.63 89.07 87.57 89 88.55C88.99 89.58 88.46 90.54 87.59 91.09C86.59 91.75 85.37 91.97 84.2 91.72C83.56 91.62 82.96 91.38 82.42 91.03C81.82 90.65 81.34 90.1 81.06 89.45C80.96 89.23 80.95 88.98 81.03 88.75C81.03 88.72 81.06 88.71 81.08 88.7L82.2 88.26L82.19 88.27Z" fill="#FE5438"/>
<path d="M96.67 81.0601H97.11C97.27 81.0501 97.43 81.1401 97.49 81.3001C97.78 81.9401 98.07 82.5801 98.35 83.2301C98.52 83.6201 98.66 84.0101 98.82 84.4001C98.89 84.5601 98.98 84.7101 99.04 84.8701C99.42 85.7801 99.8 86.6901 100.18 87.6001C100.38 88.0701 100.56 88.5501 100.77 89.0101C100.98 89.4801 101.21 89.9201 101.41 90.3801C101.53 90.6701 101.63 90.9701 101.71 91.2801C101.74 91.3701 101.73 91.4601 101.67 91.5401C101.61 91.6201 101.53 91.6601 101.44 91.6601C101.09 91.7001 100.74 91.7301 100.4 91.7401C100.3 91.7301 100.2 91.6801 100.13 91.6101C100.06 91.5501 100.01 91.4801 99.98 91.3901C99.72 90.7401 99.46 90.0901 99.21 89.4301C99.17 89.3301 99.14 89.2301 99.1 89.1301C99.04 88.8201 98.74 88.6201 98.43 88.6801C97.99 88.7201 97.54 88.7501 97.1 88.7601C96.85 88.7601 96.6 88.7601 96.34 88.7501C95.84 88.7201 95.33 88.7201 94.82 88.6901C94.66 88.6701 94.5 88.7601 94.45 88.9201C94.34 89.1601 94.25 89.4101 94.16 89.6501C93.95 90.1801 93.72 90.7201 93.52 91.2501C93.35 91.6901 93.27 91.7401 92.78 91.6901C92.61 91.6701 92.43 91.6701 92.26 91.6601C91.74 91.6401 91.66 91.5301 91.81 91.0501C91.89 90.7301 92.02 90.4201 92.2 90.1301C92.38 89.8101 92.53 89.4801 92.65 89.1301C93.16 87.9301 93.7 86.7401 94.16 85.5201C94.42 84.8301 94.74 84.1601 95.03 83.4901C95.27 82.9201 95.49 82.3501 95.72 81.7701C95.76 81.6801 95.82 81.5401 95.87 81.4501C96.04 81.1601 96.26 81.0101 96.66 81.0301L96.67 81.0601ZM98.05 86.6701C98.1 86.6701 98.06 86.5901 98.03 86.5201C97.79 85.9001 97.55 85.2701 97.29 84.6601C97.19 84.4201 97.07 84.1801 96.94 83.9501C96.82 83.7301 96.62 83.7501 96.5 83.9801C96.48 84.0301 96.46 84.0801 96.44 84.1301C96.23 84.6201 96.02 85.1001 95.82 85.5801C95.68 85.9301 95.54 86.2901 95.4 86.6401C95.39 86.6701 95.4 86.7001 95.44 86.7101C96.3 86.8501 97.18 86.8401 98.03 86.6701H98.05Z" fill="#FE5438"/>
<path d="M53.51 56.7099C53.05 56.7099 52.6 56.7099 52.15 56.7099C51.87 56.6799 51.62 56.4999 51.51 56.2399C51.09 55.5399 50.67 54.8499 50.25 54.1499C49.24 52.4999 48.23 50.8499 47.22 49.1999C47.22 49.1999 47.22 49.1899 47.2 49.1799C47.15 49.1199 47.09 49.0699 47.02 49.0299V56.5399C47.02 56.5899 46.98 56.6299 46.93 56.6399C46.47 56.7199 46 56.7399 45.54 56.6999C45.45 56.6999 45.37 56.6699 45.31 56.6099C45.25 56.5499 45.22 56.4599 45.23 56.3799C45.23 55.6799 45.23 54.9799 45.23 54.2799C45.23 53.6699 45.25 53.0599 45.25 52.4499C45.25 51.0799 45.24 49.7099 45.23 48.3399C45.23 47.5099 45.23 46.6799 45.23 45.8399C45.23 45.4099 45.29 45.3799 45.73 45.4199C46.01 45.4499 46.28 45.4599 46.56 45.4499C46.9 45.4299 47.21 45.6099 47.36 45.9199C48 46.9999 48.67 48.0599 49.33 49.1199C50.05 50.2899 50.76 51.4599 51.49 52.6199C51.55 52.7099 51.61 52.7899 51.69 52.8899C51.75 52.9599 51.86 52.9299 51.87 52.8399C51.88 52.7499 51.89 52.6599 51.9 52.5599C51.9 51.1999 51.9 49.8499 51.9 48.4999V45.7799C51.9 45.4199 51.98 45.3699 52.33 45.3999C52.72 45.4299 53.12 45.4399 53.5 45.4699C53.55 45.4699 53.59 45.5099 53.6 45.5599C53.7 46.6199 53.72 55.4899 53.6 56.6199C53.6 56.6699 53.55 56.7099 53.5 56.7099H53.51Z" fill="#FE5438"/>
<path d="M60.58 56.7101C60.48 56.7101 60.41 56.6301 60.4 56.5301C60.4 56.3401 60.38 56.1701 60.38 56.0001C60.38 54.6501 60.38 53.2901 60.4 51.9401C60.38 51.5301 60.24 51.1301 59.98 50.8001C59.53 50.1401 59.09 49.4701 58.65 48.8001C58.27 48.2301 57.9 47.6601 57.53 47.0801C57.26 46.6501 57 46.2101 56.76 45.8101C56.73 45.7601 56.72 45.7001 56.75 45.6401C56.81 45.5001 56.95 45.4001 57.11 45.4101C57.48 45.4101 57.85 45.4101 58.22 45.4101C58.45 45.4101 58.66 45.5301 58.78 45.7301C59.18 46.3601 59.54 47.0201 59.99 47.6101C60.44 48.2001 60.74 48.8501 61.17 49.4301C61.19 49.4601 61.24 49.4601 61.3 49.4901C61.55 49.1801 61.77 48.8501 61.96 48.4901C62.07 48.3001 62.21 48.1201 62.33 47.9401C62.6 47.5201 62.87 47.1001 63.15 46.6801C63.35 46.3701 63.57 46.0601 63.76 45.7401C63.89 45.5301 64.12 45.4101 64.37 45.4101C64.7 45.4101 65.04 45.4101 65.37 45.4101C65.56 45.4101 65.58 45.4201 65.75 45.6101C65.8 45.6601 65.81 45.7401 65.78 45.8101C65.76 45.8701 65.73 45.9201 65.7 45.9801C65.7 45.9801 65.7 45.9901 65.69 46.0001C65.2 46.7601 64.69 47.5001 64.2 48.2601C63.73 48.9901 63.27 49.7401 62.8 50.4801C62.73 50.5901 62.66 50.7001 62.58 50.8001C62.36 51.0801 62.24 51.4301 62.25 51.7901C62.23 53.2701 62.21 54.7601 62.18 56.2401C62.18 56.3201 62.17 56.4001 62.16 56.5001C62.16 56.5901 62.08 56.6601 61.99 56.6701C61.53 56.7201 61.06 56.7401 60.59 56.7101H60.58Z" fill="#FE5438"/>
<path d="M75.91 52.24C75.93 52.18 75.99 52.14 76.06 52.14C76.35 52.14 76.59 52.16 76.83 52.14C77.06 52.1 77.3 52.2 77.41 52.41C77.43 52.44 77.43 52.47 77.43 52.51C77.39 52.79 77.35 53.09 77.3 53.38C77.13 54.27 76.68 55.08 76 55.67C75.39 56.21 74.65 56.57 73.85 56.74C73.23 56.89 72.57 56.9 71.95 56.76C71.86 56.74 71.77 56.74 71.67 56.74C70.88 56.72 70.14 56.4 69.59 55.84C68.76 55.04 68.22 53.99 68.05 52.84C67.83 51.63 67.84 50.4 68.07 49.19C68.23 47.89 68.93 46.71 69.99 45.94C70.46 45.57 71.04 45.37 71.63 45.36C71.94 45.35 72.25 45.32 72.55 45.27C72.55 45.27 72.55 45.27 72.56 45.27C73.57 45.2 74.58 45.46 75.44 46.01C75.95 46.32 76.38 46.75 76.69 47.26C77.15 47.9 77.37 48.68 77.32 49.47C77.32 49.53 77.27 49.59 77.21 49.61C76.84 49.72 76.46 49.78 76.08 49.77C75.86 49.77 75.68 49.62 75.66 49.4C75.61 49.16 75.54 48.93 75.46 48.71C75.16 48.04 74.58 47.53 73.88 47.31C73.29 47.03 72.63 46.93 71.99 47.03C71.1 47.2 70.37 47.83 70.05 48.68C69.8 49.27 69.69 49.91 69.71 50.55C69.74 51.21 69.73 51.87 69.8 52.52C69.87 53.59 70.54 54.53 71.53 54.94C71.94 55.13 72.39 55.19 72.83 55.1C73.52 54.99 74.18 54.71 74.75 54.29H74.76C75.16 53.94 75.45 53.5 75.6 53C75.7 52.74 75.81 52.49 75.91 52.23V52.24Z" fill="#FE5438"/>
<path d="M64.71 102.83C52.35 102.83 40 102.27 27.73 101.16C12.69 99.5801 0 85.2801 0 69.9201V32.9101C0 17.5501 12.69 3.25006 27.72 1.67006C52.27 -0.559941 77.16 -0.559941 101.69 1.67006C116.73 3.24006 129.42 17.5501 129.42 32.9101V69.9201C129.42 85.2801 116.73 99.5801 101.7 101.15H101.69C89.42 102.27 77.07 102.83 64.71 102.83ZM64.72 2.00006C52.42 2.00006 40.13 2.55006 27.92 3.67006C13.87 5.13006 2 18.5301 2 32.9101V69.9201C2 84.3001 13.87 97.7001 27.93 99.1701C52.33 101.39 77.09 101.39 101.51 99.1701C115.56 97.7001 127.43 84.3101 127.43 69.9201V32.9101C127.43 18.5301 115.56 5.14006 101.5 3.66006C89.3 2.55006 77.01 2.00006 64.72 2.00006Z" fill="#FE5438"/>
<path d="M15.87 67.9899C16.27 67.4199 16.59 66.8799 16.98 66.3999C17.32 66.0099 17.77 65.7299 18.28 65.6199C18.85 65.4699 19.45 65.4199 20.03 65.4699C20.61 65.4699 21.16 65.7599 21.5 66.2299C21.75 66.5899 21.98 66.9699 22.18 67.3599C22.56 68.1199 22.91 68.8899 23.26 69.6699C23.5 70.1899 23.71 70.7099 23.94 71.2299C24.08 71.5299 24.24 71.8199 24.4 72.1099C24.54 72.3599 24.52 72.4599 24.27 72.5999C24.06 72.7099 23.83 72.7899 23.61 72.8999C21.43 73.9399 19.25 74.9699 17.07 76.0199C16.44 76.3199 15.81 76.6299 15.18 76.9299C15.08 76.9799 14.98 77.0199 14.87 77.0499C14.71 77.1099 14.54 77.0999 14.38 77.0199C14.23 76.9499 14.11 76.8099 14.06 76.6499C13.51 75.5199 12.97 74.3799 12.43 73.2499L11.93 72.1999C11.58 71.4099 11.62 70.4999 12.05 69.7499C12.25 69.4199 12.48 69.1099 12.75 68.8399C12.84 68.7499 12.95 68.6699 13.07 68.6299C13.91 68.1999 14.85 67.9899 15.79 68.0099C15.82 68.0099 15.84 68.0099 15.87 68.0099V67.9899ZM14.13 72.8999C14.13 72.8999 14.63 73.9299 14.88 74.4399C15.04 74.7599 15.28 74.8599 15.56 74.7299C16.04 74.5099 16.52 74.2799 17 74.0499C17.14 74.0099 17.25 73.9099 17.3 73.7799C17.35 73.6499 17.34 73.4999 17.27 73.3699C17.21 73.2099 17.15 73.0599 17.07 72.9099C16.65 71.9299 16.17 70.9699 15.64 70.0499C15.45 69.7399 15.09 69.5799 14.74 69.6499C14.32 69.7199 13.94 69.9399 13.67 70.2599C13.28 70.5499 13.19 71.0999 13.46 71.4999L14.13 72.8999ZM20.72 68.0299C20.58 67.6299 20.22 67.3499 19.81 67.2999C19.05 67.1699 18.27 67.4599 17.79 68.0799C17.49 68.4399 17.42 68.9399 17.62 69.3699C17.96 70.0999 18.3 70.8499 18.65 71.5799C18.84 71.9799 19.05 72.3599 19.27 72.7999C20.3 72.4299 21.29 71.9399 22.22 71.3499C21.7 70.1799 21.24 69.0999 20.73 68.0299H20.72Z" fill="#FE5438"/>
<path d="M19.74 53.5C19.76 53.89 19.75 54.28 19.8 54.66C19.86 55.02 19.67 55.37 19.34 55.53C18.66 55.94 17.97 56.33 17.29 56.75C16.75 57.07 16.22 57.41 15.69 57.75C15.3 57.96 15.1 58.39 15.19 58.82C15.25 59.18 15.27 59.55 15.31 59.94C15.31 60.04 15.4 60.12 15.5 60.12C16.99 60.14 18.49 60.08 19.97 59.92C20.06 59.92 20.14 59.96 20.18 60.05C20.18 60.07 20.2 60.09 20.2 60.12C20.2 60.14 20.2 60.15 20.2 60.17C20.25 60.64 20.3 61.11 20.35 61.57C20.35 61.6 20.32 61.64 20.28 61.72C20.14 61.75 19.99 61.78 19.84 61.79C17.31 61.96 14.78 62.13 12.26 62.3C11.38 62.36 10.49 62.43 9.61 62.49C9.14 62.52 9.08 62.47 9.05 62.03C8.95 60.69 8.86 59.34 8.76 58L8.68 56.89C8.64 56.02 9.01 55.19 9.69 54.65C9.98 54.43 10.3 54.23 10.63 54.08C10.71 54.03 10.8 54 10.89 54C11.61 53.96 12.32 54 13.03 54.12C13.03 54.12 13.05 54.12 13.06 54.12C13.74 54.3 14.32 54.74 14.68 55.34C14.97 55.81 15.05 55.85 15.51 55.58C16.26 55.14 16.98 54.66 17.71 54.19C18.3 53.81 18.9 53.43 19.49 53.06C19.51 53.03 19.55 53.04 19.68 53.03L19.71 53.49L19.74 53.5ZM12.82 60.45C12.94 60.45 13.07 60.41 13.15 60.31C13.23 60.22 13.27 60.09 13.25 59.97C13.2 58.92 13.13 57.87 13.05 56.82C13.04 56.53 12.86 56.28 12.59 56.17C12.16 55.99 11.68 55.96 11.23 56.08C10.93 56.16 10.73 56.42 10.73 56.73C10.8 57.93 10.88 59.12 10.96 60.32C10.98 60.39 11 60.46 11.04 60.53C11.65 60.51 12.24 60.5 12.82 60.46V60.45Z" fill="#FE5438"/>
<path d="M9.83998 42.6801C10.46 42.0301 11.21 41.5301 12.04 41.2101C12.65 40.9501 13.31 40.8701 13.96 40.9601C14.41 41.0101 14.86 40.9901 15.32 41.0301C16.39 41.1401 17.43 41.4901 18.35 42.0501C18.77 42.3401 19.13 42.7101 19.39 43.1501C19.68 43.6301 19.91 44.1501 20.07 44.7001C20.2 45.0501 20.24 45.4201 20.19 45.7901C20.13 46.4701 19.98 47.1301 19.74 47.7701C19.63 48.0201 19.48 48.2501 19.3 48.4601C19.05 48.7701 18.78 49.0701 18.49 49.3501C18.09 49.7301 17.6 50.0001 17.07 50.1501C14.89 50.7601 12.55 50.4801 10.57 49.3801C9.95998 48.9801 9.44998 48.4301 9.07998 47.8001C8.88998 47.4601 8.72998 47.1101 8.60998 46.7401C8.54998 46.5501 8.52998 46.3501 8.54998 46.1501C8.55998 45.9401 8.58998 45.7301 8.62998 45.5201C8.64998 44.4601 9.07998 43.4401 9.82998 42.6901L9.83998 42.6801ZM14.67 42.7201C14.16 42.7501 13.66 42.8101 13.15 42.8101C12.79 42.8701 12.44 42.9901 12.13 43.1701C11.92 43.2401 11.73 43.3501 11.57 43.4801C11.1 43.9801 10.78 44.5801 10.63 45.2501C10.63 45.2701 10.63 45.2901 10.63 45.3101C10.54 46.3001 10.98 47.2701 11.79 47.8501C12.57 48.4201 13.54 48.6601 14.49 48.5301C15.2 48.4601 15.89 48.2801 16.55 47.9901C17.5 47.6001 18.12 46.6901 18.12 45.6701C18.18 45.2101 18.05 44.7401 17.77 44.3801C17.62 44.2001 17.48 44.0001 17.37 43.7901C17.21 43.5201 16.96 43.3101 16.66 43.2101C16.02 42.9901 15.35 42.8301 14.68 42.7401L14.67 42.7201Z" fill="#FE5438"/>
<path d="M15.26 26.9899C16.09 26.6499 16.98 26.4999 17.87 26.5499C18.53 26.5699 19.17 26.7599 19.73 27.1099C20.12 27.3399 20.54 27.4999 20.94 27.7299C21.87 28.2699 22.68 29.0099 23.29 29.8999C23.56 30.3399 23.73 30.8299 23.79 31.3299C23.86 31.8899 23.85 32.4599 23.78 33.0199C23.76 33.3899 23.64 33.7499 23.44 34.0599C23.11 34.6499 22.7 35.1999 22.22 35.6799C22.01 35.8599 21.79 36.0099 21.54 36.1299C21.19 36.3199 20.82 36.4699 20.44 36.6099C19.92 36.7899 19.36 36.8399 18.81 36.7499C16.57 36.4099 14.55 35.1999 13.19 33.3899C12.79 32.7699 12.55 32.0699 12.48 31.3399C12.44 30.9599 12.45 30.5699 12.48 30.1799C12.51 29.9799 12.57 29.7899 12.67 29.6199C12.77 29.4299 12.88 29.2499 13 29.0799C13.45 28.1199 14.26 27.3699 15.25 26.9899H15.26ZM19.65 28.9999C19.17 28.8199 18.69 28.6699 18.23 28.4599C17.88 28.3699 17.51 28.3399 17.15 28.3699C16.93 28.3499 16.72 28.3699 16.51 28.4299C15.88 28.6899 15.34 29.1099 14.93 29.6599C14.92 29.6699 14.91 29.6899 14.9 29.7099C14.41 30.5799 14.42 31.6399 14.92 32.4999C15.4 33.3399 16.18 33.9599 17.11 34.2299C17.79 34.4499 18.49 34.5699 19.21 34.5799C20.23 34.6199 21.17 34.0299 21.59 33.0999C21.83 32.6999 21.91 32.2299 21.8 31.7699C21.74 31.5399 21.7 31.2999 21.68 31.0699C21.65 30.7599 21.5 30.4699 21.28 30.2499C20.78 29.7799 20.24 29.3699 19.66 29.0099L19.65 28.9999Z" fill="#FE5438"/>
<path d="M33.77 22.8299C33.37 23.3099 32.92 23.7499 32.41 24.1199C32.4 24.1199 32.38 24.1299 32.37 24.1199C31.91 23.9899 31.45 23.8599 30.99 23.7099C29.84 23.3299 28.7 22.9299 27.56 22.5399C27.3 22.4499 27.04 22.3799 26.77 22.3199C26.63 22.3099 26.48 22.3199 26.34 22.3199C26.32 22.3199 26.3 22.3399 26.3 22.3599C26.24 22.9499 26.17 23.5199 26.13 24.0899C26.16 24.4199 26.32 24.7299 26.57 24.9499C26.99 25.4799 27.43 25.9999 27.84 26.5399C27.99 26.7599 28.13 26.9799 28.26 27.2099C28.27 27.2299 28.26 27.2499 28.26 27.2699C27.96 27.5899 27.62 27.8799 27.26 28.1299C27.09 28.2699 26.92 28.2099 26.78 28.0399C26.42 27.5999 26.06 27.1599 25.7 26.7199C24.42 25.1399 23.15 23.5499 21.87 21.9699C21.32 21.2899 20.77 20.5999 20.22 19.9099C20 19.6299 20.03 19.5499 20.34 19.3499C20.69 19.1099 21.03 18.8499 21.42 18.5599C21.44 18.5499 21.47 18.5499 21.48 18.5599C21.6 18.6799 21.72 18.7899 21.82 18.9199C22.44 19.7299 23.06 20.5499 23.69 21.3599C23.89 21.6199 24.1 21.8699 24.33 22.1599C24.35 22.1899 24.39 22.1799 24.41 22.1599C24.55 21.9399 24.63 21.6799 24.65 21.4199C24.79 20.4599 24.89 19.4899 25.02 18.5299C25.16 17.5099 25.31 16.4999 25.46 15.4899C25.51 15.2099 25.67 14.9699 25.91 14.8199C26.2 14.6199 26.47 14.4099 26.77 14.2199C26.77 14.2199 26.77 14.2199 26.78 14.2199C26.89 14.1799 27.01 14.1499 27.13 14.1399C27.16 14.1399 27.19 14.1599 27.18 14.1899C27.14 14.7799 27.11 15.3099 27.06 15.8399C27.03 16.1699 26.97 16.4899 26.93 16.8199C26.81 17.7899 26.7 18.7499 26.59 19.7199C26.54 20.1199 26.59 20.1999 26.95 20.3399C29.01 21.1699 31.12 21.8599 33.23 22.5499C33.39 22.5999 33.56 22.6599 33.75 22.7299C33.78 22.7399 33.79 22.7799 33.77 22.8099V22.8299Z" fill="#FE5438"/>
<path d="M43.78 19.61C43.78 19.61 43.77 19.7 43.73 19.72C43.52 19.8 43.37 19.86 43.22 19.9C40.85 20.63 38.49 21.35 36.12 22.08C36.03 22.11 35.94 22.14 35.85 22.16C35.77 22.19 35.68 22.18 35.61 22.14C35.54 22.1 35.48 22.03 35.46 21.95C35.25 21.28 35.04 20.62 34.84 19.95C34.68 19.42 34.53 18.88 34.37 18.35C33.95 16.99 33.53 15.63 33.11 14.26C32.86 13.44 32.61 12.63 32.37 11.81C32.27 11.45 32.32 11.38 32.66 11.31C32.95 11.25 33.23 11.17 33.52 11.1L33.96 10.99C33.96 10.99 34.05 11 34.06 11.04C34.6 12.49 34.85 13.99 35.33 15.41C35.8 16.82 36.14 18.27 36.68 19.71C36.7 19.75 36.74 19.77 36.78 19.76C36.99 19.71 37.16 19.67 37.33 19.62C39.12 19.1 40.91 18.58 42.7 18.05C43.18 17.91 43.28 17.96 43.43 18.44C43.55 18.8 43.66 19.17 43.79 19.6L43.78 19.61Z" fill="#FE5438"/>
<path d="M48.19 19.9399C47.73 19.9999 47.26 20.0199 46.79 19.9999C46.69 19.9999 46.61 19.9199 46.61 19.8199C46.6 19.6299 46.59 19.4599 46.58 19.2899C46.56 17.9399 46.54 16.5799 46.54 15.2299C46.52 14.8199 46.37 14.4199 46.11 14.0999C45.65 13.4399 45.2 12.7799 44.75 12.1099C44.37 11.5399 43.98 10.9799 43.61 10.4099C43.33 9.98988 43.07 9.54988 42.83 9.14988C42.8 9.09988 42.79 9.03988 42.81 8.97988C42.87 8.83988 43.01 8.73988 43.17 8.73988C43.54 8.73988 43.91 8.71988 44.28 8.72988C44.51 8.72988 44.72 8.83988 44.84 9.03988C45.24 9.65988 45.62 10.3199 46.08 10.8999C46.54 11.4799 46.84 12.1299 47.28 12.7099C47.3 12.7299 47.35 12.7399 47.41 12.7599C47.66 12.4499 47.88 12.1099 48.06 11.7599C48.16 11.5699 48.3 11.3899 48.42 11.1999C48.68 10.7799 48.95 10.3499 49.22 9.92988C49.42 9.60988 49.63 9.29988 49.82 8.97988C49.95 8.76988 50.18 8.63988 50.42 8.64988C50.75 8.63988 51.09 8.62988 51.42 8.63988C51.61 8.63988 51.63 8.63988 51.8 8.82988C51.85 8.87988 51.86 8.95988 51.84 9.02988C51.82 9.08988 51.79 9.13988 51.76 9.19988C51.76 9.19988 51.76 9.20988 51.75 9.21988C51.27 9.97988 50.77 10.7399 50.29 11.4999C49.83 12.2399 49.38 12.9899 48.92 13.7299C48.86 13.8399 48.78 13.9499 48.71 14.0599C48.49 14.3399 48.38 14.6899 48.39 15.0499C48.39 16.5299 48.39 18.0199 48.38 19.4999C48.38 19.5799 48.38 19.6599 48.36 19.7599C48.36 19.8499 48.28 19.9199 48.2 19.9299L48.19 19.9399Z" fill="#FE5438"/>
<path d="M62.71 20C62.25 20 61.8 20 61.35 20C61.07 19.97 60.82 19.79 60.71 19.53C60.29 18.83 59.87 18.14 59.45 17.44C58.44 15.79 57.43 14.14 56.42 12.49C56.42 12.49 56.42 12.48 56.4 12.47C56.35 12.41 56.29 12.36 56.22 12.32V19.83C56.22 19.88 56.18 19.92 56.13 19.93C55.67 20.01 55.2 20.02 54.74 19.99C54.65 19.99 54.57 19.96 54.51 19.9C54.45 19.84 54.42 19.75 54.43 19.67C54.43 18.97 54.43 18.27 54.43 17.57C54.43 16.96 54.45 16.35 54.45 15.74C54.45 14.37 54.44 13 54.43 11.63C54.43 10.8 54.43 9.96996 54.43 9.12996C54.43 8.70996 54.49 8.66996 54.93 8.71996C55.21 8.74996 55.48 8.75996 55.76 8.74996C56.1 8.72996 56.41 8.90996 56.56 9.21996C57.2 10.3 57.87 11.35 58.53 12.42C59.25 13.59 59.96 14.76 60.69 15.92C60.75 16.01 60.81 16.09 60.89 16.19C60.95 16.26 61.06 16.23 61.07 16.14C61.08 16.05 61.09 15.96 61.1 15.86C61.1 14.5 61.1 13.15 61.1 11.8V9.07996C61.1 8.71996 61.18 8.66996 61.53 8.69996C61.92 8.72996 62.32 8.74996 62.7 8.76996C62.75 8.76996 62.79 8.80995 62.8 8.85995C62.9 9.91995 62.92 18.79 62.8 19.92C62.8 19.97 62.75 20.01 62.7 20.01L62.71 20Z" fill="#FE5438"/>
<path d="M81.33 15.52C81.35 15.46 81.41 15.42 81.48 15.42C81.77 15.42 82.01 15.44 82.25 15.42C82.48 15.38 82.72 15.48 82.83 15.69C82.85 15.72 82.85 15.75 82.85 15.79C82.81 16.07 82.77 16.37 82.72 16.66C82.55 17.55 82.1 18.36 81.42 18.95C80.81 19.49 80.07 19.86 79.27 20.02C78.65 20.17 77.99 20.18 77.37 20.04C77.28 20.02 77.19 20.02 77.09 20.02C76.31 20 75.56 19.68 75.01 19.12C74.18 18.32 73.64 17.27 73.47 16.12C73.25 14.91 73.26 13.68 73.49 12.47C73.65 11.17 74.35 9.99 75.41 9.22C75.88 8.86 76.46 8.65 77.05 8.64C77.36 8.63 77.67 8.6 77.97 8.55C77.97 8.55 77.98 8.55 77.99 8.55C79 8.48 80.01 8.74 80.87 9.29C81.38 9.6 81.81 10.03 82.12 10.54C82.58 11.18 82.8 11.97 82.75 12.75C82.75 12.81 82.7 12.87 82.64 12.89C82.27 13 81.89 13.06 81.51 13.05C81.29 13.05 81.11 12.9 81.09 12.68C81.04 12.44 80.97 12.21 80.89 11.99C80.59 11.32 80.01 10.81 79.31 10.59C78.72 10.31 78.07 10.21 77.42 10.31C76.53 10.48 75.8 11.11 75.48 11.96C75.23 12.55 75.12 13.19 75.15 13.83C75.18 14.49 75.17 15.15 75.24 15.8C75.31 16.87 75.98 17.81 76.96 18.22C77.37 18.41 77.82 18.47 78.26 18.38C78.95 18.27 79.61 17.99 80.18 17.57H80.19C80.59 17.22 80.88 16.78 81.03 16.28C81.13 16.02 81.24 15.77 81.34 15.51L81.33 15.52Z" fill="#FE5438"/>
<path d="M94.05 22.0401L93.6 21.9201C93.23 21.8201 92.86 21.6901 92.48 21.6101C92.12 21.5501 91.85 21.2601 91.8 20.9001C91.63 20.1301 91.47 19.3501 91.29 18.5701C91.15 17.9601 91 17.3501 90.85 16.7401C90.78 16.3101 90.43 15.9701 89.99 15.9201C89.63 15.8601 89.27 15.7701 88.89 15.6801C88.79 15.6601 88.69 15.7101 88.66 15.8101C88.17 17.2201 87.76 18.6601 87.43 20.1101C87.41 20.2001 87.33 20.2601 87.24 20.2601C87.22 20.2601 87.19 20.2601 87.17 20.2601C87.15 20.2601 87.14 20.2601 87.12 20.2601C86.66 20.1601 86.2 20.0601 85.74 19.9601C85.71 19.9601 85.69 19.9101 85.61 19.8501C85.62 19.7001 85.65 19.5601 85.68 19.4101C86.32 16.9601 86.96 14.5001 87.6 12.0501C87.82 11.1901 88.03 10.3301 88.26 9.48007C88.38 9.03007 88.44 8.99007 88.87 9.09007C90.18 9.42007 91.48 9.76007 92.79 10.1001L93.86 10.3801C94.69 10.6201 95.36 11.2401 95.67 12.0501C95.79 12.4001 95.88 12.7601 95.92 13.1201C95.94 13.2101 95.94 13.3101 95.92 13.4001C95.73 14.0901 95.47 14.7601 95.13 15.3901C95.13 15.3901 95.13 15.4101 95.12 15.4101C94.74 16.0001 94.13 16.4101 93.45 16.5601C92.91 16.6901 92.85 16.7501 92.96 17.2701C93.14 18.1201 93.37 18.9501 93.58 19.8001C93.75 20.4801 93.92 21.1601 94.09 21.8401C94.11 21.8701 94.09 21.9101 94.05 22.0301V22.0401ZM89.69 11.4501C89.52 12.0401 89.34 12.6001 89.2 13.1601C89.16 13.2801 89.16 13.4101 89.23 13.5201C89.29 13.6301 89.4 13.7001 89.53 13.7201C90.54 14.0101 91.56 14.2801 92.58 14.5301C92.86 14.6101 93.15 14.5201 93.34 14.3001C93.65 13.9501 93.83 13.5101 93.86 13.0401C93.88 12.7401 93.69 12.4601 93.4 12.3601C92.24 12.0401 91.08 11.7401 89.92 11.4401C89.85 11.4401 89.77 11.4401 89.7 11.4401L89.69 11.4501Z" fill="#FE5438"/>
<path d="M109.42 19.2799C109.49 19.3399 109.5 19.4499 109.45 19.5299C109.17 19.8999 108.93 20.2299 108.67 20.5499C108.46 20.8099 108.34 20.7999 108.05 20.6099L107.92 20.5099C106.41 19.3899 104.9 18.2599 103.39 17.1399C103.31 17.0799 103.22 17.0299 103.13 16.9699C103.06 16.9299 102.97 16.9399 102.91 16.9999C102.41 17.4999 101.95 18.0499 101.54 18.6299C101.5 18.6899 101.5 18.7699 101.54 18.8299C101.56 18.8599 101.58 18.8899 101.6 18.9199C101.6 18.9299 101.62 18.9399 101.63 18.9499C102.45 19.5999 103.27 20.2399 104.1 20.8799L104.23 20.9799C104.55 21.2499 104.57 21.3499 104.35 21.6799C104.16 21.9499 103.95 22.2099 103.75 22.4699C103.71 22.5299 103.65 22.5799 103.59 22.6499C103.53 22.7099 103.44 22.7299 103.37 22.6899C103.27 22.6299 103.17 22.5699 103.08 22.5099C102.28 21.9199 101.48 21.3099 100.69 20.7099L100.41 20.4899C100.34 20.4399 100.24 20.4399 100.18 20.4999C100.12 20.5599 100.06 20.6299 100 20.6899C100 20.6899 100 20.6899 99.99 20.6999C99.59 21.2299 99.18 21.7399 98.79 22.2799C98.56 22.5999 98.57 22.6799 98.87 22.9199C99.58 23.4799 100.3 24.0299 101.01 24.5799C101.84 25.2299 102.67 25.8799 103.49 26.5299C103.82 26.7899 103.84 26.8999 103.61 27.2199C103.38 27.5399 103.14 27.8499 102.88 28.1899C102.83 28.2599 102.73 28.2799 102.66 28.2399C102.57 28.1899 102.48 28.1399 102.39 28.0799C102.39 28.0799 102.39 28.0799 102.38 28.0699C100.34 26.5199 98.29 24.9699 96.25 23.4099C95.92 23.1599 95.91 23.0899 96.17 22.7399C97.32 21.2299 98.47 19.7199 99.62 18.2099L102.34 14.6499C102.73 14.1299 102.74 14.1299 103.25 14.5199C105.2 16.0099 107.15 17.5099 109.11 18.9999C109.22 19.0799 109.33 19.1699 109.47 19.2899L109.42 19.2799Z" fill="#FE5438"/>
<path d="M116.08 28.51L116.31 28.92C116.4 29.07 116.39 29.2499 116.28 29.3899C115.83 29.9799 115.39 30.58 114.93 31.17C114.66 31.52 114.36 31.86 114.09 32.2C113.97 32.34 113.88 32.5 113.76 32.65C113.11 33.46 112.46 34.28 111.81 35.09C111.47 35.51 111.12 35.9199 110.8 36.3499C110.48 36.7799 110.18 37.2199 109.86 37.6399C109.65 37.8999 109.42 38.1499 109.18 38.3699C109.12 38.4399 109.02 38.48 108.92 38.47C108.82 38.46 108.74 38.4 108.7 38.31C108.49 38.01 108.28 37.7 108.1 37.38C108.06 37.28 108.05 37.17 108.08 37.06C108.1 36.97 108.14 36.88 108.21 36.81C108.68 36.24 109.15 35.6699 109.63 35.0999C109.7 35.0099 109.78 34.9299 109.85 34.8499C110.1 34.6399 110.14 34.26 109.93 34C109.67 33.61 109.42 33.21 109.18 32.81C109.04 32.58 108.92 32.3399 108.81 32.0999C108.58 31.6199 108.33 31.15 108.1 30.66C108.04 30.5 107.87 30.4 107.7 30.43C107.42 30.45 107.15 30.5 106.87 30.53C106.27 30.6 105.66 30.67 105.06 30.74C104.57 30.81 104.48 30.75 104.28 30.28C104.21 30.11 104.12 29.95 104.04 29.78C103.8 29.29 103.86 29.1599 104.38 29.0599C104.72 28.9699 105.07 28.94 105.42 28.95C105.81 28.95 106.19 28.92 106.57 28.86C107.94 28.73 109.31 28.62 110.67 28.43C111.44 28.32 112.22 28.28 112.99 28.2C113.64 28.14 114.28 28.0499 114.93 27.9699C115.03 27.9599 115.2 27.95 115.3 27.95C115.66 27.96 115.91 28.0799 116.09 28.4699L116.08 28.51ZM111.59 32.63C111.59 32.63 111.67 32.6 111.72 32.54C112.17 32 112.63 31.46 113.07 30.91C113.24 30.69 113.4 30.4599 113.55 30.2299C113.69 30.0099 113.57 29.84 113.3 29.84C113.24 29.84 113.19 29.86 113.13 29.86C112.58 29.91 112.02 29.97 111.47 30.03C111.07 30.07 110.67 30.13 110.27 30.18C110.24 30.18 110.22 30.22 110.23 30.25C110.54 31.12 110.99 31.92 111.58 32.63H111.59Z" fill="#FE5438"/>
<path d="M118.61 42.8101L115.66 43.2401C114.66 43.3901 113.65 43.5801 112.63 43.6601C111.66 43.7401 110.64 44.0301 109.62 44.0701C109.54 44.0701 109.48 44.0201 109.47 43.9401C109.45 43.7901 109.43 43.6701 109.41 43.5501C109.36 43.2601 109.3 42.9701 109.23 42.6801C109.16 42.3701 109.2 42.2801 109.53 42.2301C110.13 42.1301 110.74 42.0501 111.34 41.9701C113.41 41.6701 115.57 41.3701 117.64 41.0701C118.35 40.9701 118.48 41.0401 118.35 40.1801C118.25 39.5001 118.02 37.9301 117.93 37.2501C117.87 36.7701 117.93 36.7101 118.4 36.6501C118.69 36.6101 118.9 36.5801 119.19 36.5401C119.6 36.4901 119.72 36.5701 119.79 36.9901C119.93 37.7901 120.18 39.4901 120.3 40.2901L121.05 45.4601C121.17 46.2801 121.16 46.3901 120.36 46.4901C120.1 46.5201 119.94 46.5501 119.68 46.5701C119.4 46.6001 119.31 46.5301 119.25 46.2601C119.19 45.9701 119.14 45.5901 119.1 45.2901L118.76 42.9201C118.75 42.8401 118.67 42.7801 118.59 42.8001L118.61 42.8101Z" fill="#FE5438"/>
<path d="M120.71 52.05C120.63 52.07 120.54 52.08 120.46 52.09C120.46 52.09 120.45 52.09 120.44 52.09C116.89 52.06 113.35 52.02 109.75 52C109.68 52 109.62 51.95 109.62 51.88C109.56 51.43 109.55 50.98 109.59 50.53C109.59 50.45 109.62 50.38 109.68 50.33C109.74 50.28 109.81 50.25 109.89 50.26C110.57 50.25 111.25 50.24 111.93 50.24C112.5 50.24 113.08 50.26 113.65 50.25C115.08 50.25 116.5 50.23 117.93 50.22C118.76 50.22 119.6 50.22 120.43 50.22C120.87 50.22 120.91 50.28 120.87 50.7C120.85 50.97 120.85 51.25 120.84 51.53C120.84 51.66 120.83 51.79 120.82 51.92C120.82 51.98 120.77 52.03 120.72 52.04L120.71 52.05Z" fill="#FE5438"/>
<path d="M109.45 59.38C109.51 58.84 109.6 58.76 110.12 58.66C110.38 58.61 110.63 58.54 110.88 58.48C111.47 58.32 112.07 58.17 112.66 58C114.02 57.61 115.38 57.2 116.74 56.81C117.26 56.66 117.78 56.53 118.3 56.37C118.82 56.21 119.31 56.02 119.82 55.86C120.14 55.77 120.47 55.7 120.8 55.66C121.02 55.63 121.15 55.76 121.15 55.99C121.15 56.36 121.15 56.73 121.11 57.09C121.08 57.34 120.85 57.44 120.63 57.5C119.99 57.68 119.34 57.84 118.69 58.02C117.86 58.24 117.03 58.47 116.21 58.7C115.24 58.97 114.27 59.23 113.3 59.49C113.03 59.57 112.77 59.66 112.51 59.76C112.43 59.79 112.36 59.85 112.33 59.94C112.33 60.03 112.38 60.11 112.45 60.15C113.09 60.53 113.74 60.9 114.39 61.27C115.37 61.82 116.34 62.37 117.32 62.92C118.12 63.36 118.92 63.8 119.73 64.24C120.23 64.51 120.26 64.56 120.14 65.1C120.09 65.33 120.07 65.58 120.02 65.81C119.96 66.1 119.8 66.21 119.54 66.1C119.2 65.95 118.87 65.78 118.56 65.59C118.16 65.36 117.77 65.11 117.38 64.88C116.85 64.58 116.3 64.28 115.77 63.98C115.3 63.71 114.84 63.44 114.36 63.17C114.03 62.99 113.7 62.83 113.37 62.65C112.92 62.39 112.47 62.12 112.01 61.87C111.29 61.48 110.57 61.1 109.84 60.73C109.45 60.53 109.36 60.43 109.39 60C109.4 59.85 109.42 59.71 109.44 59.56L109.46 59.4L109.45 59.38Z" fill="#FE5438"/>
<path d="M114.08 79.09C114.03 79.17 113.92 79.2 113.84 79.15C113.43 78.93 113.06 78.74 112.71 78.53C112.42 78.36 112.41 78.25 112.55 77.93L112.63 77.78C113.51 76.11 114.38 74.45 115.26 72.78C115.31 72.69 115.35 72.6 115.39 72.5C115.42 72.42 115.39 72.33 115.33 72.29C114.76 71.87 114.15 71.5 113.51 71.19C113.45 71.16 113.37 71.17 113.31 71.21C113.28 71.23 113.26 71.26 113.23 71.29C113.22 71.3 113.21 71.31 113.2 71.33C112.69 72.24 112.18 73.15 111.67 74.06L111.59 74.21C111.37 74.56 111.27 74.6 110.92 74.43C110.62 74.28 110.34 74.11 110.05 73.96C109.98 73.92 109.92 73.88 109.85 73.83C109.78 73.78 109.75 73.7 109.78 73.62C109.82 73.51 109.86 73.41 109.91 73.31C110.38 72.43 110.85 71.55 111.32 70.67L111.49 70.36C111.53 70.28 111.51 70.19 111.44 70.13C111.37 70.08 111.3 70.03 111.22 69.98H111.21C110.63 69.66 110.05 69.33 109.47 69.03C109.12 68.85 109.04 68.88 108.85 69.21C108.41 70 107.98 70.79 107.54 71.59C107.03 72.51 106.51 73.43 105.99 74.34C105.78 74.7 105.68 74.74 105.32 74.57C104.97 74.4 104.62 74.2 104.25 74C104.18 73.96 104.14 73.87 104.17 73.79C104.2 73.69 104.24 73.59 104.28 73.5C104.28 73.5 104.28 73.49 104.28 73.48C105.5 71.22 106.72 68.97 107.94 66.71C108.14 66.34 108.2 66.32 108.6 66.53C110.27 67.43 111.94 68.34 113.61 69.24L117.55 71.38C118.12 71.69 118.12 71.7 117.82 72.25C116.65 74.41 115.47 76.56 114.29 78.72C114.23 78.84 114.15 78.96 114.06 79.11L114.08 79.09Z" fill="#FE5438"/>
</g>
<defs>
<clipPath id="clip0_203_387">
<rect width="129.43" height="102.83" fill="white"/>
</clipPath>
</defs>
</svg>
