<svg width="105" height="53" viewBox="0 0 105 53" fill="none" xmlns="http://www.w3.org/2000/svg">
<path d="M32.3996 20.309H30.1916C30.0427 20.309 29.9187 20.433 29.9187 20.5819V26.2383C29.9187 27.1562 29.5466 27.6524 28.7031 27.6524C27.8596 27.6524 27.4874 27.1562 27.4874 26.2383V20.5819C27.4874 20.433 27.3882 20.309 27.2145 20.309H24.9817C24.8329 20.309 24.7088 20.433 24.7088 20.5819V26.7841C24.7088 28.6944 26.0981 30.2573 28.6782 30.2573C31.2832 30.2573 32.6973 28.7192 32.6973 26.7841V20.5819C32.6973 20.433 32.5732 20.309 32.3996 20.309Z" fill="#5F4D40" fill-opacity="0.5"/>
<path d="M48.4261 24.2784L46.8135 23.7326C46.3422 23.5589 46.2925 23.3108 46.2925 23.1372C46.2925 22.8891 46.5406 22.641 47.012 22.641C47.533 22.641 48.2772 22.7898 48.9967 23.3356C49.0959 23.4101 49.2448 23.4101 49.3192 23.3108L50.5597 21.7479C50.6341 21.6486 50.6341 21.4998 50.5349 21.4006C49.4681 20.5074 48.178 20.1849 46.9872 20.1849C44.68 20.1849 43.2907 21.6238 43.2907 23.1868C43.2907 24.4024 44.0101 25.5436 45.5235 26.0398L46.9376 26.536C47.6322 26.7841 47.7563 26.9577 47.7563 27.2554C47.7563 27.5283 47.4834 27.826 46.9128 27.826C46.1189 27.826 45.2009 27.3547 44.5807 26.8337C44.4815 26.7593 44.3326 26.7593 44.2582 26.8585L42.993 28.5455C42.9185 28.6447 42.9185 28.7936 43.0178 28.8928C43.9357 29.6867 45.3002 30.2821 47.0368 30.2821C49.1952 30.2821 50.7829 29.0169 50.7829 27.1314C50.7829 25.8165 49.9642 24.7994 48.4261 24.2784Z" fill="#5F4D40" fill-opacity="0.5"/>
<path d="M38.3041 24.4769H36.8652V22.7899H38.3041C39.1228 22.7899 39.4205 23.162 39.4205 23.6333C39.4205 24.1047 39.098 24.4769 38.3041 24.4769ZM40.4873 26.4368C41.6781 25.8413 42.2735 24.9482 42.2735 23.5837C42.2735 21.8719 40.8842 20.3338 38.5274 20.3338H34.285C34.1362 20.3338 34.037 20.4826 34.037 20.6067V29.8356C34.037 29.9844 34.161 30.0837 34.285 30.0837H36.5675C36.7163 30.0837 36.8156 29.9596 36.8156 29.8356V26.8585H37.7087L39.3212 29.8604C39.3957 29.9844 39.5445 30.0837 39.6934 30.0837H42.3231C42.472 30.0837 42.5216 29.9844 42.4472 29.8604L40.4873 26.4368Z" fill="#5F4D40" fill-opacity="0.5"/>
<path d="M12.8254 20.309H6.20142C6.00295 20.309 5.87891 20.4578 5.87891 20.6067V29.7859C5.87891 29.9348 6.00295 30.0588 6.1518 30.0588H8.3846C8.53345 30.0588 8.63269 29.91 8.63269 29.7859V26.8089H11.4609C11.6098 26.8089 11.7338 26.7096 11.7586 26.5608L12.1804 24.5265C12.2052 24.4024 12.1555 24.2784 11.9819 24.2784H8.6575V22.7899H12.4036C12.5525 22.7899 12.6765 22.6906 12.7013 22.5418L13.0983 20.6315C13.1231 20.4826 13.0239 20.309 12.8254 20.309Z" fill="#5F4D40" fill-opacity="0.5"/>
<path d="M97.6221 22.8147C97.7709 22.8147 97.895 22.7154 97.9198 22.5666L98.3167 20.6563C98.3415 20.4826 98.3167 20.3338 98.0686 20.3338H91.395C91.1966 20.3338 91.0973 20.4826 91.0973 20.6315V29.8108C91.0973 29.9596 91.2214 30.0837 91.3702 30.0837H97.4484C97.5973 30.0837 97.7213 29.9844 97.7461 29.8356L98.1431 27.9253C98.1679 27.7516 98.1431 27.6028 97.895 27.6028H93.8511V26.4864H96.6793C96.8282 26.4864 96.9522 26.3871 96.977 26.2383L97.3988 24.204C97.4236 24.0799 97.374 23.9559 97.2003 23.9559H93.8511V22.8395H97.6221V22.8147Z" fill="#5F4D40" fill-opacity="0.5"/>
<path d="M74.9964 25.8413L75.8895 22.8643L76.7826 25.8413H74.9964ZM77.7254 20.5322C77.7006 20.4082 77.5517 20.309 77.4277 20.309H74.3762C74.2521 20.309 74.1033 20.4082 74.0785 20.5322L71.2751 29.8356C71.2254 29.9596 71.2999 30.0837 71.4487 30.0837H73.9544C74.0785 30.0837 74.2273 29.9596 74.2521 29.8356L74.6491 28.4215H77.1548L77.5765 29.8356C77.6013 29.9596 77.7502 30.0837 77.8742 30.0837H80.3551C80.4791 30.0837 80.5536 29.9596 80.5288 29.8356L77.7254 20.5322Z" fill="#5F4D40" fill-opacity="0.5"/>
<path d="M70.506 20.309H68.298C68.1491 20.309 68.0251 20.433 68.0251 20.5819V26.2383C68.0251 27.1562 67.653 27.6524 66.8095 27.6524C65.966 27.6524 65.5938 27.1562 65.5938 26.2383V20.5819C65.5938 20.433 65.4946 20.309 65.3209 20.309H63.1129C62.9641 20.309 62.84 20.433 62.84 20.5819V26.7841C62.84 28.6944 64.2293 30.2573 66.8095 30.2573C69.4144 30.2573 70.8285 28.7192 70.8285 26.7841V20.5819C70.7789 20.433 70.6548 20.309 70.506 20.309Z" fill="#5F4D40" fill-opacity="0.5"/>
<path d="M85.7634 24.4769H84.3245V22.7899H85.7634C86.5573 22.7899 86.8798 23.162 86.8798 23.6333C86.8798 24.1047 86.5573 24.4769 85.7634 24.4769ZM87.9466 26.4368C89.1374 25.8413 89.7328 24.9482 89.7328 23.5837C89.7328 21.8719 88.3436 20.3338 85.9867 20.3338H81.7444C81.5955 20.3338 81.4963 20.4826 81.4963 20.6067V29.8356C81.4963 29.9844 81.6203 30.0837 81.7444 30.0837H84.0268C84.1757 30.0837 84.2749 29.9596 84.2749 29.8356V26.8585H85.168L86.7806 29.8604C86.855 29.9844 87.0039 30.0837 87.1527 30.0837H89.7825C89.9313 30.0837 89.9809 29.9844 89.9065 29.8604L87.9466 26.4368Z" fill="#5F4D40" fill-opacity="0.5"/>
<path d="M56.5634 27.6772C55.2982 27.6772 54.4298 26.5608 54.4298 25.1963C54.4298 23.8318 55.2982 22.7154 56.5634 22.7154C57.8287 22.7154 58.697 23.8318 58.697 25.1963C58.697 26.5856 57.8287 27.6772 56.5634 27.6772ZM61.6244 28.868C61.3019 28.9921 60.7313 29.1409 60.0615 28.9921C60.1607 28.8928 60.2599 28.8184 60.3592 28.7192C61.674 27.3299 62.0462 25.2459 61.4011 23.4597C60.7313 21.6238 58.9699 20.3586 57.01 20.2097C55.0253 20.0609 53.0157 21.0284 52.073 22.7402C51.0806 24.5513 51.2543 26.9329 52.6188 28.5207C53.7848 29.8852 55.6455 30.4558 57.3573 30.2077C57.3821 30.2325 57.4069 30.2573 57.4317 30.2821C58.3993 31.1752 59.9374 31.6962 61.2771 31.6962L61.8229 29.0169C61.8229 28.9176 61.7485 28.8184 61.6244 28.868Z" fill="#5F4D40" fill-opacity="0.5"/>
<path d="M18.457 27.6772C17.1917 27.6772 16.3234 26.5608 16.3234 25.1963C16.3234 23.8318 17.1917 22.7154 18.457 22.7154C19.7222 22.7154 20.5906 23.8318 20.5906 25.1963C20.6154 26.5856 19.7471 27.6772 18.457 27.6772ZM18.9036 20.1849C16.9188 20.0361 14.9093 21.0036 13.9666 22.7154C12.9742 24.5265 13.1479 26.9081 14.5124 28.4959C16.4475 30.7535 20.2184 30.8279 22.2528 28.6944C23.5676 27.3051 23.9398 25.2211 23.2947 23.4349C22.6249 21.599 20.8635 20.3586 18.9036 20.1849Z" fill="#5F4D40" fill-opacity="0.5"/>
</svg>
