<svg width="105" height="53" viewBox="0 0 105 53" fill="none" xmlns="http://www.w3.org/2000/svg">
<path d="M25.7687 22.1608C25.2142 19.3199 23.3097 17.2599 19.874 17.2286H19.7239C15.8035 17.253 12.8946 19.2187 11.3526 22.1608C10.5008 23.822 10.0663 25.6655 10.0866 27.532C10.0866 31.3069 12.1794 33.6838 14.8617 34.3496C15.382 34.4785 15.9162 34.5428 16.4522 34.5412C17.0391 34.5478 17.6248 34.4835 18.1963 34.3496C19.2532 34.1113 20.1985 33.5229 20.8785 32.68V34.1787C20.8767 34.2008 20.8767 34.2231 20.8785 34.2452C20.8917 34.2745 20.9127 34.2998 20.9391 34.3182C20.9655 34.3366 20.9964 34.3475 21.0286 34.3497H23.3481C23.3762 34.3466 23.4034 34.3383 23.4284 34.3251C23.4672 34.3006 23.4947 34.2618 23.5052 34.2172L25.1061 26.033C25.1078 26.0182 25.1078 26.0031 25.1061 25.9878C25.1061 25.9649 25.1016 25.9423 25.0929 25.9211C25.0841 25.8999 25.0713 25.8807 25.0551 25.8645C25.0389 25.8483 25.0197 25.8355 24.9985 25.8268C24.9773 25.818 24.9546 25.8135 24.9317 25.8135H19.1102C19.0708 25.8122 19.0322 25.8243 19.0005 25.8477C18.9688 25.8711 18.946 25.9046 18.9358 25.9426L18.4964 28.1592V28.1908C18.4926 28.2139 18.4926 28.2374 18.4964 28.2605C18.5097 28.2919 18.5321 28.3186 18.5607 28.3372C18.5892 28.3558 18.6227 28.3654 18.6568 28.3649H21.5937C20.9624 30.1077 19.5009 31.631 17.1638 31.631C14.827 31.631 13.3549 29.9474 13.3549 27.0719C13.3238 25.2946 13.9051 23.5606 15.0014 22.1608C15.5043 21.5269 16.1443 21.0151 16.8734 20.6638C17.6025 20.3124 18.4018 20.1306 19.2113 20.132C20.8402 20.132 21.7891 20.8745 22.4238 22.1608C22.5878 22.4986 22.7265 22.8481 22.8389 23.2063C22.852 23.2381 22.8742 23.2654 22.9027 23.2846C22.9313 23.3038 22.9648 23.3141 22.9993 23.3143H23.0482L25.6817 22.6172C25.6993 22.6139 25.716 22.6068 25.7305 22.5964C25.7562 22.5807 25.7774 22.5587 25.7921 22.5325C25.8067 22.5062 25.8144 22.4766 25.8143 22.4466V22.4188C25.8143 22.3349 25.7828 22.2478 25.7653 22.1641L25.7687 22.1608ZM32.2182 17.4029C32.2182 17.38 32.2137 17.3573 32.2049 17.3362C32.1962 17.315 32.1833 17.2958 32.1671 17.2796C32.1509 17.2634 32.1317 17.2506 32.1106 17.2418C32.0894 17.233 32.0667 17.2285 32.0438 17.2285H29.372C29.3308 17.2289 29.2911 17.2438 29.2598 17.2705C29.2286 17.2973 29.2078 17.3342 29.2011 17.3748L28.2732 22.1607L25.9538 34.1367V34.1752C25.9485 34.1969 25.9485 34.2197 25.9538 34.2416C25.9805 34.3062 26.0437 34.3492 26.1142 34.3495H28.7825C28.8214 34.3506 28.8596 34.3384 28.8906 34.315C28.9217 34.2915 28.9439 34.2582 28.9534 34.2205L31.2869 22.1608L32.2042 17.4308V17.4029H32.2182ZM40.5616 22.1608C40.0427 22.0303 39.5095 21.9657 38.9745 21.9686C38.3345 21.961 37.6957 22.0255 37.0701 22.1608C35.8999 22.4409 34.8325 23.0449 33.9901 23.9036C32.539 25.2977 31.8973 27.0963 31.8973 29.3932C31.8973 31.7774 33.275 33.7429 35.633 34.3496C36.153 34.4801 36.6874 34.5444 37.2235 34.5412C37.8763 34.5532 38.5283 34.489 39.1662 34.3496C40.3354 34.0696 41.4018 33.4655 42.2426 32.6068C43.6938 31.2126 44.3354 29.4178 44.3354 27.1205C44.3354 24.7326 42.9401 22.7635 40.5998 22.1608H40.5616ZM40.1917 30.6723C39.8841 31.0919 39.4787 31.4302 39.0107 31.658C38.5427 31.8857 38.0263 31.9961 37.506 31.9794C36.0793 31.9794 35.1341 30.8187 35.1341 28.9329C35.1341 27.6259 35.4236 26.6116 36.0304 25.8379C36.3399 25.4215 36.7461 25.0865 37.214 24.8619C37.6819 24.6372 38.1975 24.5295 38.7163 24.5482C40.1428 24.5482 41.0881 25.7089 41.0881 27.5946C41.0881 28.9018 40.7951 29.916 40.1917 30.6898L40.1917 30.6723ZM54.3358 23.9135C53.9279 23.1192 53.0069 22.4708 51.9396 22.1708C51.5044 22.044 51.0534 21.9794 50.6 21.9792C50.0776 21.975 49.557 22.0394 49.0514 22.1708C47.4061 22.5283 46.2603 24.0211 46.3412 25.7019C46.3412 27.3227 47.4084 28.2671 48.8352 28.9431C50.2617 29.6195 50.928 30.031 50.928 30.7315C50.928 31.6028 50.199 31.9896 49.3793 31.9896C48.2248 31.9896 47.4015 31.2924 47.0563 30.0902C47.0437 30.0559 47.0209 30.0262 46.991 30.005C46.9611 29.9838 46.9255 29.9722 46.8889 29.9717C46.8669 29.9683 46.8446 29.9683 46.8227 29.9717L44.5761 30.9058C44.5442 30.9188 44.517 30.941 44.4978 30.9695C44.4786 30.9981 44.4683 31.0317 44.4683 31.0661V31.0936C44.6545 31.8624 45.0411 32.5683 45.5888 33.1395C46.1365 33.7108 46.8258 34.1269 47.5865 34.3457C48.0578 34.4762 48.5449 34.5408 49.0339 34.5376C49.6104 34.5421 50.1854 34.4777 50.7466 34.3457C52.5953 33.8892 53.8261 32.6029 53.8261 30.306C53.8261 28.6156 52.5672 27.7933 51.3115 27.2112C50.4884 26.8239 49.2187 26.4617 49.2187 25.6147C49.2121 25.0177 49.6908 24.5289 50.2879 24.5221C50.3269 24.5214 50.3661 24.5234 50.4049 24.5268C50.7524 24.527 51.0948 24.6107 51.4031 24.7709C51.7115 24.9311 51.9768 25.1631 52.1766 25.4472C52.193 25.4687 52.2141 25.4861 52.2383 25.4982C52.2624 25.5102 52.2891 25.5166 52.3161 25.5167C52.3481 25.516 52.379 25.5076 52.4071 25.4927L54.2869 24.1403C54.3191 24.1165 54.3415 24.0818 54.3499 24.0427C54.3583 24.0036 54.3521 23.9627 54.3325 23.9279L54.3358 23.9135ZM61.9084 22.1608C61.4731 22.034 61.0221 21.9693 60.5687 21.9686C60.0453 21.9647 59.5236 22.0293 59.0169 22.1608C57.3728 22.5196 56.2286 24.0119 56.3102 25.6912C56.3102 27.3121 57.3567 28.2569 58.8038 28.9329C60.1817 29.5848 60.8968 30.0205 60.8968 30.7209C60.8968 31.5923 60.1716 31.9794 59.3479 31.9794C58.1937 31.9794 57.3667 31.2822 57.0214 30.0725C57.0093 30.0398 56.9875 30.0115 56.9589 29.9916C56.9303 29.9716 56.8963 29.9609 56.8614 29.9608C56.8382 29.9561 56.8143 29.9561 56.791 29.9608L54.5485 30.8918C54.5171 30.9051 54.4903 30.9274 54.4717 30.956C54.4531 30.9845 54.4434 31.018 54.444 31.0521C54.4422 31.0636 54.4422 31.0753 54.444 31.0868C54.6311 31.854 55.0177 32.5582 55.5647 33.1281C56.1117 33.698 56.7997 34.1133 57.559 34.3321C58.0317 34.462 58.5199 34.5264 59.0101 34.5236C59.5853 34.5285 60.1591 34.4642 60.7189 34.3321C62.5675 33.8753 63.8023 32.5893 63.8023 30.2924C63.8023 28.6017 62.5431 27.779 61.2838 27.1968C60.4605 26.8103 59.1912 26.4478 59.1912 25.6003C59.1844 25.004 59.6635 24.5146 60.26 24.5081C60.2991 24.5076 60.3382 24.5094 60.3771 24.5133C60.7237 24.5135 61.0652 24.5968 61.3729 24.7562C61.6805 24.9157 61.9454 25.1466 62.1452 25.4296C62.1613 25.4526 62.1828 25.4714 62.2078 25.4842C62.2328 25.4969 62.2606 25.5034 62.2886 25.503C62.3203 25.5017 62.3512 25.4934 62.3792 25.4786L64.2803 24.1262C64.2988 24.1087 64.3136 24.0877 64.3238 24.0643C64.334 24.041 64.3394 24.0159 64.3396 23.9904C64.3396 23.9639 64.3335 23.9373 64.322 23.9134C63.9142 23.1157 62.9934 22.4669 61.9257 22.1706L61.9084 22.1608ZM69.7283 22.1608H67.0704C67.0328 22.1614 66.9964 22.1738 66.9664 22.1963C66.9363 22.2188 66.9141 22.2502 66.9029 22.286L64.6011 34.1368C64.599 34.1496 64.599 34.1626 64.6011 34.1753C64.5975 34.1973 64.5975 34.2198 64.6011 34.2418C64.6147 34.2732 64.637 34.3002 64.6654 34.3193C64.6938 34.3384 64.7271 34.349 64.7614 34.3497H67.4193C67.451 34.3486 67.4821 34.3402 67.5099 34.3251C67.5487 34.3019 67.5765 34.2642 67.5869 34.2206L69.8959 22.3486C69.8949 22.3027 69.8762 22.2589 69.8438 22.2264C69.8113 22.1939 69.7675 22.1752 69.7215 22.1742L69.7283 22.1608ZM79.1424 22.1608C78.6381 22.0293 78.1187 21.9647 77.5975 21.9686C77.0108 21.9676 76.4258 22.0321 75.8535 22.1608C72.6018 22.9027 70.3127 25.8164 70.363 29.1491C70.363 31.9376 71.8566 33.778 74.0433 34.3495C74.5478 34.4801 75.0672 34.5445 75.5883 34.5411C76.1974 34.5469 76.8043 34.4826 77.3984 34.3495C79.0975 33.9555 80.3352 32.9554 81.4866 31.2856C81.5098 31.2463 81.5167 31.1994 81.5056 31.155C81.4945 31.1107 81.4663 31.0725 81.4273 31.0488L79.3347 29.9646C79.313 29.9535 79.289 29.9476 79.2646 29.9472C79.2391 29.9479 79.214 29.9542 79.1912 29.9656C79.1683 29.977 79.1483 29.9933 79.1324 30.0133C78.257 31.2718 77.2557 31.9794 75.8711 31.9794C74.2737 31.9794 73.4015 30.8675 73.4015 29.609V29.2224H82.031C82.0627 29.2212 82.0937 29.2128 82.1216 29.1978C82.1576 29.1752 82.1847 29.1408 82.1981 29.1005C82.3975 28.3675 82.4996 27.6115 82.5018 26.8519C82.5018 24.6006 81.3503 22.7462 79.1568 22.1608H79.1424ZM73.9663 26.8519C74.4777 25.4936 75.7585 24.5774 77.2104 24.5307C78.7345 24.5307 79.4356 25.329 79.5334 26.8519H73.9663ZM92.2544 24.8967C92.2799 24.911 92.3083 24.9183 92.3377 24.9179C92.3698 24.9186 92.401 24.9096 92.4287 24.8932C92.4596 24.8731 92.4841 24.8439 92.4984 24.8096L93.3878 22.4569C93.3915 22.4338 93.3915 22.4102 93.3878 22.3871C93.3871 22.3528 93.3766 22.3195 93.3575 22.2911C93.3384 22.2627 93.3115 22.2403 93.2801 22.2267L93.1158 22.1675C92.7141 22.0256 92.2892 21.9606 91.8634 21.9758C91.4214 21.9739 90.9816 22.0385 90.5589 22.1675C89.5523 22.4991 88.6729 23.1333 88.0407 23.9834L88.3577 22.3837C88.3657 22.3581 88.3673 22.3309 88.3626 22.3046C88.3578 22.2782 88.3468 22.2534 88.3304 22.2322C88.314 22.211 88.2928 22.194 88.2684 22.1827C88.2441 22.1715 88.2174 22.1662 88.1906 22.1675H85.5223C85.4816 22.1676 85.4422 22.1821 85.411 22.2082C85.3797 22.2343 85.3586 22.2705 85.3512 22.3106L83.0458 34.1613C83.0441 34.1705 83.0441 34.18 83.0458 34.1893C83.0405 34.2109 83.0405 34.2336 83.0458 34.2552C83.0588 34.2871 83.081 34.3144 83.1095 34.3336C83.1381 34.3529 83.1717 34.3633 83.2061 34.3635H85.9061C85.9377 34.3624 85.9687 34.354 85.9966 34.3391C86.0355 34.3145 86.0631 34.2756 86.0735 34.2308L86.8964 30.0483C87.6221 26.2142 89.687 24.6806 91.2038 24.6806C91.566 24.6735 91.9247 24.7524 92.2503 24.9108L92.2544 24.8967ZM68.9331 17.4167C67.9837 17.4167 67.2138 18.1861 67.2138 19.1354C67.2138 20.0843 67.9836 20.8536 68.9331 20.8536C69.8829 20.8536 70.6526 20.0844 70.6526 19.1354C70.6725 18.2055 69.9339 17.4361 69.0035 17.4167C68.9801 17.4163 68.9566 17.4163 68.9331 17.4167ZM92.4114 31.1496C91.4577 31.1537 90.6875 31.9294 90.6918 32.8821C90.693 33.1772 90.7699 33.4671 90.9152 33.724C91.0604 33.9809 91.2692 34.1963 91.5216 34.3496C91.7923 34.5027 92.0981 34.5831 92.4092 34.5831C92.7203 34.5831 93.0261 34.5027 93.2969 34.3496C94.112 33.8546 94.3711 32.7932 93.8758 31.9791C93.7228 31.7276 93.5079 31.5193 93.2516 31.3741C92.9952 31.2289 92.706 31.1516 92.4114 31.1496Z" fill="#5F4D40" fill-opacity="0.5"/>
</svg>
