<svg width="105" height="53" viewBox="0 0 105 53" fill="none" xmlns="http://www.w3.org/2000/svg">
<path d="M35.8099 32.6344C32.2768 32.6344 29.5712 29.9743 29.5712 26.2617C29.5712 22.5491 32.2422 19.8929 35.8638 19.8929C36.5664 19.8665 37.2669 19.9838 37.9227 20.2376C38.5784 20.4915 39.1757 20.8766 39.6779 21.3694V20.1011H41.7677V24.4845H39.4315C39.1887 23.7725 38.7214 23.1589 38.1001 22.7361C37.4789 22.3133 36.7372 22.1043 35.987 22.1405C33.6778 22.1405 32.1383 23.8985 32.1383 26.2579C32.1383 28.8293 33.8433 30.3791 36.0409 30.3791C37.7612 30.3791 38.9235 29.3574 39.2545 28.3165H36.0216V26.3118H41.7677V32.4223H39.7818V30.7145C39.3179 31.3257 38.7162 31.8183 38.0259 32.152C37.3356 32.4857 36.5762 32.651 35.8099 32.6344Z" fill="#AAA19A"/>
<path d="M43.0844 32.4215V30.5903H43.8926V26.1915H43.0844V24.3603H46.1056V25.7173C46.2462 25.2774 46.5274 24.896 46.9057 24.632C47.2841 24.3679 47.7386 24.2359 48.1993 24.2562C48.4118 24.2526 48.6239 24.2759 48.8305 24.3256V26.6117H47.8645C46.7099 26.6117 46.1788 27.1592 46.1788 28.5663V30.5903H47.1602V32.4215H43.0844Z" fill="#AAA19A"/>
<path d="M52.256 32.634C50.4125 32.634 49.3772 31.4196 49.3772 30.0972C49.3772 28.5551 50.501 27.6183 52.2907 27.6183H53.8571C54.2419 27.6183 54.4344 27.4063 54.4344 27.1056V27.0169C54.4344 26.5427 54.0688 26.1032 53.2067 26.1032C52.9244 26.0903 52.6441 26.1553 52.3963 26.2913C52.1485 26.4273 51.9429 26.629 51.8019 26.8743H49.9545V24.3607H51.9251V24.9081C52.175 24.6607 52.4713 24.4653 52.7969 24.3329C53.1226 24.2006 53.4711 24.1341 53.8224 24.1371C55.4389 24.1371 56.7205 24.9814 56.7205 27.1133V30.583H57.521V32.4142H54.4421V31.6046C54.0149 32.2831 53.0643 32.634 52.256 32.634ZM54.4344 29.5498V28.9715C54.2309 29.1153 53.9809 29.1772 53.7339 29.145H52.8718C52.1521 29.145 51.7172 29.465 51.7172 30.0278C51.7172 30.5907 52.1598 30.9762 52.8718 30.9762C53.6993 30.9608 54.4421 30.5406 54.4421 29.5344L54.4344 29.5498Z" fill="#AAA19A"/>
<path d="M58.4409 32.4222V30.5909H59.2491V26.1921H58.4409V24.3609H61.4813V24.677C61.4786 24.9181 61.4619 25.1588 61.4313 25.398C61.7217 25.0149 62.0956 24.7032 62.5244 24.4868C62.9533 24.2703 63.4258 24.1548 63.906 24.1489C65.6456 24.1489 66.8926 25.2592 66.8926 27.1405V30.6102H67.7008V32.4414H63.8021V30.5909H64.6103V27.7227C64.6315 27.5341 64.6111 27.3432 64.5508 27.1634C64.4904 26.9835 64.3914 26.8191 64.2609 26.6817C64.1303 26.5443 63.9712 26.4372 63.7949 26.3679C63.6185 26.2987 63.4292 26.2689 63.2402 26.2808C62.9058 26.2953 62.5789 26.385 62.2838 26.5431C61.9887 26.7013 61.7328 26.9239 61.5352 27.1945V30.5909H62.5243V32.4222H58.4409Z" fill="#AAA19A"/>
<path d="M71.5347 32.6339C69.7951 32.6339 68.6713 31.5236 68.6713 29.6422V26.1726H67.8592V24.3606H70.9381V29.0794C70.9381 30.101 71.4654 30.5212 72.1851 30.5212C72.512 30.5069 72.8312 30.4169 73.1177 30.2584C73.4041 30.0999 73.65 29.8771 73.8362 29.6075V26.1918H72.5315V24.3606H76.1531V30.5906H76.9613V32.4218H73.9209V32.1057C73.9209 31.913 73.9401 31.6816 73.9555 31.4002C73.673 31.7776 73.3079 32.085 72.8882 32.2989C72.4686 32.5128 72.0055 32.6274 71.5347 32.6339Z" fill="#AAA19A"/>
<path d="M77.8767 32.4222V30.591H78.6887V21.9322H77.8805V20.101H80.9594V30.591H81.7677V32.4222H77.8767Z" fill="#AAA19A"/>
<path d="M85.4658 32.6339C83.6223 32.6339 82.5831 31.4196 82.5831 30.0972C82.5831 28.5551 83.707 27.6183 85.5004 27.6183H87.063C87.4479 27.6183 87.6442 27.4063 87.6442 27.1056V27.0169C87.6442 26.5427 87.2593 26.1032 86.4164 26.1032C86.1339 26.0917 85.8535 26.1573 85.6054 26.2931C85.3573 26.429 85.1507 26.6298 85.0078 26.8743H83.1643V24.3607H85.131V24.9081C85.3811 24.6609 85.6774 24.4655 86.003 24.3332C86.3286 24.2009 86.677 24.1343 87.0284 24.1371C88.6448 24.1371 89.9303 24.9814 89.9303 27.1133V30.583H90.7385V32.4142H87.6595V31.6046C87.2246 32.2831 86.274 32.6339 85.4658 32.6339ZM87.6442 29.5498V28.9715C87.4393 29.1155 87.188 29.1774 86.9398 29.145H86.0816C85.3619 29.145 84.927 29.465 84.927 30.0278C84.927 30.5907 85.3657 30.9762 86.0816 30.9762C86.9052 30.9608 87.6442 30.5406 87.6442 29.5344V29.5498Z" fill="#AAA19A"/>
<path d="M91.7389 32.4219V30.5907H92.5432V26.1919H91.735V24.3607H94.7562V25.7177C94.8966 25.2785 95.1772 24.8976 95.5548 24.6336C95.9323 24.3696 96.386 24.2372 96.846 24.2566C97.0598 24.253 97.2732 24.2763 97.4811 24.326V26.6121H96.5151C95.3605 26.6121 94.8255 27.1596 94.8255 28.5667V30.5907H95.8108V32.4219H91.7389Z" fill="#AAA19A"/>
<path d="M7.13672 25.6746V18.0684H23.5078V25.6746H7.13672ZM7.13672 34.4564V26.8474H14.7351V34.4564H7.13672ZM19.9988 30.3601V26.8474H23.5078V30.3601H19.9988ZM15.9067 34.4564V31.5301H23.5051V34.4564H15.9067Z" fill="#AAA19A"/>
</svg>
