<svg width="74" height="53" viewBox="0 0 74 53" fill="none" xmlns="http://www.w3.org/2000/svg">
<path d="M4.80993 32.6344C1.27684 32.6344 -1.42877 29.9743 -1.42877 26.2617C-1.42877 22.5491 1.24221 19.8929 4.86381 19.8929C5.56635 19.8665 6.2669 19.9838 6.92266 20.2376C7.57843 20.4915 8.17565 20.8766 8.67785 21.3695V20.1011H10.7677V24.4845H8.43153C8.18872 23.7725 7.72145 23.1589 7.10015 22.7361C6.47885 22.3133 5.7372 22.1043 4.98697 22.1405C2.67776 22.1405 1.13829 23.8985 1.13829 26.2579C1.13829 28.8293 2.84326 30.3791 5.04085 30.3791C6.76121 30.3791 7.92351 29.3574 8.25449 28.3165H5.02161V26.3118H10.7677V32.4223H8.78176V30.7145C8.31792 31.3257 7.71624 31.8183 7.02592 32.152C6.3356 32.4857 5.57624 32.651 4.80993 32.6344Z" fill="#5F4D40" fill-opacity="0.5"/>
<path d="M12.0844 32.4215V30.5903H12.8926V26.1915H12.0844V24.3603H15.1056V25.7173C15.2462 25.2774 15.5274 24.896 15.9057 24.632C16.2841 24.3679 16.7386 24.2359 17.1993 24.2562C17.4118 24.2526 17.6239 24.2759 17.8305 24.3256V26.6117H16.8645C15.7099 26.6117 15.1788 27.1592 15.1788 28.5663V30.5903H16.1602V32.4215H12.0844Z" fill="#5F4D40" fill-opacity="0.5"/>
<path d="M21.256 32.634C19.4125 32.634 18.3772 31.4196 18.3772 30.0972C18.3772 28.5551 19.501 27.6183 21.2907 27.6183H22.8571C23.2419 27.6183 23.4344 27.4063 23.4344 27.1056V27.0169C23.4344 26.5427 23.0688 26.1032 22.2067 26.1032C21.9244 26.0903 21.6441 26.1553 21.3963 26.2913C21.1485 26.4273 20.9429 26.629 20.8019 26.8743H18.9545V24.3607H20.925V24.9081C21.175 24.6607 21.4713 24.4653 21.7969 24.3329C22.1226 24.2006 22.4711 24.1341 22.8224 24.1371C24.4389 24.1371 25.7205 24.9814 25.7205 27.1133V30.583H26.521V32.4142H23.4421V31.6046C23.0149 32.2831 22.0643 32.634 21.256 32.634ZM23.4344 29.5498V28.9715C23.2309 29.1153 22.9809 29.1772 22.7339 29.145H21.8718C21.1521 29.145 20.7172 29.465 20.7172 30.0278C20.7172 30.5907 21.1598 30.9762 21.8718 30.9762C22.6993 30.9608 23.4421 30.5406 23.4421 29.5344L23.4344 29.5498Z" fill="#5F4D40" fill-opacity="0.5"/>
<path d="M27.4409 32.4222V30.5909H28.2491V26.1921H27.4409V24.3609H30.4813V24.677C30.4786 24.9181 30.4619 25.1588 30.4313 25.398C30.7217 25.0149 31.0956 24.7032 31.5244 24.4868C31.9533 24.2703 32.4258 24.1548 32.906 24.1489C34.6456 24.1489 35.8926 25.2592 35.8926 27.1405V30.6102H36.7008V32.4414H32.8021V30.5909H33.6103V27.7227C33.6315 27.5341 33.6111 27.3432 33.5508 27.1634C33.4904 26.9835 33.3914 26.8191 33.2609 26.6817C33.1303 26.5443 32.9712 26.4372 32.7949 26.3679C32.6185 26.2987 32.4292 26.2689 32.2402 26.2808C31.9058 26.2953 31.5789 26.385 31.2838 26.5431C30.9887 26.7013 30.7328 26.9239 30.5352 27.1945V30.5909H31.5243V32.4222H27.4409Z" fill="#5F4D40" fill-opacity="0.5"/>
<path d="M40.5347 32.6339C38.7951 32.6339 37.6713 31.5236 37.6713 29.6422V26.1726H36.8592V24.3606H39.9381V29.0794C39.9381 30.101 40.4654 30.5212 41.1851 30.5212C41.512 30.5069 41.8312 30.4169 42.1177 30.2584C42.4041 30.0999 42.65 29.8771 42.8362 29.6075V26.1918H41.5315V24.3606H45.1531V30.5906H45.9613V32.4218H42.9209V32.1057C42.9209 31.913 42.9401 31.6816 42.9555 31.4002C42.673 31.7776 42.3079 32.085 41.8882 32.2989C41.4686 32.5128 41.0055 32.6274 40.5347 32.6339Z" fill="#5F4D40" fill-opacity="0.5"/>
<path d="M46.8767 32.4222V30.591H47.6887V21.9322H46.8805V20.101H49.9594V30.591H50.7677V32.4222H46.8767Z" fill="#5F4D40" fill-opacity="0.5"/>
<path d="M54.4658 32.6339C52.6223 32.6339 51.5831 31.4196 51.5831 30.0972C51.5831 28.5551 52.707 27.6183 54.5004 27.6183H56.063C56.4479 27.6183 56.6441 27.4063 56.6441 27.1056V27.0169C56.6441 26.5427 56.2593 26.1032 55.4164 26.1032C55.1339 26.0917 54.8535 26.1573 54.6054 26.2931C54.3573 26.429 54.1507 26.6298 54.0078 26.8743H52.1643V24.3607H54.131V24.9081C54.3811 24.6609 54.6774 24.4655 55.003 24.3332C55.3286 24.2009 55.677 24.1343 56.0284 24.1371C57.6448 24.1371 58.9303 24.9814 58.9303 27.1133V30.583H59.7385V32.4142H56.6595V31.6046C56.2246 32.2831 55.274 32.6339 54.4658 32.6339ZM56.6441 29.5498V28.9715C56.4393 29.1155 56.188 29.1774 55.9398 29.145H55.0816C54.3619 29.145 53.927 29.465 53.927 30.0278C53.927 30.5907 54.3657 30.9762 55.0816 30.9762C55.9052 30.9608 56.6441 30.5406 56.6441 29.5344V29.5498Z" fill="#5F4D40" fill-opacity="0.5"/>
<path d="M60.7389 32.4219V30.5907H61.5432V26.1919H60.735V24.3607H63.7562V25.7177C63.8967 25.2785 64.1772 24.8976 64.5548 24.6336C64.9323 24.3696 65.386 24.2372 65.846 24.2566C66.0598 24.253 66.2732 24.2763 66.4811 24.326V26.6121H65.5151C64.3605 26.6121 63.8255 27.1596 63.8255 28.5667V30.5907H64.8108V32.4219H60.7389Z" fill="#5F4D40" fill-opacity="0.5"/>
<path d="M-23.8633 25.6746V18.0684H-7.49216V25.6746H-23.8633ZM-23.8633 34.4564V26.8474H-16.2649V34.4564H-23.8633ZM-11.0012 30.3601V26.8474H-7.49216V30.3601H-11.0012ZM-15.0933 34.4564V31.5301H-7.49491V34.4564H-15.0933Z" fill="#5F4D40" fill-opacity="0.5"/>
</svg>
