<svg width="105" height="53" viewBox="0 0 105 53" fill="none" xmlns="http://www.w3.org/2000/svg">
<path d="M16.2025 11.7666H14.8177C13.0509 11.7666 12.1914 12.2905 12.1914 13.2905V38.5309C12.1914 39.531 13.0509 40.0549 14.8177 40.0549H16.2025C17.9215 40.0549 18.8288 39.531 18.8288 38.5309V13.2905C18.8288 12.2905 17.9215 11.7666 16.2025 11.7666Z" fill="#5F4D40" fill-opacity="0.5"/>
<path d="M40.6988 37.007C40.6988 34.0067 42.6566 31.4351 45.3784 30.5778C45.7127 29.1968 45.8559 27.6252 45.8559 25.9584C45.8559 16.7671 41.2241 11.7666 32.8676 11.7666H23.9382C22.6966 11.7666 22.1236 12.3381 22.1236 13.5763V38.1976C22.1236 39.4358 22.6966 40.0073 23.9382 40.0073H32.8676C36.067 40.0073 38.6933 39.2929 40.7466 37.8642C40.6988 37.6261 40.6988 37.2927 40.6988 37.007ZM32.8676 34.3877H28.761V17.4338H32.8676C38.0248 17.4338 39.0753 22.0532 39.0753 25.9107C39.0753 29.7682 38.0248 34.3877 32.8676 34.3877Z" fill="#5F4D40" fill-opacity="0.5"/>
<path d="M47.4795 40.1025C49.1937 40.1025 50.5833 38.7166 50.5833 37.007C50.5833 35.2974 49.1937 33.9115 47.4795 33.9115C45.7653 33.9115 44.3757 35.2974 44.3757 37.007C44.3757 38.7166 45.7653 40.1025 47.4795 40.1025Z" fill="#5F4D40" fill-opacity="0.5"/>
<path d="M91.5061 32.6256C91.4106 32.578 91.3151 32.578 91.2196 32.578C90.7898 32.578 90.5033 32.7209 90.2645 33.1495C90.1213 33.3876 89.978 33.6257 89.8348 33.9115C89.2618 34.8639 88.6887 35.864 87.8292 36.5784C86.6832 37.5308 85.0119 38.0071 83.5794 37.7213C82.7198 37.5785 82.1468 36.9594 81.7648 36.4831C81.0963 35.5783 80.8098 34.3877 80.8576 33.0066C82.9586 32.8161 89.2618 31.9113 89.787 27.149C89.8825 26.2441 89.6438 25.3869 89.023 24.7202C88.259 23.8629 87.0652 23.4343 85.6327 23.4343C81.4306 23.4343 77.2762 27.8157 76.751 32.8161C76.6077 34.1972 76.7987 35.4354 77.2762 36.5784C76.8942 36.9117 76.56 37.1499 76.2257 37.2927C75.8914 37.4832 75.5572 37.4832 75.3662 37.388C75.0797 37.2451 74.9842 36.9594 74.9364 36.6736C74.7932 35.7688 74.9842 34.7211 75.2229 33.6257C75.3662 33.0066 75.5572 32.3399 75.7004 31.7208C76.2257 29.9111 76.751 28.0538 76.56 26.1489C76.4167 24.4344 75.1752 23.3391 73.3606 23.3391C70.8298 23.3391 69.1585 25.1488 68.108 26.6727C68.108 25.5298 67.8215 24.6725 67.2962 24.1487C66.771 23.6248 66.0547 23.3391 65.0519 23.3391C62.5689 23.3391 60.9453 25.0535 59.847 26.5775C59.847 26.4346 59.8948 26.2917 59.8948 26.1489C59.9426 25.4821 59.9903 24.5773 59.465 24.0058C59.1785 23.6724 58.701 23.482 58.0803 23.482C57.555 23.482 57.4117 23.482 56.8387 23.5772C56.8387 23.5772 56.2657 23.6724 56.0747 23.8629C55.6927 24.1963 55.8359 24.6725 55.8837 24.9583C55.8837 25.0059 55.8837 25.0059 55.8837 25.0535C55.9314 25.2916 55.9314 25.625 55.9314 25.9584C55.8359 27.7681 55.5017 29.5777 55.2152 31.1493C55.0242 31.9589 54.8332 32.8161 54.6422 33.6734C54.2124 35.5307 53.7826 37.4356 53.5439 39.3405C53.4961 39.531 53.5916 39.7215 53.6871 39.8644C53.8304 40.0073 54.0214 40.1025 54.2124 40.1025H54.3557C55.7404 40.1025 57.0775 40.0549 57.364 39.2929C57.6982 38.4357 57.8892 37.388 58.0803 36.4831L58.1758 36.0545C58.5578 33.9591 58.9398 32.4351 59.656 30.4826C60.0381 29.4825 60.7066 28.5777 61.2318 27.9109C61.9003 27.1013 62.6166 26.2917 63.3806 26.2917C63.7149 26.2917 63.9059 26.387 64.0969 26.5775C64.8609 27.6252 63.9059 30.9588 63.4761 32.3399C63.3806 32.6256 63.3329 32.9114 63.2851 33.1019L62.9986 34.1972C62.5689 35.8164 62.1391 37.4356 61.9481 39.15C61.9481 39.3405 61.9003 39.4834 61.9003 39.6739V39.912L62.0914 40.0549C62.4256 40.3406 64.9564 39.9596 64.9564 39.9596C65.8637 39.6263 66.1024 38.7691 66.1502 38.4833C66.3412 37.7213 66.4845 37.007 66.6277 36.245V36.1974C66.9142 34.8163 67.2007 33.3876 67.6305 32.0542C68.4423 29.3873 69.5883 27.5776 70.9253 26.6251C71.4983 26.2441 72.1191 26.1965 72.3578 26.5298C72.8354 27.1013 72.5489 28.6729 72.4056 29.3396C72.2146 30.2445 72.0236 31.1969 71.7848 32.1018V32.1494C71.6416 32.7209 71.4983 33.2924 71.3551 33.9115C70.9731 35.7212 70.6388 37.9595 71.6416 39.2453C72.1668 39.912 72.9786 40.2454 74.0291 40.2454C75.1752 40.2454 76.2257 39.8644 77.3717 39.0548C77.706 38.8167 77.9925 38.5786 78.3745 38.2452C79.6638 39.7215 81.1441 40.3406 83.2451 40.3406C88.0202 40.3406 90.2645 37.1499 91.5538 34.7687C91.6971 34.483 91.8881 34.102 91.9836 33.8162C92.1268 33.2924 91.9358 32.8161 91.5061 32.6256ZM85.6327 26.6251C85.6327 26.7203 85.6327 26.768 85.6327 26.8632C85.6327 26.9585 85.6327 27.1013 85.6327 27.1966C85.5849 27.5776 85.5372 27.9586 85.3939 28.2919C84.7254 30.4826 82.7676 30.9112 81.1441 30.9588C81.3828 30.0064 81.7171 29.0539 82.0991 28.2443C82.9109 26.5775 83.9136 25.5774 84.7731 25.5774C84.8687 25.5774 84.9164 25.5774 85.0119 25.625C85.0597 25.625 85.0597 25.6726 85.1074 25.6726H85.2029C85.2507 25.6726 85.2507 25.7203 85.2984 25.7679L85.3462 25.8155C85.3462 25.8155 85.3462 25.8155 85.3939 25.8631C85.3939 25.9107 85.4417 25.9107 85.4417 25.9584L85.4894 26.006C85.4894 26.0536 85.5372 26.0536 85.5372 26.1012C85.5372 26.1012 85.5372 26.1489 85.5849 26.1965C85.5849 26.2441 85.6327 26.2917 85.6327 26.387V26.4346C85.6327 26.4822 85.6804 26.5775 85.6804 26.6727L85.6327 26.6251Z" fill="#5F4D40" fill-opacity="0.5"/>
</svg>
