<svg width="105" height="53" viewBox="0 0 105 53" fill="none" xmlns="http://www.w3.org/2000/svg">
<path d="M61.4489 13.5235H55.5881V38.7868H73.5911V33.8667H61.4489V13.5235Z" fill="#5F4D40" fill-opacity="0.5"/>
<path d="M91.2549 29.1577V33.5743C90.3757 33.9089 88.6613 34.2435 87.0285 34.2435C81.7518 34.2435 79.9934 31.5732 79.9934 26.1544C79.9934 20.9857 81.667 17.9417 86.9422 17.9417C89.8749 17.9417 91.5469 18.8595 92.9285 20.6105L96.5724 17.2757C94.3525 14.1082 90.4589 13.1499 86.8166 13.1499C78.6118 13.1499 74.2991 17.6103 74.2991 26.1137C74.2991 34.5781 78.1927 39.1636 86.7742 39.1636C90.7101 39.1636 94.5613 38.163 96.654 36.7043V24.4471H86.4822V29.1577H91.2549Z" fill="#5F4D40" fill-opacity="0.5"/>
<path d="M27.1935 6.72266C16.3575 6.72266 7.57031 15.4669 7.57031 26.2607C7.57031 37.0498 16.3575 45.8018 27.1935 45.8018C38.0311 45.8018 46.8167 37.0483 46.8167 26.2607C46.8182 15.4669 38.0326 6.72266 27.1935 6.72266ZM31.8814 33.2867V34.8141H26.4148V17.6853H27.9738V33.2867H31.8814ZM38.8113 37.8159C35.7028 40.9083 31.5769 42.6062 27.1935 42.6062C22.8117 42.6062 18.6858 40.9083 15.5756 37.8159C12.4765 34.7297 10.7746 30.6226 10.7746 26.256C10.7746 17.2382 18.1426 9.89952 27.1935 9.89952C27.3835 9.89952 27.7744 9.90421 27.9722 9.91203V11.4364C27.7932 11.4317 27.3725 11.427 27.1935 11.427C23.2199 11.427 19.4833 12.9685 16.6683 15.7717C13.8534 18.5718 12.3054 22.2943 12.3054 26.256C12.3054 30.2177 13.8549 33.9402 16.6683 36.7387C19.4833 39.5388 23.2183 41.0803 27.1935 41.0803C35.0669 41.0803 41.5321 34.9642 42.0533 27.2519V27.0314H31.8893V25.5118H42.9561L43.6123 25.5087V26.2544C43.6139 30.6226 41.912 34.7297 38.8113 37.8159ZM23.2858 20.0195C23.2858 21.3093 22.2308 22.36 20.9293 22.36C19.6356 22.36 18.5806 21.3093 18.5806 20.0195C18.5806 18.725 19.6356 17.6744 20.9293 17.6744C22.2308 17.676 23.2858 18.7266 23.2858 20.0195Z" fill="#5F4D40" fill-opacity="0.5"/>
</svg>
