<svg width="105" height="53" viewBox="0 0 105 53" fill="none" xmlns="http://www.w3.org/2000/svg">
<path d="M19.6669 25.7195L18.5647 24.707L11.5907 31.3781L11.5934 18L2 27.1097L3.10755 28.1197L10.0843 21.4717L10.0627 34.8421L19.6669 25.7195Z" fill="#5F4D40" fill-opacity="0.5"/>
<path d="M16.8239 23.1035L12.6767 27.0763L12.682 28.6773L17.6808 23.9181L16.8239 23.1035Z" fill="#5F4D40" fill-opacity="0.5"/>
<path d="M12.6982 25.388L15.94 22.2966L15.0858 21.4769L12.6955 23.7357L12.6982 25.388Z" fill="#5F4D40" fill-opacity="0.5"/>
<path d="M13.3665 19.9042L12.6874 20.5338V22.1733L14.2315 20.7034L13.3665 19.9042Z" fill="#5F4D40" fill-opacity="0.5"/>
<path d="M8.99022 24.0492L3.92137 28.8829L4.77561 29.7L8.98483 25.6527L8.99022 24.0492Z" fill="#5F4D40" fill-opacity="0.5"/>
<path d="M9.03872 27.2331L5.64063 30.4787L6.51912 31.2727L9.04411 28.8649L9.03872 27.2331Z" fill="#5F4D40" fill-opacity="0.5"/>
<path d="M8.25455 32.9019L9.02795 32.149V30.5326L7.39761 32.0848L8.25455 32.9019Z" fill="#5F4D40" fill-opacity="0.5"/>
<path d="M25.3852 21.518H28.9854C31.0873 21.518 32.3592 22.7052 32.3592 24.4218V24.4449C32.3592 26.3902 30.772 27.3976 28.7967 27.3976H27.3227V29.9185H25.3852V21.518ZM28.8587 25.7555C29.8288 25.7555 30.3947 25.203 30.3947 24.4835V24.4603C30.3947 23.6329 29.7911 23.1883 28.821 23.1883H27.3227V25.7581H28.8587V25.7555Z" fill="#5F4D40" fill-opacity="0.5"/>
<path d="M34.7575 21.518H36.6951V29.921H34.7575V21.518Z" fill="#5F4D40" fill-opacity="0.5"/>
<path d="M39.5246 21.518H41.6508L43.9386 26.3003L46.2265 21.518H48.3014L43.9386 29.921H43.9305L39.5273 21.518H39.5246Z" fill="#5F4D40" fill-opacity="0.5"/>
<path d="M50.15 25.7067V25.6835C50.15 23.3553 52.0768 21.4486 54.7258 21.4486C57.3747 21.4486 59.2772 23.3322 59.2772 25.6604V25.6835C59.2772 28.0117 57.3505 29.9185 54.7015 29.9185C52.0526 29.9185 50.15 28.0349 50.15 25.7067ZM57.2696 25.7786V25.7555C57.2696 24.3267 56.1728 23.1369 54.6234 23.1369C53.0739 23.1369 52.004 24.3036 52.004 25.7298V25.7529C52.004 27.1817 53.1008 28.3715 54.6503 28.3715C56.1998 28.3715 57.2696 27.2048 57.2696 25.7786Z" fill="#5F4D40" fill-opacity="0.5"/>
<path d="M64.1493 23.1857H61.4681V21.482H68.7682V23.1857H66.0869V29.8851H64.1493V23.1857Z" fill="#5F4D40" fill-opacity="0.5"/>
<path d="M82.2878 21.5C83.2956 21.5 84.0879 21.7647 84.5918 22.2452C84.9933 22.6281 85.1955 23.0984 85.1955 23.674V23.6971C85.1955 24.6454 84.6673 25.1747 84.0367 25.5088C85.0553 25.8814 85.6859 26.4442 85.6859 27.5723V27.5954C85.6859 29.1321 84.3762 29.9005 82.3875 29.9005H78.1945V21.5H82.2878ZM81.8728 24.8972C82.7297 24.8972 83.2714 24.6325 83.2714 24.0081V23.9849C83.2714 23.4324 82.8187 23.1215 81.9995 23.1215H80.0862V24.8972H81.8728ZM82.3902 28.2815C83.2471 28.2815 83.7618 27.9937 83.7618 27.3693V27.3462C83.7618 26.7808 83.3199 26.4339 82.3255 26.4339H80.0862V28.2815H82.3902Z" fill="#5F4D40" fill-opacity="0.5"/>
<path d="M88.254 21.5H90.1915V29.9031H88.254V21.5Z" fill="#5F4D40" fill-opacity="0.5"/>
<path d="M92.8728 25.6912V25.6681C92.8728 23.3399 94.7996 21.4332 97.4485 21.4332C100.097 21.4332 102 23.3168 102 25.645V25.6681C102 27.9963 100.073 29.9031 97.4243 29.9031C94.7753 29.9031 92.8728 28.0194 92.8728 25.6912ZM100.027 25.6912V25.6681C100.027 24.265 98.9468 23.0932 97.427 23.0932C95.9071 23.0932 94.8508 24.2393 94.8508 25.645V25.6681C94.8508 27.0712 95.9314 28.243 97.4512 28.243C98.9711 28.243 100.027 27.0969 100.027 25.6912Z" fill="#5F4D40" fill-opacity="0.5"/>
</svg>
