<svg width="105" height="53" viewBox="0 0 105 53" fill="none" xmlns="http://www.w3.org/2000/svg">
<path d="M37.0201 31.2566C36.467 31.2566 36.3581 30.8507 36.3581 30.1494V23.1289C36.3581 20.7383 35.0091 19.3107 32.7465 19.3107C30.0467 19.3107 28.819 21.388 28.7994 23.4458V23.5312H30.5945V23.4458C30.5838 22.7124 30.8354 22.0288 31.2833 21.5732C31.6509 21.2011 32.1219 21.0035 32.6501 21.0035C33.7279 21.0035 34.3721 21.8473 34.3721 23.2606V23.9157L32.204 24.9428C29.7451 26.0891 28.1338 27.0236 28.1338 29.4427C28.1338 31.5681 29.4739 32.9939 31.4689 32.9939C32.6002 32.9939 33.6797 32.4367 34.5237 31.4186C34.811 32.4225 35.5587 32.9939 36.599 32.9939C36.9648 32.9939 37.352 32.9138 37.7214 32.7625L37.7732 32.7411V31.0127L37.65 31.0803C37.4716 31.1782 37.2592 31.2744 37.0183 31.2566H37.0201ZM34.3739 29.7507C33.8849 30.541 32.9392 31.3331 31.9132 31.3331C30.8104 31.3331 30.1252 30.614 30.1252 29.457C30.1252 27.8425 31.5402 26.9845 32.7715 26.4149L34.3739 25.6672V29.7507Z" fill="#AAA19A"/>
<path d="M47.1288 15.4267H45.1445L45.0749 19.5724H43.3494V21.3631H45.1445V29.9696C45.1445 31.9009 46.0492 32.9654 47.6909 32.9654C48.3368 32.9654 48.9721 32.7856 49.6359 32.4136L49.6787 32.3887V30.6033L49.5413 30.7154C49.1166 31.0625 48.633 31.253 48.1798 31.253C47.3108 31.253 47.127 30.5303 47.127 29.9251V21.3631H49.9606V19.5724H47.127V15.4267H47.1288Z" fill="#AAA19A"/>
<path d="M24.0779 29.6189C23.3302 30.7012 22.4701 31.2975 21.6546 31.2975C20.5858 31.2975 20.2039 30.2508 20.2039 29.2718V19.5724H18.2197V29.3323C18.2197 31.609 19.2582 32.9138 21.0676 32.9138C22.5558 32.9138 23.5354 32.1039 24.1242 31.3491L24.1581 32.6717H26.0585V19.5724H24.0743V29.6189H24.0779Z" fill="#AAA19A"/>
<path d="M13.9157 20.7668C13.4196 19.8501 12.506 19.3303 11.3586 19.3303C10.2112 19.3303 9.24053 19.875 8.5 20.8647C7.59531 22.0751 7.13672 23.8534 7.13672 26.1532C7.13672 31.1836 9.17272 32.9761 11.0785 32.9761C12.1562 32.9761 13.0913 32.5329 13.6873 31.7514V39.0798H15.6715V19.5724H13.9728L13.9192 20.7668H13.9157ZM13.6855 29.7898C13.1395 30.776 12.4757 31.2352 11.5995 31.2352C9.97571 31.2352 9.1531 29.5246 9.1531 26.1514C9.1531 22.7782 10.0792 21.0498 11.6941 21.0498C12.5863 21.0498 13.3679 21.6568 13.6873 22.6002V29.7898H13.6855Z" fill="#AAA19A"/>
<path d="M41.3669 13.4473H39.3827V32.766H41.3669V13.4473Z" fill="#AAA19A"/>
<path d="M61.2987 19.5724H59.3145V32.6717H61.2987V19.5724Z" fill="#AAA19A"/>
<path d="M61.2987 15.4267H59.3145V17.6891H61.2987V15.4267Z" fill="#AAA19A"/>
<path d="M53.8488 21.1246L53.7489 19.5724H51.8503V32.766H53.8346V23.2766C53.8346 23.2766 55.8902 21.2243 56.9947 21.2243L57.4248 21.2616V19.2894H56.9269C55.528 19.3463 54.7607 19.7824 53.8488 21.1246Z" fill="#AAA19A"/>
<path d="M77.3245 24.9303L77.2745 24.9997L77.3138 24.925C76.0772 24.2877 75.2028 23.7519 75.2028 22.643C75.2028 21.6817 75.8844 21.0356 76.8998 21.0356C77.4422 21.0356 77.9008 21.2243 78.2238 21.5803C78.6199 22.0164 78.8037 22.6946 78.7288 23.4386L78.7199 23.5312H80.5435L80.5471 23.4511C80.606 22.2157 80.2491 21.1264 79.5389 20.3841C78.8876 19.7023 77.9811 19.341 76.9194 19.341C74.7942 19.341 73.3096 20.7454 73.3096 22.7551C73.3096 24.9445 75.069 25.8844 76.3537 26.5697C77.6332 27.2622 78.8412 27.9172 78.8412 29.2825C78.8412 30.4342 78.0008 31.2708 76.8445 31.2708C75.5847 31.2708 74.6782 30.2135 74.6407 28.7004V28.6186H72.801V28.704C72.8617 31.3634 74.4105 33.0135 76.8445 33.0135C79.2784 33.0135 80.7362 31.4755 80.7362 29.1882C80.7362 26.7299 78.9251 25.7723 77.3262 24.9285L77.3245 24.9303Z" fill="#AAA19A"/>
<path d="M68.9181 30.7706C68.6094 31.091 68.2186 31.2548 67.7565 31.2548C66.2505 31.2548 65.4564 29.505 65.4564 26.1941C65.4564 22.8833 66.2808 21.0854 67.7761 21.0854C68.2062 21.0854 68.572 21.2367 68.8592 21.534C69.2643 21.9523 69.507 22.6643 69.5498 23.5294H71.4002C71.3788 22.1588 71.0095 21.0623 70.3153 20.3396C69.7033 19.7041 68.8735 19.3819 67.8493 19.3819C65.0442 19.3819 63.4989 21.7939 63.4989 26.1746C63.4989 30.5552 64.9978 32.9672 67.719 32.9672C69.9103 32.9672 71.2807 31.3527 71.4538 28.6186H69.6444C69.6051 29.5513 69.35 30.3185 68.9164 30.7688L68.9181 30.7706Z" fill="#AAA19A"/>
<path d="M83.5056 31.6767C83.5467 31.6037 83.5663 31.5182 83.5663 31.4221C83.5663 31.2833 83.5235 31.1729 83.4396 31.0946C83.354 31.0145 83.2326 30.9753 83.0702 30.9753H82.3636V32.3887H82.7419V31.917H83.031L83.2879 32.3887H83.6163L83.3147 31.8404C83.4021 31.8048 83.4664 31.7514 83.5074 31.6784L83.5056 31.6767ZM83.2041 31.5966C83.1577 31.6215 83.0917 31.6357 83.0024 31.6357H82.7419V31.2584H83.0024C83.0899 31.2584 83.1577 31.2744 83.2041 31.3046C83.2505 31.3349 83.2737 31.3865 83.2737 31.4577C83.2737 31.5289 83.2505 31.5716 83.2041 31.5983V31.5966Z" fill="#AAA19A"/>
<path d="M83.8411 30.7795C83.7287 30.6709 83.5949 30.5855 83.4432 30.5232C83.2897 30.4627 83.1256 30.4324 82.9471 30.4324C82.7687 30.4324 82.6045 30.4627 82.4528 30.5232C82.2994 30.5837 82.1655 30.6692 82.0531 30.7795C81.9407 30.8899 81.8515 31.0198 81.7873 31.1729C81.723 31.326 81.6909 31.4951 81.6909 31.682C81.6909 31.8689 81.723 32.038 81.7873 32.1929C81.8515 32.3477 81.9407 32.4795 82.0531 32.5916C82.1655 32.702 82.2994 32.7892 82.4528 32.8497C82.6063 32.9102 82.7705 32.9405 82.9471 32.9405C83.1238 32.9405 83.2897 32.9102 83.4432 32.8497C83.5966 32.7892 83.7287 32.7037 83.8411 32.5916C83.9535 32.4812 84.0427 32.3477 84.107 32.1929C84.1712 32.0398 84.2033 31.8689 84.2033 31.682C84.2033 31.4951 84.1712 31.326 84.107 31.1729C84.0427 31.0198 83.9535 30.8899 83.8411 30.7795ZM83.8661 32.0932C83.8143 32.2178 83.7447 32.3246 83.6555 32.4136C83.5681 32.5044 83.4628 32.5738 83.3415 32.6201C83.2201 32.6681 83.0917 32.6931 82.9578 32.6931C82.824 32.6931 82.6902 32.6681 82.5688 32.6201C82.4475 32.572 82.3422 32.5026 82.2548 32.4136C82.1656 32.3228 82.096 32.216 82.0442 32.0932C81.9925 31.9704 81.9675 31.8315 81.9675 31.682C81.9675 31.5325 81.9925 31.399 82.0442 31.2744C82.096 31.1498 82.1656 31.043 82.2548 30.954C82.3422 30.8632 82.4475 30.7955 82.5688 30.7475C82.6902 30.6994 82.8186 30.6745 82.9578 30.6745C83.097 30.6745 83.2201 30.6994 83.3415 30.7475C83.4628 30.7955 83.5663 30.865 83.6555 30.954C83.7447 31.0447 83.8143 31.1515 83.8661 31.2744C83.9178 31.399 83.9428 31.5343 83.9428 31.682C83.9428 31.8297 83.9178 31.9704 83.8661 32.0932Z" fill="#AAA19A"/>
<path d="M95.0347 15.3323L93.327 21.3631H93.3056L91.473 15.3323H87.4652L86.077 17.7923L84.6084 15.3323H82.5492L84.9456 19.1986L82.3154 23.5312H84.2658L85.9431 20.6796L87.6794 23.5312H90.7717V17.876H90.7931C90.836 18.1128 90.877 18.3157 90.9145 18.4848C90.952 18.6539 90.9894 18.8087 91.0251 18.9529C91.0608 19.0971 91.1001 19.2324 91.1411 19.3623C91.1821 19.4923 91.225 19.6329 91.2678 19.7878L92.4812 23.533H94.1157L95.3148 19.7913C95.4023 19.4905 95.4843 19.2004 95.5611 18.9209C95.636 18.6414 95.702 18.3264 95.7591 17.9739H95.7806V23.5348H97.4811V15.3323H95.0347ZM89.073 22.659L86.9388 19.195L89.073 15.6616V22.659Z" fill="#AAA19A"/>
</svg>
