<svg width="71" height="53" viewBox="0 0 71 53" fill="none" xmlns="http://www.w3.org/2000/svg">
<path d="M27.156 15.2331V17.1082C27.156 17.4144 26.9394 17.6317 26.6344 17.6317H24.7663C24.4629 17.6317 24.2448 17.4144 24.2448 17.1082V15.2331C24.2448 14.9286 24.4613 14.7096 24.7663 14.7096H26.6344C26.9394 14.7096 27.156 14.9286 27.156 15.2331ZM70.1539 20.1158C65.9424 20.1158 62.7277 23.2534 62.7277 27.3953C62.7277 31.6227 65.9424 34.8048 70.1539 34.8048C74.3658 34.8048 77.5804 31.6227 77.5804 27.3953C77.5804 23.2551 74.3658 20.1158 70.1539 20.1158ZM70.1539 32.3207C67.461 32.3207 65.4635 30.184 65.4635 27.3953C65.4635 24.6478 67.461 22.5999 70.1539 22.5999C72.8472 22.5999 74.8447 24.6478 74.8447 27.3953C74.843 30.1856 72.8455 32.3207 70.1539 32.3207ZM61.1237 27.3953C61.1237 31.6227 57.9535 34.8048 53.6975 34.8048C51.7869 34.8048 50.1369 33.8896 49.0067 32.6681V33.9324C49.0067 34.2369 48.746 34.4987 48.4426 34.4987H46.9223C46.6189 34.4987 46.3582 34.2369 46.3582 33.9324V15.2315C46.3582 14.927 46.5747 14.708 46.8354 14.708H48.5295C48.7904 14.708 49.0067 14.927 49.0067 15.2315V22.1192C50.1352 20.9422 51.8293 20.1158 53.6975 20.1158C57.9535 20.1158 61.1237 23.2551 61.1237 27.3953ZM58.4307 27.3953C58.4307 24.6478 56.3887 22.5999 53.6975 22.5999C51.0045 22.5999 49.0067 24.6478 49.0067 27.3953C49.0067 30.1856 51.0045 32.3207 53.6975 32.3207C56.3904 32.3207 58.4307 30.1856 58.4307 27.3953ZM44.49 27.3953C44.49 31.6227 41.2771 34.8048 37.0211 34.8048C35.1104 34.8048 33.4604 33.8896 32.3747 32.6681V33.9324C32.3747 34.2369 32.1139 34.4987 31.8105 34.4987H30.2475C29.9425 34.4987 29.6833 34.2369 29.6833 33.9324V15.2315C29.6833 14.927 29.8998 14.708 30.2049 14.708H31.8548C32.1582 14.708 32.3763 14.927 32.3763 15.2315V22.1192C33.5064 20.9422 35.1989 20.1158 37.0227 20.1158C41.2771 20.1158 44.49 23.2551 44.49 27.3953ZM41.7543 27.3953C41.7543 24.6478 39.7568 22.5999 37.0211 22.5999C34.3723 22.5999 32.3747 24.6478 32.3747 27.3953C32.3747 30.1856 34.3723 32.3207 37.0211 32.3207C39.7568 32.3207 41.7543 30.1856 41.7543 27.3953ZM26.554 20.4203H24.8598C24.599 20.4203 24.3826 20.6393 24.3826 20.9438V33.9768C24.3826 34.283 24.599 34.5003 24.8598 34.5003H26.554C26.8148 34.5003 27.0313 34.283 27.0313 33.9768V20.9438C27.0313 20.6393 26.8148 20.4203 26.554 20.4203ZM94.1272 25.3309C94.1272 24.8996 93.9189 24.4963 93.5696 24.2461L88.2787 20.4598C87.3602 19.803 86.1236 19.8014 85.2036 20.4566L82.0102 22.7283V20.9208C82.0102 20.6459 81.7872 20.422 81.5132 20.422H79.8536C79.5796 20.422 79.3566 20.6459 79.3566 20.9208V34.0015C79.3566 34.2764 79.5796 34.5003 79.8536 34.5003H81.5132C81.7872 34.5003 82.0102 34.2764 82.0102 34.0015V25.996L86.7369 22.6312L91.4702 26.0174V26.5689H91.4688V34.0015C91.4688 34.2764 91.6918 34.5003 91.9655 34.5003H93.6253C93.8993 34.5003 94.1224 34.2764 94.1224 34.0015V29.7296H94.1255V25.3309H94.1272ZM19.0408 20.4582C18.1191 19.7997 16.8792 19.7964 15.9542 20.4549L12.7494 22.7349V20.9191C12.7494 20.6426 12.5264 20.4187 12.2508 20.4187H10.5845C10.309 20.4187 10.0859 20.6426 10.0859 20.9191V33.9982C10.0859 34.2748 10.309 34.4987 10.5845 34.4987H12.2508C12.5264 34.4987 12.7494 34.2748 12.7494 33.9982V26.0141L17.4942 22.6361L20.7465 24.9638C20.9712 25.1252 21.2828 25.0725 21.4419 24.847L22.4095 23.4839C22.5703 23.2584 22.5178 22.9456 22.2931 22.7859L19.0408 20.4582Z" fill="#5F4D40" fill-opacity="0.5"/>
</svg>
