<svg width="105" height="53" viewBox="0 0 105 53" fill="none" xmlns="http://www.w3.org/2000/svg">
<path fill-rule="evenodd" clip-rule="evenodd" d="M41.8071 44.6676C41.8071 46.2084 41.747 46.6873 40.9811 47.2736C39.9982 46.549 39.2293 45.4148 38.6226 44.2596L35.3653 37.9494L36.8997 36.4536C37.9748 35.4708 38.8811 34.8326 40.5179 34.3046C41.6571 34.9883 41.8071 35.408 41.8071 37.188V44.6676ZM88.2093 44.6677V38.6023C88.2093 35.9639 86.9441 33.8969 84.0366 33.8969C81.7564 33.8969 80.2248 35.2477 79.6014 37.6794C79.3293 35.4977 78.0429 33.8969 75.4846 33.8969C73.2037 33.8969 71.6718 35.2486 71.0488 37.6818C70.7773 35.4987 69.491 33.8969 66.9317 33.8969C64.6434 33.8969 63.1089 35.2569 62.4898 37.7047C62.2475 35.5018 60.9015 33.8969 58.3708 33.8969C56.0825 33.8969 54.5751 35.2569 53.9558 37.7047V34.1691H47.7101V34.2233C48.9754 34.9578 49.137 35.3385 49.137 37.188V44.6677C49.137 46.4578 49.0564 46.8144 47.8815 47.5717C46.7066 46.8144 46.6259 46.4578 46.6259 44.6677V34.1691H35.4998V34.2233C36.0382 34.4138 36.3882 34.8217 36.3882 35.3385C36.4151 35.8008 36.1459 36.3449 35.5267 36.9431L33.1308 39.2552C32.4308 39.9351 31.9731 40.044 31.2194 40.044H30.7079V27.2603H24.3007V27.3149C25.566 27.9405 25.8891 28.4571 25.8891 30.2795V44.6677C25.8891 46.463 25.8082 46.8164 24.6506 47.5781V47.6324H31.9731V47.5781C30.7886 46.8164 30.7079 46.463 30.7079 44.6677V40.5606H31.0579C31.5155 40.5606 31.7308 40.751 32.0001 41.268L34.2076 45.7013C34.6114 46.463 34.746 47.17 34.6652 47.6324H55.2211V47.5781C54.0365 46.8164 53.9558 46.463 53.9558 44.6677V39.799C53.9558 37.3513 54.7904 36.2089 56.0556 36.2089C57.321 36.2089 57.6978 37.2153 57.6978 38.4663V44.6677C57.6978 46.463 57.6171 46.8164 56.4595 47.5781V47.6324H63.7819V47.5781C62.6243 46.8164 62.5167 46.463 62.5167 44.6677V39.799C62.5167 37.3513 63.3781 36.2089 64.6165 36.2089C65.8818 36.2089 66.2856 37.2153 66.2856 38.4663V44.6677C66.2856 46.463 66.2048 46.8164 65.0203 47.5781V47.6324H72.3697V47.5781C71.1852 46.8164 71.1045 46.463 71.1045 44.6677V38.9462L71.109 38.942C71.2909 37.0834 72.0858 36.2089 73.1695 36.2089C74.4347 36.2089 74.8385 37.2153 74.8385 38.4663V44.6677C74.8385 46.463 74.7578 46.8164 73.5732 47.5781V47.6324H80.9226V47.5781C79.7382 46.8164 79.6573 46.463 79.6573 44.6677V38.9443L79.6611 38.942C79.8429 37.0834 80.6378 36.2089 81.7214 36.2089C82.9867 36.2089 83.3905 37.2153 83.3905 38.4663V44.6677C83.3905 46.463 83.3098 46.8164 82.1252 47.5781V47.6324H89.4747V47.5781C88.2902 46.8164 88.2093 46.463 88.2093 44.6677ZM41.4571 29.926C41.4571 31.3945 42.6148 32.5371 44.1492 32.5371C45.7107 32.5371 46.8952 31.3945 46.8952 29.926C46.8952 28.457 45.7107 27.342 44.1492 27.342C42.6148 27.342 41.4571 28.457 41.4571 29.926ZM18.1083 35.5017C15.8739 34.7944 13.9356 34.0329 13.9356 31.8298C13.9356 29.9531 15.3625 28.8652 17.1661 28.8652C19.9659 28.8652 21.6889 30.9052 23.3311 33.8153H23.3849L23.2772 28.3212C22.8464 28.6747 22.3619 29.0827 21.6619 29.0827C20.5851 29.0827 19.1852 28.3212 17.1661 28.3212C13.0472 28.3212 10.2475 30.5788 10.2475 34.1145C10.2475 37.9223 12.9665 39.092 15.6317 39.9624C18.2968 40.887 20.962 41.5125 20.962 44.1236C20.962 46.218 19.5082 47.3604 17.3008 47.3604C14.6355 47.3604 11.9166 45.0756 10.1397 41.5941H10.0859L10.5705 47.9043C11.1628 47.442 11.7281 47.1157 12.455 47.1157C13.5857 47.1157 15.1201 47.9043 17.3276 47.9043C21.2042 47.9043 24.5424 45.7828 24.5424 41.9477C24.5424 37.4328 21.0697 36.4537 18.1083 35.5017ZM43.5138 11.722C45.0483 11.722 45.2636 14.0339 45.2636 17.0802H41.3601C41.414 13.8707 42.1139 11.722 43.5138 11.722ZM43.4868 25.2671C46.5558 25.2671 48.9787 23.6081 49.7595 20.6977L49.5709 20.6161C48.7364 22.3025 47.3097 23.0369 45.6675 23.0369C43.083 23.0369 41.3332 21.0241 41.3332 17.6514H49.894C49.894 14.0611 47.848 11.2596 43.5138 11.2596C39.6641 11.2596 36.4605 14.0068 36.4605 18.2771C36.4605 22.7104 39.6372 25.2671 43.4868 25.2671ZM21.7147 7.64223V22.0305C21.7147 23.8256 21.634 24.1792 20.4764 24.9407V24.9951H27.7988V24.9407C26.6143 24.1792 26.5336 23.8256 26.5336 22.0305V17.1618C26.5336 14.7139 27.5027 13.5716 28.8487 13.5716C30.1141 13.5716 30.6524 14.578 30.6524 15.8291V22.0305C30.6524 23.8256 30.5717 24.1792 29.4141 24.9407V24.9951H36.7366V24.9407C35.5521 24.1792 35.4713 23.8256 35.4713 22.0305V15.9651C35.4713 13.3268 34.1252 11.2596 31.2179 11.2596C28.9296 11.2596 27.2066 12.6196 26.5336 15.0675V4.62305H20.1264V4.67761C21.3917 5.30316 21.7147 5.81981 21.7147 7.64223ZM11.4858 20.6706C11.4589 23.7985 13.2895 25.2672 15.7662 25.2672C19.0505 25.2672 20.289 22.7104 20.6389 20.0994L20.3159 19.9906C19.9659 21.8673 19.1582 22.9553 17.9199 22.9553C16.8431 22.9553 16.3047 22.1665 16.3047 20.7794V12.2117H20.2081L20.3428 11.5318H16.3047V6.799H16.0355C15.0662 9.54614 12.8588 11.3142 10.0859 11.9124V12.2117H11.5397L11.4858 20.6706Z" fill="#5F4D40" fill-opacity="0.5"/>
<path fill-rule="evenodd" clip-rule="evenodd" d="M91.2152 27.2075C89.7703 27.2075 88.6527 28.2652 88.6527 29.7799C88.6527 31.4775 89.8357 32.1506 90.9266 32.1506C91.4808 32.1506 92.0108 31.9765 92.3502 31.6753C92.3843 31.8314 92.4075 32.0047 92.4075 32.1891C92.4075 33.6385 91.0294 34.6785 89.8329 35.0135L89.9993 35.5454C92.8442 34.9417 94.1272 32.6631 94.1272 30.6401C94.1272 28.8204 93.0888 27.2075 91.2152 27.2075Z" fill="#5F4D40" fill-opacity="0.5"/>
</svg>
