<svg width="105" height="53" viewBox="0 0 105 53" fill="none" xmlns="http://www.w3.org/2000/svg">
<path d="M36.6359 16.0263V15.2451C36.6359 15.1474 36.5626 15.0742 36.465 15.0742H30.362C30.2644 15.0742 30.1911 15.1474 30.1911 15.2451V16.0507C30.1911 16.1483 30.2644 16.2216 30.362 16.2216H32.7788V23.0081C32.7788 23.1057 32.852 23.179 32.9497 23.179H33.8529C33.9506 23.179 34.0238 23.1057 34.0238 23.0081V16.1971H36.4406C36.5626 16.1971 36.6359 16.1239 36.6359 16.0263ZM39.248 16.9539C37.5635 16.9539 36.3185 18.2966 36.3185 20.1275C36.3185 21.934 37.6124 23.301 39.3456 23.301C40.3709 23.301 41.1521 22.9593 41.8356 22.1781C41.86 22.1537 41.8845 22.1048 41.8845 22.056C41.8845 22.0072 41.86 21.9584 41.8356 21.934L41.2986 21.4701C41.2253 21.4213 41.1277 21.4213 41.0545 21.4701C40.5662 22.0072 40.0292 22.2269 39.37 22.2269C38.418 22.2269 37.71 21.5922 37.5391 20.6401H41.8845C41.9821 20.6401 42.0553 20.5669 42.0553 20.4936V20.1763C42.1042 18.2966 40.9324 16.9539 39.248 16.9539ZM37.5635 19.6148C37.7344 18.6628 38.418 18.028 39.248 18.028C40.2733 18.028 40.7371 18.8336 40.8836 19.6148H37.5635ZM45.888 17.0027C44.9604 17.0027 44.3012 17.2469 43.7398 17.491C43.6665 17.5154 43.6177 17.613 43.6421 17.7107L43.8862 18.4186C43.9107 18.4675 43.9351 18.4919 43.9839 18.5163C44.0327 18.5407 44.0815 18.5407 44.1304 18.5163C44.7407 18.2477 45.2289 18.1257 45.8148 18.1257C46.4983 18.1257 47.3039 18.3454 47.3283 19.4439C46.9133 19.3463 46.4251 19.2486 45.7416 19.2486C44.106 19.2486 43.1051 20.0298 43.1051 21.2992V21.3237C43.1051 22.5931 44.2768 23.2766 45.4242 23.2766C46.303 23.2766 46.9133 22.9593 47.3283 22.5687V23.0081C47.3283 23.1057 47.4016 23.179 47.4992 23.179H48.3536C48.4513 23.179 48.5245 23.1057 48.5245 23.0081V19.5172C48.5245 18.736 48.3048 18.1501 47.8654 17.7107C47.426 17.2224 46.7424 17.0027 45.888 17.0027ZM45.5951 22.2513C44.9848 22.2513 44.3257 21.9584 44.3257 21.2748V21.2504C44.3257 20.6401 44.9115 20.2739 45.8148 20.2739C46.4739 20.2739 46.9622 20.3716 47.3039 20.4692V20.8598C47.3527 21.6654 46.596 22.2513 45.5951 22.2513ZM54.6519 21.3969C54.6275 21.3725 54.5787 21.3481 54.5299 21.3481C54.481 21.3481 54.4322 21.3725 54.4078 21.3969C53.9196 21.9584 53.3825 22.2025 52.7722 22.2025C51.6981 22.2025 50.8437 21.2992 50.8437 20.1519V20.1275C50.8437 18.9801 51.6737 18.0769 52.7234 18.0769C53.4802 18.0769 53.944 18.4675 54.359 18.8825C54.3834 18.9069 54.4322 18.9313 54.481 18.9313C54.5299 18.9313 54.5787 18.9069 54.6031 18.8825L55.189 18.2722C55.2622 18.1989 55.2622 18.1013 55.189 18.0525C54.7252 17.5642 54.0172 16.9783 52.7722 16.9783C51.039 16.9783 49.6475 18.3942 49.6475 20.1519V20.1763C49.6475 21.9095 51.039 23.3254 52.7722 23.3254C54.0172 23.3254 54.7496 22.6907 55.2378 22.1537C55.3111 22.0804 55.2866 21.9828 55.2378 21.9095C55.2378 21.8851 54.6519 21.3969 54.6519 21.3969ZM59.3634 16.9539C58.6311 16.9539 58.0452 17.198 57.557 17.7351V14.8789C57.557 14.7812 57.4837 14.708 57.3861 14.708H56.5317C56.434 14.708 56.3608 14.7812 56.3608 14.8789V22.9837C56.3608 23.0813 56.434 23.1546 56.5317 23.1546H57.3861C57.4837 23.1546 57.557 23.0813 57.557 22.9837V19.7125C57.557 18.7604 58.1917 18.0769 59.1193 18.0769C60.0226 18.0769 60.5352 18.6628 60.5352 19.6392V22.9837C60.5352 23.0813 60.6085 23.1546 60.7061 23.1546H61.5605C61.6582 23.1546 61.7314 23.0813 61.7314 22.9837V19.4195C61.707 17.9304 60.7793 16.9539 59.3634 16.9539ZM65.6862 16.9539C64.0017 16.9539 62.7567 18.2966 62.7567 20.1275C62.7567 21.934 64.0506 23.301 65.7838 23.301C66.8091 23.301 67.5903 22.9593 68.2738 22.1781C68.2982 22.1537 68.3226 22.1048 68.3226 22.056C68.3226 22.0072 68.2982 21.9584 68.2738 21.934L67.7368 21.4701C67.6635 21.4213 67.5659 21.4213 67.4926 21.4701C67.0044 22.0072 66.4673 22.2269 65.8082 22.2269C64.8561 22.2269 64.1482 21.5922 63.9773 20.6401H68.3226C68.4203 20.6401 68.4935 20.5669 68.4935 20.4936V20.1763C68.5424 18.2966 67.3462 16.9539 65.6862 16.9539ZM64.0017 19.6148C64.1726 18.6628 64.8561 18.028 65.6862 18.028C66.7115 18.028 67.1753 18.8336 67.3218 19.6148H64.0017ZM72.9365 17.0271C72.0577 17.0027 71.1544 17.198 70.7638 17.8572V17.2469C70.7638 17.1492 70.6906 17.076 70.593 17.076H69.7385C69.6409 17.076 69.5677 17.1492 69.5677 17.2469V23.0081C69.5677 23.1057 69.6409 23.179 69.7385 23.179H70.593C70.6906 23.179 70.7638 23.1057 70.7638 23.0081V20.7378C70.7638 19.2486 71.5939 18.2233 72.8633 18.2233H72.9365C73.0342 18.2233 73.1074 18.1501 73.1074 18.0525V17.2469C73.1074 17.1248 73.0342 17.0271 72.9365 17.0271ZM76.5007 19.566C75.7927 19.3463 75.158 19.1754 75.158 18.736V18.7116C75.158 18.321 75.5242 18.0525 76.0857 18.0525C76.5739 18.0525 77.1598 18.2477 77.6969 18.5895C77.7457 18.6139 77.7701 18.6139 77.8189 18.6139C77.8677 18.6139 77.8922 18.5651 77.9166 18.5407L78.3072 17.8816C78.356 17.8083 78.3316 17.7107 78.2583 17.6619C77.6236 17.2469 76.8424 17.0027 76.1101 17.0027C74.8651 17.0027 73.9862 17.7595 73.9862 18.8336C73.9862 20.0298 75.158 20.396 76.0124 20.6157C76.7692 20.811 77.3063 21.0063 77.3063 21.4701V21.4945C77.3063 21.934 76.9157 22.2269 76.281 22.2269C75.6462 22.2269 75.0115 21.9828 74.4012 21.519C74.3768 21.4945 74.328 21.4701 74.2792 21.4945C74.2303 21.4945 74.2059 21.519 74.1571 21.5678L73.7421 22.1781C73.6933 22.2513 73.6933 22.349 73.7665 22.3978C74.4501 22.9593 75.4021 23.2766 76.2321 23.2766C77.526 23.2766 78.4536 22.4954 78.4536 21.3725V21.3481C78.478 20.1519 77.3063 19.7857 76.5007 19.566ZM58.6067 28.2567V27.4511C58.6067 27.3534 58.5334 27.2802 58.4358 27.2802H52.3328C52.2351 27.2802 52.1619 27.3534 52.1619 27.4511V28.2567C52.1619 28.3543 52.2351 28.4275 52.3328 28.4275H54.7496V35.2141C54.7496 35.3117 54.8228 35.385 54.9205 35.385H55.8237C55.9214 35.385 55.9946 35.3117 55.9946 35.2141V28.452H58.4114C58.5334 28.452 58.6067 28.3543 58.6067 28.2567ZM61.1943 29.1843C59.5099 29.1843 58.2649 30.527 58.2649 32.3579C58.2649 34.1644 59.5587 35.5314 61.292 35.5314C62.3173 35.5314 63.0985 35.1897 63.782 34.4085C63.8064 34.3841 63.8308 34.3352 63.8308 34.2864C63.8308 34.2376 63.8064 34.1888 63.782 34.1644L63.245 33.7005C63.1717 33.6517 63.0741 33.6517 63.0008 33.7005C62.5126 34.2376 61.9755 34.4573 61.3164 34.4573C60.3643 34.4573 59.6564 33.8226 59.4855 32.8705H63.8308C63.9285 32.8705 64.0017 32.7973 64.0017 32.7241V32.4067C64.0505 30.527 62.8788 29.1843 61.1943 29.1843ZM59.5343 31.8452C59.7052 30.8932 60.3888 30.2584 61.2188 30.2584C62.2441 30.2584 62.7079 31.064 62.8544 31.8452H59.5343ZM67.8344 29.2331C66.9068 29.2331 66.2476 29.4773 65.6862 29.7214C65.6129 29.7458 65.5641 29.8434 65.5885 29.9411L65.8326 30.649C65.857 30.6979 65.8815 30.7223 65.9303 30.7467C65.9791 30.7711 66.0279 30.7711 66.0767 30.7467C66.687 30.4782 67.1753 30.3561 67.7612 30.3561C68.4447 30.3561 69.2503 30.5758 69.2747 31.6743C68.8597 31.5767 68.3715 31.479 67.6879 31.479C66.0523 31.479 65.0514 32.2602 65.0514 33.5297V33.5541C65.0514 34.8235 66.2232 35.507 67.3706 35.507C68.2494 35.507 68.8597 35.1897 69.2747 34.7991V35.2141C69.2747 35.3117 69.348 35.385 69.4456 35.385H70.3C70.3977 35.385 70.4709 35.3117 70.4709 35.2141V31.7476C70.4709 30.9664 70.2512 30.3805 69.8118 29.9411C69.3724 29.4773 68.6888 29.2331 67.8344 29.2331ZM67.5659 34.4817C66.9556 34.4817 66.2965 34.1888 66.2965 33.5052V33.4808C66.2965 32.8705 66.8823 32.5043 67.7856 32.5043C68.4447 32.5043 68.9329 32.602 69.2747 32.6996V33.0902C69.2747 33.8958 68.5668 34.4817 67.5659 34.4817ZM76.5983 33.6273C76.5739 33.6029 76.5251 33.5785 76.4763 33.5785C76.4274 33.5785 76.3786 33.6029 76.3542 33.6273C75.866 34.1888 75.3289 34.4329 74.7186 34.4329C73.6445 34.4329 72.79 33.5297 72.79 32.3823V32.3579C72.79 31.2105 73.62 30.3073 74.6698 30.3073C75.4265 30.3073 75.8904 30.6979 76.3054 31.1129C76.3298 31.1373 76.3786 31.1617 76.4274 31.1617C76.4763 31.1617 76.5251 31.1373 76.5495 31.1129L77.1354 30.5026C77.2086 30.4293 77.2086 30.3317 77.1354 30.2829C76.6715 29.7946 75.9636 29.2087 74.7186 29.2087C72.9853 29.2087 71.5939 30.6246 71.5939 32.3823V32.4067C71.5939 34.14 72.9853 35.5558 74.7186 35.5558C75.9636 35.5558 76.696 34.9211 77.1842 34.3841C77.2574 34.3108 77.233 34.2132 77.1842 34.14L76.5983 33.6273ZM81.2854 29.1843C80.5531 29.1843 79.9672 29.4284 79.4789 29.9655V27.1093C79.4789 27.0117 79.4057 26.9384 79.308 26.9384H78.4536C78.356 26.9384 78.2827 27.0117 78.2827 27.1093V35.2141C78.2827 35.3117 78.356 35.385 78.4536 35.385H79.308C79.4057 35.385 79.4789 35.3117 79.4789 35.2141V31.9429C79.4789 30.9908 80.1136 30.3073 81.0413 30.3073C81.9445 30.3073 82.4572 30.8932 82.4572 31.8696V35.2141C82.4572 35.3117 82.5304 35.385 82.6281 35.385H83.4825C83.5801 35.385 83.6534 35.3117 83.6534 35.2141V31.6499C83.6534 30.1608 82.7257 29.1843 81.2854 29.1843ZM87.6325 29.1843C85.9481 29.1843 84.7031 30.527 84.7031 32.3579C84.7031 34.1644 85.9969 35.5314 87.7302 35.5314C88.7555 35.5314 89.5367 35.1897 90.2202 34.4085C90.2446 34.3841 90.269 34.3352 90.269 34.2864C90.269 34.2376 90.2446 34.1888 90.2202 34.1644L89.6831 33.7005C89.6099 33.6517 89.5123 33.6517 89.439 33.7005C88.9508 34.2376 88.4137 34.4573 87.7546 34.4573C86.8025 34.4573 86.0946 33.8226 85.9237 32.8705H90.269C90.3667 32.8705 90.4399 32.7973 90.4399 32.7241V32.4067C90.4887 30.527 89.317 29.1843 87.6325 29.1843ZM85.9725 31.8452C86.1434 30.8932 86.8269 30.2584 87.6569 30.2584C88.6823 30.2584 89.1461 31.064 89.2925 31.8452H85.9725ZM94.8829 29.2576C94.0041 29.2331 93.1008 29.4284 92.7102 30.0876V29.4773C92.7102 29.3796 92.637 29.3064 92.5393 29.3064H91.6849C91.5873 29.3064 91.514 29.3796 91.514 29.4773V35.2385C91.514 35.3361 91.5873 35.4094 91.6849 35.4094H92.5393C92.637 35.4094 92.7102 35.3361 92.7102 35.2385V32.9682C92.7102 31.479 93.5402 30.4537 94.8097 30.4537H94.8829C94.9805 30.4537 95.0538 30.3805 95.0538 30.2829V29.4773C95.0538 29.3552 94.9561 29.2576 94.8829 29.2576ZM98.4715 31.7964C97.7635 31.5767 97.1288 31.4058 97.1288 30.9664V30.942C97.1288 30.5514 97.495 30.2829 98.0565 30.2829C98.5447 30.2829 99.1306 30.4782 99.6676 30.8199C99.7165 30.8443 99.7409 30.8443 99.7897 30.8443C99.8385 30.8443 99.8629 30.7955 99.8874 30.7711L100.278 30.112C100.327 30.0387 100.302 29.9411 100.229 29.8923C99.5944 29.4773 98.8132 29.2331 98.0809 29.2331C96.8359 29.2331 95.957 29.9899 95.957 31.064C95.957 32.2602 97.1288 32.6264 97.9832 32.8461C98.74 33.0414 99.2771 33.2367 99.2771 33.7005V33.7249C99.2771 34.1644 98.8865 34.4573 98.2517 34.4573C97.617 34.4573 96.9823 34.2132 96.372 33.7494C96.3476 33.7249 96.2988 33.7005 96.25 33.7249C96.2011 33.7249 96.1767 33.7494 96.1279 33.7982L95.7129 34.4085C95.6641 34.4817 95.6641 34.5794 95.7373 34.6282C96.4209 35.1897 97.3729 35.507 98.2029 35.507C99.4968 35.507 100.424 34.7258 100.424 33.6029V33.5785C100.449 32.3823 99.2526 32.0161 98.4715 31.7964ZM33.975 27.2802H31.07C30.9723 27.2802 30.8991 27.3534 30.8991 27.4511V35.2385C30.8991 35.3361 30.9723 35.4094 31.07 35.4094H31.9488C32.0464 35.4094 32.1197 35.3361 32.1197 35.2385V32.6752H33.8529C35.7815 32.6752 37.0753 31.5767 37.0753 29.9411V29.9167C37.0509 28.3055 35.8547 27.2802 33.975 27.2802ZM33.8529 31.5279H32.0953V28.452H33.9017C35.1223 28.452 35.8303 29.0134 35.8303 29.9655V29.9899C35.8303 30.9176 35.0491 31.5279 33.8529 31.5279ZM40.3465 29.2331C39.4189 29.2331 38.7597 29.4773 38.1983 29.7214C38.125 29.7458 38.0762 29.8434 38.1006 29.9411L38.3447 30.649C38.3691 30.6979 38.3935 30.7223 38.4424 30.7467C38.4912 30.7711 38.54 30.7711 38.5888 30.7467C39.1991 30.4782 39.6874 30.3561 40.2733 30.3561C40.9568 30.3561 41.7624 30.5758 41.7868 31.6743C41.3718 31.5767 40.8836 31.479 40.2 31.479C38.5644 31.479 37.5635 32.2602 37.5635 33.5297V33.5541C37.5635 34.8235 38.7353 35.507 39.8827 35.507C40.7615 35.507 41.3718 35.1897 41.7868 34.7991V35.2141C41.7868 35.3117 41.86 35.385 41.9577 35.385H42.8121C42.9098 35.385 42.983 35.3117 42.983 35.2141V31.7476C42.983 30.9664 42.7633 30.3805 42.3239 29.9411C41.86 29.4773 41.2009 29.2331 40.3465 29.2331ZM40.078 34.4817C39.4677 34.4817 38.8086 34.1888 38.8086 33.5052V33.4808C38.8086 32.8705 39.3944 32.5043 40.2977 32.5043C40.9568 32.5043 41.445 32.602 41.7868 32.6996V33.0902C41.7868 33.8958 41.0545 34.4817 40.078 34.4817ZM49.7695 29.3064H48.8663C48.7931 29.3064 48.7442 29.3552 48.7198 29.404L47.011 33.7982L45.0824 29.404C45.058 29.3308 44.9848 29.3064 44.936 29.3064H43.9839C43.9351 29.3064 43.8618 29.3308 43.8374 29.3796C43.813 29.4284 43.813 29.4773 43.8374 29.5505L46.4251 35.2141C46.1077 35.9709 45.7904 36.1173 45.4242 36.1173C45.1068 36.1173 44.8627 36.0685 44.5942 35.922C44.5454 35.8976 44.4965 35.8976 44.4477 35.922C44.3989 35.9464 44.3745 35.9709 44.3501 36.0197L44.0571 36.7032C44.0327 36.7764 44.0571 36.8741 44.1304 36.9229C44.5698 37.1426 44.9604 37.2159 45.4242 37.2159C46.4007 37.2159 47.011 36.7276 47.4992 35.4826L49.8916 29.5505C49.916 29.5017 49.916 29.4284 49.8672 29.404C49.8672 29.3308 49.8184 29.3064 49.7695 29.3064Z" fill="#AAA19A"/>
<path fill-rule="evenodd" clip-rule="evenodd" d="M25.9923 25.9619C25.9923 32.0964 21.0193 37.0694 14.8848 37.0694C8.75032 37.0694 3.77734 32.0964 3.77734 25.9619C3.77734 19.8275 8.75032 14.8545 14.8848 14.8545C21.0193 14.8545 25.9923 19.8275 25.9923 25.9619ZM14.1768 21.7387H15.5927C15.6416 21.7387 15.6904 21.8119 15.666 21.8607C15.6598 21.8793 15.6512 21.9035 15.6409 21.9326C15.5699 22.1325 15.4157 22.5668 15.373 23.0569C15.3242 23.5696 15.3486 24.0822 15.373 24.2043C15.3974 24.2531 15.3486 24.3019 15.2998 24.3019H14.543C14.5186 24.3019 14.4698 24.2775 14.4698 24.2531C14.3966 24.0822 14.2257 23.5208 14.1524 23.0813C14.1036 22.764 14.1036 22.2025 14.1036 21.8363C14.1036 21.7875 14.128 21.7387 14.1768 21.7387ZM20.8657 23.3255C21.1099 23.3499 21.3296 23.0813 21.3784 22.7152C21.4272 22.3734 21.2807 22.0804 21.0366 22.056C20.7925 22.0316 20.5728 22.3002 20.524 22.6663C20.4996 23.0081 20.646 23.301 20.8657 23.3255ZM8.87944 23.3255C8.63532 23.3499 8.41562 23.0813 8.36679 22.7152C8.31797 22.3734 8.46444 22.0804 8.70856 22.056C8.95268 22.0316 9.17239 22.3002 9.22121 22.6663C9.27004 23.0081 9.12356 23.301 8.87944 23.3255ZM23.2093 23.5452H22.9163C22.7211 23.5452 22.5258 23.5696 22.3305 23.594C21.9399 23.6672 21.5493 23.7893 21.2075 24.009C21.0122 24.1311 20.8169 24.2531 20.646 24.424L20.524 24.5461C20.4996 24.4728 20.4751 24.3752 20.4751 24.3019C20.4507 24.1799 20.4263 24.1066 20.3775 23.9846C20.3043 23.7649 20.2066 23.5696 20.0601 23.3743C19.816 22.9837 19.4498 22.6907 19.0592 22.5199C18.6687 22.349 18.2292 22.2757 17.8142 22.3246C17.033 22.3978 16.2519 22.7884 15.8613 23.0325C15.8124 23.0569 15.788 23.1057 15.788 23.1546V23.4963C15.788 23.5452 15.8369 23.5696 15.8613 23.5452C16.3007 23.3255 16.7645 23.179 17.0575 23.1058C17.7654 22.9349 18.4734 22.9837 19.0592 23.4719C19.7672 24.0822 19.8404 25.1319 19.7672 26.0108C19.7184 26.6455 19.5231 27.6708 19.1569 28.5008C18.9616 28.9158 18.7419 29.3552 18.4978 29.7458C18.2292 30.1364 17.9363 30.527 17.5701 30.8199C17.2039 31.1373 16.7889 31.3326 16.3251 31.2838C16.1488 31.2642 15.9567 31.1974 15.7742 31.1339L15.7739 31.1339C15.7291 31.1183 15.6849 31.1029 15.6416 31.0885C15.5928 31.0738 15.543 31.0573 15.4921 31.0403C15.2882 30.9723 15.0654 30.8981 14.8116 30.9176H14.7871C14.625 30.9338 14.4737 30.9823 14.3331 31.0274C14.262 31.0502 14.1936 31.0721 14.128 31.0885C14.0582 31.1094 13.9903 31.1324 13.9233 31.1551C13.7562 31.2116 13.5943 31.2663 13.4201 31.2838C12.9562 31.3326 12.5412 31.1373 12.1751 30.8199C11.8089 30.5026 11.5159 30.1364 11.2474 29.7458C10.9789 29.3552 10.7592 28.9158 10.5883 28.5008C10.2221 27.6708 10.0024 26.8164 9.95357 26.0108V25.8155C9.92916 24.8878 10.1245 23.6916 11.0277 23.2034C11.2718 23.0813 11.5648 23.0081 11.8333 22.9837C12.4631 22.937 13.1153 23.247 13.5767 23.4664L13.6398 23.4963C13.6886 23.5208 13.7374 23.4963 13.7374 23.4475V23.1302C13.7374 23.0944 13.7243 23.0718 13.7078 23.043C13.7017 23.0325 13.6951 23.0212 13.6886 23.0081C13.4201 22.7884 12.5901 22.2757 11.8089 22.2757C11.4671 22.2757 11.0765 22.3246 10.6859 22.4955C10.2953 22.6663 9.95357 22.9593 9.68504 23.3499C9.56298 23.5452 9.46533 23.7405 9.36768 23.9602C9.31886 24.0822 9.29445 24.1555 9.27004 24.2775C9.24562 24.3508 9.22121 24.4484 9.22121 24.5216L9.09915 24.3996C9.06253 24.3752 9.02592 24.3447 8.9893 24.3141C8.95269 24.2836 8.91605 24.2531 8.87944 24.2287C8.87012 24.2194 8.8608 24.2136 8.85283 24.2087C8.83994 24.2007 8.83062 24.195 8.83062 24.1799C8.12267 23.6672 7.24384 23.4231 6.29177 23.5696C6.26736 23.5696 6.24295 23.594 6.24295 23.6428V23.9113C6.24295 23.9358 6.26736 23.9602 6.29177 23.9602H6.65795C7.63443 24.0578 8.7818 24.6437 9.05033 25.669C9.05033 25.6812 9.05643 25.6995 9.06253 25.7178C9.06864 25.7361 9.07474 25.7545 9.07474 25.7667C9.07474 25.7911 9.08084 25.8155 9.08695 25.8399C9.09305 25.8643 9.09915 25.8887 9.09915 25.9131C9.24562 26.9384 9.46533 27.8905 9.95357 28.8182C10.1733 29.2576 10.4418 29.697 10.7592 30.112C11.0765 30.527 11.4183 30.9176 11.8577 31.2349C12.0774 31.4058 12.3215 31.5523 12.5901 31.6499C12.8586 31.7476 13.176 31.772 13.4445 31.7232C13.7374 31.6744 13.9815 31.6011 14.2257 31.5035C14.4698 31.4058 14.6895 31.3326 14.9092 31.3326H14.9336C15.1045 31.357 15.2754 31.4058 15.4707 31.4791C15.7148 31.5767 15.9589 31.6744 16.2519 31.6988C16.5448 31.7476 16.8378 31.7232 17.1063 31.6255C17.3526 31.536 17.5784 31.3847 17.7837 31.2473C17.8022 31.2349 17.8205 31.2226 17.8386 31.2105C18.2781 30.8932 18.6198 30.4782 18.9372 30.0876C19.2545 29.6726 19.5231 29.2332 19.7428 28.7937C20.3287 27.6952 20.5728 26.1328 20.5972 25.8887C20.5972 25.8668 20.6021 25.8498 20.6076 25.831C20.6142 25.8081 20.6216 25.7826 20.6216 25.7422C20.6216 25.73 20.6277 25.7117 20.6338 25.6934C20.6399 25.6751 20.646 25.6568 20.646 25.6446C20.8169 25.0587 21.2807 24.5949 21.8178 24.3019C22.0131 24.2043 22.2328 24.1066 22.4281 24.0578C22.7455 23.9602 23.0872 23.9358 23.429 23.9358C23.4534 23.9358 23.4778 23.9113 23.4778 23.8869V23.6184C23.4778 23.5696 23.4534 23.5696 23.4534 23.5696C23.4315 23.5696 23.3947 23.5646 23.3543 23.5592C23.3047 23.5526 23.2496 23.5452 23.2093 23.5452Z" fill="#AAA19A"/>
</svg>
